<?xml version="1.0" standalone="no"?><!DOCTYPE svg PUBLIC "-//W3C//DTD SVG 1.1//EN" "http://www.w3.org/Graphics/SVG/1.1/DTD/svg11.dtd"><svg t="1545104676161" class="icon" style="" viewBox="0 0 1024 1024" version="1.1" xmlns="http://www.w3.org/2000/svg" p-id="2540" xmlns:xlink="http://www.w3.org/1999/xlink" width="200" height="200"><defs><style type="text/css"></style></defs><path d="M853.317818 597.317818a108.823273 108.823273 0 1 0-0.837818 217.6 108.823273 108.823273 0 0 0 0.837818-217.6zM512 260.701091a109.242182 109.242182 0 1 0-108.357818-108.823273A108.823273 108.823273 0 0 0 512 260.701091z m361.797818 270.475636c23.738182 2.932364 46.545455 10.798545 67.025455 23.04v-4.654545a432.221091 432.221091 0 0 0-256-393.821091c-0.372364 23.272727-5.445818 46.173091-14.941091 67.397818a364.357818 364.357818 0 0 1 203.915636 308.084364zM280.762182 704.837818a108.357818 108.357818 0 1 0-110.08 108.823273 108.776727 108.776727 0 0 0 110.08-108.823273z m-130.56-173.614545a365.242182 365.242182 0 0 1 202.24-308.503273 167.237818 167.237818 0 0 1-14.941091-67.025455 432.221091 432.221091 0 0 0-256 393.867637c0.930909 1.908364 2.234182 3.630545 3.816727 5.12a164.677818 164.677818 0 0 1 64.884364-23.505455zM512 915.223273a359.237818 359.237818 0 0 1-224.023273-78.522182 172.823273 172.823273 0 0 1-61.44 35.374545 426.682182 426.682182 0 0 0 570.88 0 172.823273 172.823273 0 0 1-61.44-35.374545A359.237818 359.237818 0 0 1 512 914.338909v0.884364z" fill="#3E4456" p-id="2541"></path><path d="M469.038545 698.181818a30.254545 30.254545 0 0 1-20.247272-7.586909L334.196364 587.170909a24.157091 24.157091 0 0 1 0-36.584727 30.859636 30.859636 0 0 1 40.494545 0l94.347636 85.178182 180.270546-162.722909a30.813091 30.813091 0 0 1 40.494545 0c11.170909 10.100364 11.170909 26.437818 0 36.538181l-200.517818 181.061819a30.301091 30.301091 0 0 1-20.247273 7.540363z" fill="#F67F89" p-id="2542"></path></svg>