<svg xmlns="http://www.w3.org/2000/svg" width="613" height="73" viewBox="0 0 613 73">
  <g fill="none">
    <path fill="#5C85D9" d="M69.998419,35.8145769 C70.0418919,40.7250931 69.1884852,45.6022177 67.480261,50.2055716 C65.9228817,54.4294149 63.5753127,58.3172824 60.5632951,61.6609311 C54.5171304,68.2942719 45.9455392,72.051202 36.9754855,71.9994728 L0,72 L0,27.7415799 L17.1170997,27.7415799 L17.1170997,53.7474794 L36.9754855,53.7474794 C39.1580894,53.7515668 41.3215561,53.340074 43.3505692,52.5349344 C45.311122,51.761088 47.0829216,50.5750137 48.5462624,49.0568448 C50.0126348,47.5089034 51.1606729,45.68745 51.9250567,43.6961195 C53.5690887,39.2266273 53.5690887,34.3170712 51.9250567,29.8475791 C51.160827,27.8129961 49.9893497,25.9561984 48.4825115,24.3911265 C47.0150701,22.8751144 45.2736299,21.6515706 43.3505692,20.7854006 C41.3414542,19.9042286 39.168889,19.4583824 36.9754855,19.4771283 L0,19.4771283 L10.8695177,1.00177144 L36.9754855,1.00177144 C41.5423526,0.955310043 46.0724207,1.82322428 50.2994104,3.55449778 C54.2146374,5.21340706 57.7424855,7.66920896 60.6589214,10.7659497 C63.6534108,13.9537592 65.9831956,17.7070466 67.5121364,21.8064911 C69.1948697,26.2829286 70.0377507,31.0318457 69.998419,35.8145769 L69.998419,35.8145769 Z"/>
    <polygon fill="#5C85D9" points="240 1 229.052 19.476 209.528 19.476 209.528 72 192.631 72 192.631 19.476 167 19.476 177.948 1"/>
    <path fill="#5C85D9" d="M531.873088 40.9088829C531.873088 62.2954613 520.493302 72.9887505 497.733729 72.9887505 491.990116 73.0970808 486.258435 72.4225883 480.695778 70.9837587 476.384648 69.8646947 472.375029 67.7993909 468.956407 64.9369583 465.870042 62.2506063 463.530681 58.8075661 462.166609 54.9438249 460.638868 50.4270474 459.908745 45.6774744 460.009103 40.9088829L460.009103 1 476.888414 1 476.888414 40.9088829C476.836948 43.1232009 477.114982 45.332838 477.713343 47.4648876 478.259 49.2142546 479.376825 50.7279433 480.886146 51.7612984 482.797345 53.0103679 484.967757 53.8049961 487.231752 54.0845428 490.750236 54.6037156 494.304686 54.8378575 497.860641 54.7846986 500.607589 54.8376762 503.352184 54.5922532 506.046473 54.0527175 507.962372 53.6877962 509.759874 52.8573188 511.281597 51.6339973 512.601982 50.479369 513.57911 48.9816528 514.105392 47.3057612 514.721622 45.2421963 515.010701 43.0943073 514.962049 40.9407081L514.962049 1 532 1 531.873088 40.9088829zM603.653739 73C602.561798 72.983342 601.484463 72.7456323 600.486372 72.3011325 599.07355 71.5334958 597.858851 70.4457581 596.93892 69.1244619L563.364827 30.3373147 563.364827 71.8563986 548.003096 71.8563986 548.003096 13.2150605C547.96779 11.1749548 548.234646 9.14089381 548.794938 7.17938649 549.214991 5.68477601 549.913572 4.28351066 550.853726 3.04971479 551.632136 2.04714494 552.643465 1.25097456 553.799378.730745297 554.89621.242983163 556.083681-.00603545257 557.283482.000111073813 558.376039.0114071704 559.454442.249352814 560.450849.698978592 561.884714 1.47407888 563.128873 2.55913422 564.093322 3.87564913L597.54072 42.6627964 597.54072 1.17547917 612.997472 1.17547917 612.997472 59.6897505C613.029184 61.7192082 612.762367 63.7422657 612.20563 65.6936578 611.774212 67.193587 611.076803 68.6032621 610.146842 69.8550962 609.375136 70.8927781 608.349685 71.7133607 607.169517 72.2375991 606.061819 72.7299254 604.865287 72.989395 603.653739 73z"/>
    <path fill="#1B1464" d="M131.335294,8.0061218 C130.214754,5.8737336 128.712696,3.95943707 126.90181,2.35586866 C123.062426,-0.785289555 117.504995,-0.785289555 113.665611,2.35586866 C111.917788,3.94854114 110.432735,5.8014292 109.264253,7.84740682 L95,33.4640039 L115.239819,33.4640039 L120.026697,24.8299092 L129.985973,43.5265334 C130.928356,45.2194931 131.913575,47.0288438 132.941629,48.9545855 C133.969683,50.8803272 134.869231,52.530963 135.640271,53.9064928 L145.888688,72 L166,71.841285 L131.335294,8.0061218 Z"/>
    <polygon fill="#5C85D9" points="86.269 49 74 72 93.731 72 106 49"/>
    <path fill="#1B1464" d="M304.335294,8.02380928 C303.214754,5.88671011 301.712696,3.96818444 299.90181,2.36107335 C296.062426,-0.787024451 290.504995,-0.787024451 286.665611,2.36107335 C284.917788,3.95726443 283.432735,5.81424597 282.264253,7.86474366 L268,33.5379341 L288.239819,33.5379341 L293.026697,24.8847646 L302.985973,43.6226941 C303.928356,45.319394 304.913575,47.132742 305.941629,49.0627382 C306.969683,50.9927343 307.869231,52.5939949 308.640271,53.8665198 L318.888688,72 L339,71.8409344 L304.335294,8.02380928 Z"/>
    <polygon fill="#5C85D9" points="259.3 49 247 72 266.762 72 279 49"/>
    <path fill="#5C85D9" d="M438.99247,58.1829213 C437.040305,55.715206 435.485008,53.736779 434.32658,52.2476404 C433.317407,51.0219153 432.243274,49.8502264 431.108725,48.7375281 C433.328604,48.2029818 435.411178,47.2138594 437.22265,45.8337079 C439.036048,44.4359996 440.583414,42.7286454 441.792004,40.7919101 C443.078944,38.7126668 444.044301,36.4538598 444.655895,34.0907865 C445.330983,31.5282615 445.666321,28.8893971 445.653431,26.2408989 C445.820866,21.9128153 444.891543,17.6121562 442.950432,13.7321348 C441.281333,10.6956085 438.924029,8.08488118 436.064222,6.10561798 C433.290379,4.18972643 430.163182,2.83434649 426.861156,2.11685393 C423.693331,1.40043845 420.456645,1.02597519 417.207591,1 L381.360684,1 L370.162548,19.4759551 L418.430376,19.4759551 C420.932491,19.3230681 423.407792,20.0583324 425.413121,21.5501124 C427.157233,23.1379667 428.070481,25.4314432 427.89087,27.7725843 C427.991575,30.0444747 426.971236,32.2228799 425.155693,33.6121348 C423.222545,35.0557713 420.848993,35.7990611 418.430376,35.7182022 L387.860751,35.7182022 L387.860751,27.5811236 L374.98933,27.5811236 C373.640968,27.5892547 372.352596,28.1349694 371.414395,29.0953561 C370.476194,30.0557429 369.967056,31.3500432 370.001655,32.6867416 L370.001655,35.6862921 L370.001655,35.6862921 L370.001655,72 L387.185002,72 L387.185002,53.2049438 L413.603593,53.2049438 L425.992335,72 L449,72 L438.99247,58.1829213 Z"/>
  </g>
</svg>
