<?xml version="1.0" standalone="no"?><!DOCTYPE svg PUBLIC "-//W3C//DTD SVG 1.1//EN" "http://www.w3.org/Graphics/SVG/1.1/DTD/svg11.dtd"><svg t="1545104679580" class="icon" style="" viewBox="0 0 1075 1024" version="1.1" xmlns="http://www.w3.org/2000/svg" p-id="2651" xmlns:xlink="http://www.w3.org/1999/xlink" width="209.9609375" height="200"><defs><style type="text/css"></style></defs><path d="M258.7648 19.0464c-32.8704 0-59.4944 27.4944-59.4944 61.44v184.1664H80.1792c-32.8192 0-59.4944 27.4944-59.4944 61.3888v613.888c0 33.9456 26.624 61.44 59.4944 61.44h119.0912c8.6016 1.3824 25.7536 0 59.4944 0h418.816a30.208 30.208 0 0 0 29.696-30.6688 30.208 30.208 0 0 0-29.696-30.72H288.512c-29.0816 0-29.7984 0.1536-29.7984-30.72V111.1552c0-16.9984 13.3632-30.72 29.7984-30.72h625.1008a30.208 30.208 0 0 1 29.696 30.72v460.6976c32.9728 0 59.5968-27.4432 59.5968-61.3376v-430.08c0-33.8944-26.624-61.3888-59.5456-61.3888H258.7648zM199.2704 940.032H109.9776a30.208 30.208 0 0 1-29.7984-30.72V356.7104c0-16.9472 13.312-30.72 29.7984-30.72h89.2928V940.032z m565.5552-445.1328v30.72c0 8.448-6.656 15.36-14.848 15.36H452.2496a15.1552 15.1552 0 0 1-14.848-15.36v-30.72c0-8.448 6.656-15.36 14.848-15.36h297.728c8.192 0 14.848 6.8608 14.848 15.36z m0-184.1664c0-8.4992-6.656-15.36-14.848-15.36H452.2496c-8.192 0-14.848 6.8608-14.848 15.36v30.72c0 8.448 6.7072 15.36 14.848 15.36h297.728c8.192 0 14.848-6.912 14.848-15.36v-30.72z" fill="#3E4456" p-id="2652"></path><path d="M921.6 665.6c-84.6848 0-153.6 68.9152-153.6 153.6s68.9152 153.6 153.6 153.6 153.6-68.9152 153.6-153.6-68.9152-153.6-153.6-153.6z m98.2528 124.7744l-114.176 105.3184a15.4624 15.4624 0 0 1-10.3936 3.9424h-0.1024a15.5136 15.5136 0 0 1-10.3424-3.84l-61.3376-55.2448a12.544 12.544 0 0 1-4.3008-9.2672c0-3.5328 1.536-6.8608 4.3008-9.3184a15.4624 15.4624 0 0 1 10.3424-3.8912c3.8912 0 7.5776 1.3824 10.3424 3.8912l50.944 45.7728 103.7824-95.744a15.872 15.872 0 0 1 20.6848-0.256 12.288 12.288 0 0 1 0.256 18.6368z" fill="#F67F89" p-id="2653"></path></svg>