<?xml version="1.0" standalone="no"?><!DOCTYPE svg PUBLIC "-//W3C//DTD SVG 1.1//EN" "http://www.w3.org/Graphics/SVG/1.1/DTD/svg11.dtd"><svg t="1554442283419" class="icon" style="" viewBox="0 0 1024 1024" version="1.1" xmlns="http://www.w3.org/2000/svg" p-id="1571" xmlns:xlink="http://www.w3.org/1999/xlink" width="200" height="200"><defs><style type="text/css"></style></defs><path d="M440.778246 406.574263c-20.537007 0-34.203983 13.666976-34.203983 34.203983v342.624509c0 20.537007 13.666976 34.277068 34.203983 34.277068 20.610092 0 34.277068-13.740061 34.277068-34.350153V440.851331c0-20.537007-13.740061-34.203983-34.277068-34.203982z m548.140746-205.589323H749.125687v-34.277068c0-58.24909-44.582114-102.758119-102.758119-102.758118H440.70516c-58.24909 0-102.758119 44.582114-102.758118 102.758118v34.277068H98.226822c-20.610092 0-34.277068 13.740061-34.277068 34.277068 0 20.537007 13.740061 34.277068 34.277068 34.277068h68.48105v650.898866c0 58.24909 44.582114 102.758119 102.758119 102.758118h548.140747c58.24909 0 102.831204-44.582114 102.831204-102.758118V269.539076h68.48105c20.537007 0 34.277068-13.740061 34.277068-34.350153 0-20.463921-13.740061-34.203983-34.277068-34.203983z m-582.417814-34.277068c0-20.537007 13.740061-34.277068 34.350153-34.277068h205.516237c20.537007 0 34.277068 13.740061 34.277068 34.350154v34.203982h-274.070373v-34.277068z m445.382628 753.73007c0 20.537007-13.666976 34.277068-34.277068 34.277068h-548.140747c-20.463921 0-34.203983-13.740061-34.203983-34.350154V269.612162h616.621798v650.898865zM646.367568 406.574263c-20.537007 0-34.277068 13.666976-34.277068 34.203983v342.624509c0 20.537007 13.740061 34.277068 34.277068 34.277068 20.537007 0 34.277068-13.740061 34.277068-34.350153V440.851331c0-20.537007-13.740061-34.203983-34.350153-34.203982z" p-id="1572"></path></svg>