<?xml version="1.0" standalone="no"?><!DOCTYPE svg PUBLIC "-//W3C//DTD SVG 1.1//EN" "http://www.w3.org/Graphics/SVG/1.1/DTD/svg11.dtd"><svg t="1557454411104" class="icon" style="" viewBox="0 0 1024 1024" version="1.1" xmlns="http://www.w3.org/2000/svg" p-id="2802" xmlns:xlink="http://www.w3.org/1999/xlink" width="200" height="200"><defs><style type="text/css"></style></defs><path d="M654.222222 705.422222h-102.4V625.777778h79.644445v-540.444445h-529.066667v540.444445h73.955556v79.644444h-102.4c-28.444444 0-51.2-22.755556-51.2-51.2v-591.644444c0-28.444444 22.755556-51.2 51.2-51.2h580.266666c28.444444 0 51.2 22.755556 51.2 51.2v591.644444c5.688889 28.444444-22.755556 51.2-51.2 51.2z" fill="#3E4456" p-id="2803"></path><path d="M950.044444 1018.311111h-580.266666c-28.444444 0-51.2-22.755556-51.2-51.2v-591.644444c0-28.444444 22.755556-51.2 51.2-51.2h102.4v79.644444h-73.955556v540.444445h529.066667V398.222222h-79.644445v-79.644444h102.4c28.444444 0 51.2 22.755556 51.2 51.2v591.644444c5.688889 34.133333-22.755556 56.888889-51.2 56.888889z" fill="#F67F89" p-id="2804"></path></svg>