<?xml version="1.0" standalone="no"?><!DOCTYPE svg PUBLIC "-//W3C//DTD SVG 1.1//EN" "http://www.w3.org/Graphics/SVG/1.1/DTD/svg11.dtd"><svg t="1542014971755" class="icon" style="" viewBox="0 0 1092 1024" version="1.1" xmlns="http://www.w3.org/2000/svg" p-id="2001" xmlns:xlink="http://www.w3.org/1999/xlink" width="213.28125" height="200"><defs><style type="text/css"></style></defs><path d="M546.2016 643.618133a128.341333 128.341333 0 0 1-61.303467-14.472533L101.5808 415.744A71.8848 71.8848 0 0 1 62.805333 350.890667c0-16.247467 5.051733-46.148267 38.775467-64.9216l383.317333-213.128534c33.5872-18.705067 88.8832-18.6368 122.402134 0l383.3856 213.333334c33.723733 18.773333 38.775467 48.7424 38.775466 64.9216s-5.051733 46.148267-38.775466 64.853333L607.368533 629.213867a127.863467 127.863467 0 0 1-61.166933 14.472533zM137.0112 350.890667l368.503467 205.0048c20.48 11.4688 60.757333 11.4688 81.237333 0l368.571733-204.8L586.752 146.090667c-20.48-11.4688-60.757333-11.4688-81.237333 0l-368.503467 204.8z" p-id="2002"></path><path d="M948.906667 556.2368l-362.0864 201.386667c-20.48 11.400533-60.757333 11.400533-81.237334 0l-361.949866-201.386667H62.8736c0.8192 16.7936 7.3728 43.8272 38.7072 61.2352l383.317333 213.265067c16.861867 9.352533 38.570667 14.5408 61.303467 14.5408 22.664533 0 44.373333-5.12 61.166933-14.472534l383.317334-213.128533c31.402667-17.476267 37.956267-44.6464 38.638933-61.44h-80.349867z" p-id="2003"></path><path d="M954.914133 729.634133l0.341334 0.2048-368.4352 204.8c-20.48 11.4688-60.757333 11.400533-81.3056 0l-368.503467-205.0048H62.805333c0 16.1792 5.051733 46.148267 38.775467 64.9216l383.317333 213.265067c16.861867 9.352533 38.570667 14.5408 61.303467 14.5408 22.664533 0 44.373333-5.188267 61.166933-14.472533l383.317334-213.128534c33.792-18.773333 38.775467-48.7424 38.775466-64.853333v-0.273067h-74.5472z" p-id="2004"></path></svg>