<?xml version="1.0" standalone="no"?><!DOCTYPE svg PUBLIC "-//W3C//DTD SVG 1.1//EN" "http://www.w3.org/Graphics/SVG/1.1/DTD/svg11.dtd"><svg t="1543481044475" class="icon" style="" viewBox="0 0 1024 1024" version="1.1" xmlns="http://www.w3.org/2000/svg" p-id="2183" xmlns:xlink="http://www.w3.org/1999/xlink" width="200" height="200"><defs><style type="text/css"></style></defs><path d="M512 992c-262.4 0-480-217.6-480-480s217.6-480 480-480 480 217.6 480 480-217.6 480-480 480z m0-896c-230.4 0-416 185.6-416 416s185.6 416 416 416 416-185.6 416-416-185.6-416-416-416z" p-id="2184"></path><path d="M422.4 723.2c-6.4 0-12.8 0-12.8-6.4-12.8-6.4-19.2-19.2-19.2-25.6v-358.4c0-12.8 6.4-25.6 19.2-25.6 12.8-6.4 25.6-6.4 32 0l268.8 179.2c6.4 6.4 12.8 12.8 12.8 25.6s-6.4 19.2-12.8 25.6l-268.8 179.2c-6.4 6.4-12.8 6.4-19.2 6.4z m32-332.8v236.8l179.2-121.6-179.2-115.2z" p-id="2185"></path></svg>