<?xml version="1.0" standalone="no"?><!DOCTYPE svg PUBLIC "-//W3C//DTD SVG 1.1//EN" "http://www.w3.org/Graphics/SVG/1.1/DTD/svg11.dtd"><svg t="1543822649825" class="icon" style="" viewBox="0 0 1024 1024" version="1.1" xmlns="http://www.w3.org/2000/svg" p-id="1926" xmlns:xlink="http://www.w3.org/1999/xlink" width="200" height="200"><defs><style type="text/css"></style></defs><path d="M992 588.8c0 14.0288-11.52 25.6-25.6 25.6h-140.8v140.8c0 14.0288-11.52 25.6-25.6 25.6a25.6512 25.6512 0 0 1-25.6-25.6V614.4h-140.8a25.6512 25.6512 0 0 1-25.6-25.6c0-14.08 11.52-25.6 25.6-25.6h140.8V422.4c0-14.1312 11.52-25.6 25.6-25.6s25.6 11.4688 25.6 25.6V563.2h140.8c14.08 0 25.6 11.52 25.6 25.6z m-166.4 289.3312v5.0688c0 56.32-46.08 102.4-102.4 102.4h-588.8c-56.32 0-102.4-46.08-102.4-102.4v-486.4l358.4-358.4h332.8c56.32 0 102.4 46.08 102.4 102.4v174.1312a25.6 25.6 0 1 1-51.2 0V140.8a51.2 51.2 0 0 0-51.2-51.2h-281.6v307.2a51.2 51.2 0 0 1-51.2 51.2h-307.2v435.2a51.2 51.2 0 0 0 51.2 51.2h588.8a51.2 51.2 0 0 0 51.2-51.2v-5.0688a25.6 25.6 0 1 1 51.2 0z m-716.8-481.3312h256a25.6 25.6 0 0 0 25.6-25.6v-256l-281.6 281.6z" p-id="1927"></path></svg>