<?xml version="1.0" standalone="no"?><!DOCTYPE svg PUBLIC "-//W3C//DTD SVG 1.1//EN" "http://www.w3.org/Graphics/SVG/1.1/DTD/svg11.dtd"><svg t="1543548848286" class="icon" style="" viewBox="0 0 1024 1024" version="1.1" xmlns="http://www.w3.org/2000/svg" p-id="2587" xmlns:xlink="http://www.w3.org/1999/xlink" width="200" height="200"><defs><style type="text/css"></style></defs><path d="M421.347556 321.564444c-20.280889 0-36.778667 14.165333-36.778667 31.715556v317.44c0 17.493333 16.440889 31.715556 36.778667 31.715556 20.252444 0 36.693333-14.222222 36.693333-31.715556V353.28c0-17.550222-16.497778-31.715556-36.693333-31.715556z m182.442666 0c-20.252444 0-36.693333 14.165333-36.693333 31.715556v317.44c0 17.493333 16.355556 31.715556 36.693333 31.715556 20.337778 0 36.778667-14.222222 36.778667-31.715556V353.28c0-17.550222-16.497778-31.715556-36.778667-31.715556z" p-id="2588"></path><path d="M512.568889 16.440889C239.303111 16.440889 17.009778 238.705778 17.009778 512S239.274667 1007.559111 512.568889 1007.559111 1008.156444 785.294222 1008.156444 512C1008.156444 238.734222 785.863111 16.440889 512.568889 16.440889z m0 920.007111C278.556444 936.448 88.120889 746.069333 88.120889 512c0-234.012444 190.435556-424.448 424.448-424.448S937.045333 277.987556 937.045333 512 746.609778 936.448 512.568889 936.448z" p-id="2589"></path></svg>