<?xml version="1.0" standalone="no"?><!DOCTYPE svg PUBLIC "-//W3C//DTD SVG 1.1//EN" "http://www.w3.org/Graphics/SVG/1.1/DTD/svg11.dtd"><svg t="1554442383240" class="icon" style="" viewBox="0 0 1024 1024" version="1.1" xmlns="http://www.w3.org/2000/svg" p-id="1705" xmlns:xlink="http://www.w3.org/1999/xlink" width="200" height="200"><defs><style type="text/css"></style></defs><path d="M440.888889 49.777778H85.333333a35.555556 35.555556 0 0 0-35.555555 35.555555v355.555556c0 19.626667 15.928889 35.555556 35.555555 35.555555h355.555556c19.626667 0 35.555556-15.928889 35.555555-35.555555V85.333333A35.555556 35.555556 0 0 0 440.888889 49.777778z m-35.555556 355.555555h-284.444444v-284.444444h284.444444v284.444444zM938.666667 49.777778h-355.555556a35.555556 35.555556 0 0 0-35.555555 35.555555v355.555556c0 19.626667 15.928889 35.555556 35.555555 35.555555h355.555556c19.626667 0 35.555556-15.928889 35.555555-35.555555V85.333333A35.555556 35.555556 0 0 0 938.666667 49.777778z m-35.555556 355.555555h-284.444444v-284.444444h284.444444v284.444444z m-462.222222 142.222223H85.333333a35.555556 35.555556 0 0 0-35.555555 35.555555v355.555556c0 19.626667 15.928889 35.555556 35.555555 35.555555h355.555556c19.626667 0 35.555556-15.928889 35.555555-35.555555v-355.555556a35.555556 35.555556 0 0 0-35.555555-35.555555z m-35.555556 355.555555h-284.444444v-284.444444h284.444444v284.444444z m533.333334-355.555555h-355.555556a35.555556 35.555556 0 0 0-35.555555 35.555555v355.555556c0 19.626667 15.928889 35.555556 35.555555 35.555555h355.555556c19.626667 0 35.555556-15.928889 35.555555-35.555555v-355.555556a35.555556 35.555556 0 0 0-35.555555-35.555555z m-35.555556 355.555555h-284.444444v-284.444444h284.444444v284.444444z" p-id="1706"></path></svg>