<?xml version="1.0" standalone="no"?><!DOCTYPE svg PUBLIC "-//W3C//DTD SVG 1.1//EN" "http://www.w3.org/Graphics/SVG/1.1/DTD/svg11.dtd"><svg t="1543460392142" class="icon" style="" viewBox="0 0 1024 1024" version="1.1" xmlns="http://www.w3.org/2000/svg" p-id="1926" xmlns:xlink="http://www.w3.org/1999/xlink" width="200" height="200"><defs><style type="text/css"></style></defs><path d="M512 239.689143v136.118857l207.506286-181.540571L512 12.726857v136.192C282.697143 148.918857 96.987429 311.369143 96.987429 512c0 71.241143 23.917714 137.289143 64.365714 193.389714l75.702857-66.267428A242.834286 242.834286 0 0 1 200.777143 512c0-150.454857 139.264-272.310857 311.222857-272.310857z m350.646857 78.994286l-75.702857 66.194285A242.834286 242.834286 0 0 1 823.222857 512c0 150.454857-139.264 272.310857-311.222857 272.310857V648.192l-207.506286 181.540571L512 1011.273143v-136.192c229.302857 0 415.012571-162.450286 415.012571-363.081143 0-71.241143-23.917714-137.289143-64.365714-193.389714z" p-id="1927"></path></svg>