<?xml version="1.0" standalone="no"?><!DOCTYPE svg PUBLIC "-//W3C//DTD SVG 1.1//EN" "http://www.w3.org/Graphics/SVG/1.1/DTD/svg11.dtd"><svg t="1543226842821" class="icon" style="" viewBox="0 0 1024 1024" version="1.1" xmlns="http://www.w3.org/2000/svg" p-id="1922" xmlns:xlink="http://www.w3.org/1999/xlink" width="200" height="200"><defs><style type="text/css"></style></defs><path d="M778.633846 458.673231a53.326769 53.326769 0 0 1-53.326769-53.326769V298.692923H405.346462a53.326769 53.326769 0 0 1 0-106.653538h373.366153c29.380923 0 53.326769 23.867077 53.32677 53.326769v159.901538a53.326769 53.326769 0 0 1-53.405539 53.405539z m-159.901538 373.366154h-373.366154a53.326769 53.326769 0 0 1-53.405539-53.405539v-159.901538a53.326769 53.326769 0 1 1 106.732308 0v106.574769h319.960615a53.326769 53.326769 0 0 1 0 106.653538z m-213.464616-373.366154H85.385846a53.326769 53.326769 0 0 1-53.326769-53.326769V85.307077c0-29.459692 23.867077-53.326769 53.326769-53.326769h320.039385c29.459692 0 53.326769 23.867077 53.326769 53.326769v320.039385a53.326769 53.326769 0 0 1-53.326769 53.326769zM138.633846 352.019692H352.098462V138.633846H138.633846V352.098462z m800.059077 640H618.653538a53.326769 53.326769 0 0 1-53.326769-53.326769V618.653538c0-29.459692 23.867077-53.326769 53.326769-53.326769h320.039385c29.459692 0 53.326769 23.867077 53.326769 53.326769v320.039385a53.326769 53.326769 0 0 1-53.326769 53.326769zM671.901538 885.366154h213.385847V671.901538H671.901538v213.385847z" p-id="1923"></path></svg>