<?xml version="1.0" standalone="no"?><!DOCTYPE svg PUBLIC "-//W3C//DTD SVG 1.1//EN" "http://www.w3.org/Graphics/SVG/1.1/DTD/svg11.dtd"><svg t="1542101313669" class="icon" style="" viewBox="0 0 1260 1024" version="1.1" xmlns="http://www.w3.org/2000/svg" p-id="2980" xmlns:xlink="http://www.w3.org/1999/xlink" width="246.09375" height="200"><defs><style type="text/css"></style></defs><path d="M610.776615 578.481231a320.748308 320.748308 0 0 0 135.876923-263.640616C746.732308 140.918154 612.982154 0 448.039385 0 282.939077 0 149.346462 140.918154 149.346462 314.840615c0 110.198154 54.508308 207.005538 135.876923 263.640616C118.705231 635.982769 0 783.911385 0 983.827692c0 22.055385 16.462769 39.384615 37.336615 39.384616s37.336615-17.329231 37.336616-39.384616c0-217.166769 167.227077-354.146462 373.366154-354.146461 206.060308 0 373.366154 136.979692 373.366153 354.146461 0 22.055385 16.384 39.384615 37.257847 39.384616s37.336615-17.329231 37.336615-39.384616c0-199.916308-118.705231-347.844923-285.223385-405.346461z m-162.73723-27.569231c-123.273846 0-224.019692-106.180923-224.019693-236.071385 0-129.890462 100.824615-236.150154 224.019693-236.150153C571.234462 78.769231 671.901538 185.107692 671.901538 314.840615c0 129.890462-100.824615 236.150154-224.019692 236.150154z m490.496 32.295385a318.936615 318.936615 0 0 0 144.147692-268.36677C1082.683077 140.918154 949.011692 0 783.990154 0c-20.873846 0-37.336615 17.329231-37.336616 39.384615s16.462769 39.384615 37.336616 39.384616c123.195077 0 224.019692 106.180923 224.019692 236.071384 0 87.433846-44.819692 162.894769-112.009846 203.85477-65.693538 42.535385-83.652923 102.321231 0 134.616615 129.969231 48.836923 224.019692 177.073231 224.019692 331.303385 0 22.055385 16.384 39.384615 37.336616 39.384615 20.873846 0 37.336615-17.329231 37.336615-39.384615 0-181.799385-106.023385-336.817231-256.157538-401.408z" p-id="2981"></path></svg>