<?xml version="1.0" standalone="no"?><!DOCTYPE svg PUBLIC "-//W3C//DTD SVG 1.1//EN" "http://www.w3.org/Graphics/SVG/1.1/DTD/svg11.dtd"><svg t="1545103402558" class="icon" style="" viewBox="0 0 1024 1024" version="1.1" xmlns="http://www.w3.org/2000/svg" p-id="2318" xmlns:xlink="http://www.w3.org/1999/xlink" width="200" height="200"><defs><style type="text/css"></style></defs><path d="M512 806.4c96 0 185.6-38.4 249.6-102.4 70.4-70.4 102.4-160 102.4-249.6v-428.8c0-6.4-6.4-19.2-19.2-19.2h-83.2c-6.4 0-19.2 6.4-19.2 19.2v428.8c0 134.4-108.8 243.2-243.2 243.2s-243.2-108.8-243.2-243.2v-428.8c0-6.4-6.4-19.2-19.2-19.2h-83.2c-6.4 0-19.2 6.4-19.2 19.2v428.8c0 96 38.4 185.6 102.4 249.6 89.6 70.4 179.2 102.4 275.2 102.4z" fill="#3E4456" p-id="2319"></path><path d="M940.8 915.2h-857.6c-6.4 0-12.8 6.4-12.8 12.8v83.2c0 6.4 6.4 12.8 12.8 12.8h857.6c6.4 0 12.8-6.4 12.8-12.8v-83.2c0-12.8-6.4-12.8-12.8-12.8z" fill="#F67F89" p-id="2320"></path></svg>