<?xml version="1.0" standalone="no"?><!DOCTYPE svg PUBLIC "-//W3C//DTD SVG 1.1//EN" "http://www.w3.org/Graphics/SVG/1.1/DTD/svg11.dtd"><svg t="1545104656991" class="icon" style="" viewBox="0 0 1024 1024" version="1.1" xmlns="http://www.w3.org/2000/svg" p-id="2429" xmlns:xlink="http://www.w3.org/1999/xlink" width="200" height="200"><defs><style type="text/css"></style></defs><path d="M850.895238 204.8h-92.647619c-14.628571 0-19.504762-14.628571-19.504762-19.504762v-112.152381c0-39.009524-34.133333-73.142857-73.142857-73.142857h-492.495238c-39.009524 0-73.142857 34.133333-73.142857 73.142857v877.714286c0 39.009524 34.133333 73.142857 73.142857 73.142857h682.666667c39.009524 0 73.142857-34.133333 73.142857-73.142857v-672.914286c-4.87619-39.009524-39.009524-73.142857-78.019048-73.142857z m19.504762 102.4v653.409524c0 14.628571-4.87619 19.504762-19.504762 19.504762h-682.666667c-14.628571 0-19.504762-14.628571-19.504761-19.504762v-882.590476c0-14.628571 4.87619-24.380952 19.504761-24.380953h502.247619c14.628571 0 19.504762 14.628571 19.504762 19.504762v112.152381c0 39.009524 34.133333 73.142857 73.142858 73.142857h87.771428c14.628571 0 19.504762 14.628571 19.504762 19.504762v29.257143z m-594.895238 78.019048h438.857143c14.628571 0 53.638095-14.628571 53.638095-24.380953 0-14.628571-39.009524-24.380952-53.638095-24.380952h-438.857143c-14.628571 0-24.380952 14.628571-24.380952 24.380952s9.752381 24.380952 24.380952 24.380953z m0 102.4c-14.628571 0-24.380952 14.628571-24.380952 24.380952s14.628571 24.380952 24.380952 24.380952h234.057143c14.628571 0 24.380952-14.628571 24.380952-24.380952s-14.628571-24.380952-24.380952-24.380952h-234.057143z m131.657143 175.542857c0-14.628571-14.628571-24.380952-24.380953-24.380953h-107.27619c-14.628571 0-24.380952 14.628571-24.380952 24.380953 0 14.628571 14.628571 24.380952 24.380952 24.380952h102.4c19.504762 4.87619 29.257143-4.87619 29.257143-24.380952z" fill="#3E4456" p-id="2430"></path><path d="M787.504762 497.371429l-390.095238 385.219047c-14.628571 14.628571-14.628571 24.380952 0 34.133334 4.87619 4.87619 14.628571 4.87619 19.504762 4.87619 4.87619 0 14.628571 0 19.504762-4.87619l390.095238-385.219048c14.628571-14.628571 14.628571-24.380952 0-34.133333-14.628571-14.628571-29.257143-14.628571-39.009524 0z" fill="#F67F89" p-id="2431"></path></svg>