<?xml version="1.0" standalone="no"?><!DOCTYPE svg PUBLIC "-//W3C//DTD SVG 1.1//EN" "http://www.w3.org/Graphics/SVG/1.1/DTD/svg11.dtd"><svg t="1542101017880" class="icon" style="" viewBox="0 0 1024 1024" version="1.1" xmlns="http://www.w3.org/2000/svg" p-id="1711" xmlns:xlink="http://www.w3.org/1999/xlink" width="200" height="200"><defs><style type="text/css"></style></defs><path d="M624.932571 722.066286H123.392A123.245714 123.245714 0 0 1 0 598.674286V123.392C0 55.149714 55.149714 0 123.392 0h501.540571c68.242286 0 123.392 55.149714 123.392 123.392v36.790857a47.030857 47.030857 0 0 1-47.250285 47.250286 47.030857 47.030857 0 0 1-47.323429-47.250286v-36.790857a29.110857 29.110857 0 0 0-28.818286-28.891429H123.392a29.110857 29.110857 0 0 0-28.891429 28.891429v475.282286c0 15.725714 13.165714 28.818286 28.891429 28.818285h501.540571c15.725714 0 28.818286-13.092571 28.818286-28.818285V512c0-26.258286 21.065143-47.250286 47.323429-47.250286 26.258286 0 47.250286 20.992 47.250285 47.250286v86.674286c0 68.242286-55.149714 123.392-123.392 123.392zM399.067429 1024a123.245714 123.245714 0 0 1-123.392-123.392v-34.157714c0-26.258286 20.992-47.250286 47.250285-47.250286 26.331429 0 47.323429 20.992 47.323429 47.250286v34.157714c0 15.725714 13.092571 28.891429 28.818286 28.891429h501.540571c15.725714 0 28.891429-13.165714 28.891429-28.891429V425.325714a29.110857 29.110857 0 0 0-28.891429-28.818285H399.067429a29.110857 29.110857 0 0 0-28.818286 28.818285V512a47.030857 47.030857 0 0 1-47.323429 47.250286A47.030857 47.030857 0 0 1 275.748571 512V425.325714c0-68.242286 55.149714-123.392 123.392-123.392h501.540572c68.242286 0 123.392 55.149714 123.392 123.392v475.282286c0 68.242286-55.149714 123.392-123.392 123.392H399.067429z" p-id="1712"></path></svg>