<?xml version="1.0" standalone="no"?><!DOCTYPE svg PUBLIC "-//W3C//DTD SVG 1.1//EN" "http://www.w3.org/Graphics/SVG/1.1/DTD/svg11.dtd"><svg t="1554442222052" class="icon" style="" viewBox="0 0 1084 1024" version="1.1" xmlns="http://www.w3.org/2000/svg" p-id="1298" xmlns:xlink="http://www.w3.org/1999/xlink" width="211.71875" height="200"><defs><style type="text/css"></style></defs><path d="M1054.117647 331.294118H1024V207.811765c0-30.117647-27.105882-57.223529-60.235294-57.22353h-60.235294v-60.235294c0-33.129412-27.105882-60.235294-60.235294-60.235294H120.470588c-33.129412 0-60.235294 27.105882-60.235294 60.235294v180.705883H30.117647c-18.070588 0-30.117647 12.047059-30.117647 30.117647v662.588235c0 18.070588 12.047059 30.117647 30.117647 30.117647h1024c18.070588 0 30.117647-12.047059 30.117647-30.117647V361.411765c0-18.070588-12.047059-30.117647-30.117647-30.117647z m-90.352941 0H496.941176c-9.035294 0-18.070588-3.011765-27.105882-6.02353l-96.37647-48.188235c-9.035294-3.011765-18.070588-6.023529-27.105883-6.023529H240.941176v-60.235295h722.82353v120.470589z m-843.294118-240.941177h722.82353v60.235294H240.941176c-33.129412 0-60.235294 24.094118-60.235294 57.22353V271.058824H120.470588v-180.705883z m903.529412 843.294118H60.235294v-602.352941h286.117647l96.376471 48.188235c18.070588 9.035294 36.141176 12.047059 54.211764 12.047059H1024v542.117647z" p-id="1299"></path></svg>