<?xml version="1.0" standalone="no"?><!DOCTYPE svg PUBLIC "-//W3C//DTD SVG 1.1//EN" "http://www.w3.org/Graphics/SVG/1.1/DTD/svg11.dtd"><svg t="1542104963449" class="icon" style="" viewBox="0 0 1024 1024" version="1.1" xmlns="http://www.w3.org/2000/svg" p-id="9174" xmlns:xlink="http://www.w3.org/1999/xlink" width="200" height="200"><defs><style type="text/css"></style></defs><path d="M766.6176 75.6224a505.3952 505.3952 0 0 0-385.6896-51.2C110.4384 96.8704-50.0736 374.8864 22.3744 645.376c72.4992 270.4384 350.5152 430.9504 620.9536 358.5024 270.4896-72.4992 431.0016-350.5152 358.5024-620.9536a430.1824 430.1824 0 0 0-0.6144-2.3552h-62.464a446.976 446.976 0 1 1-202.0864-252.928l-42.496 73.3696 217.7024-7.0144-102.7584-192-42.496 73.6256z" p-id="9175"></path><path d="M442.0096 446.976h139.9808V376.9856a69.9904 69.9904 0 1 0-139.9808 0V446.976z m44.032 186.0608v82.944h51.968v-82.944a70.0416 70.0416 0 1 0-52.0192 0zM389.9392 446.976V376.9856a122.0096 122.0096 0 1 1 244.0192 0V446.976h36.9664c18.7904 0 34.048 15.2576 34.048 34.048v251.9552a33.9968 33.9968 0 0 1-34.048 33.9968h-317.952a33.9968 33.9968 0 0 1-34.048-33.9968V481.024c0-18.7904 15.2576-34.048 34.048-34.048h36.9664z" p-id="9176"></path></svg>