<?xml version="1.0" standalone="no"?><!DOCTYPE svg PUBLIC "-//W3C//DTD SVG 1.1//EN" "http://www.w3.org/Graphics/SVG/1.1/DTD/svg11.dtd"><svg t="1549016416973" class="icon" style="" viewBox="0 0 1024 1024" version="1.1" xmlns="http://www.w3.org/2000/svg" p-id="2406" xmlns:xlink="http://www.w3.org/1999/xlink" width="200" height="200"><defs><style type="text/css"></style></defs><path d="M512 744.727273m-46.545455 0a46.545455 46.545455 0 1 0 93.09091 0 46.545455 46.545455 0 1 0-93.09091 0Z" p-id="2407"></path><path d="M507.345455 605.090909c-18.618182 0-37.236364-13.963636-41.89091-32.581818-9.309091-23.272727 4.654545-51.2 27.927273-60.509091 27.927273-9.309091 107.054545-46.545455 107.054546-97.745455 0-46.545455-32.581818-83.781818-79.127273-93.090909-46.545455-9.309091-88.436364 18.618182-102.4 60.509091-9.309091 23.272727-37.236364 37.236364-60.509091 27.927273-23.272727-9.309091-37.236364-37.236364-27.927273-60.509091 27.927273-83.781818 116.363636-134.981818 204.8-121.018182 88.436364 13.963636 153.6 93.090909 153.6 181.527273 0 121.018182-153.6 176.872727-172.218182 181.527273 0 13.963636-4.654545 13.963636-9.30909 13.963636z" p-id="2408"></path><path d="M512 1024c-283.927273 0-512-228.072727-512-512s228.072727-512 512-512 512 228.072727 512 512-228.072727 512-512 512z m0-930.909091c-232.727273 0-418.909091 186.181818-418.909091 418.909091s186.181818 418.909091 418.909091 418.909091 418.909091-186.181818 418.909091-418.909091-186.181818-418.909091-418.909091-418.909091z" p-id="2409"></path></svg>