<svg xmlns="http://www.w3.org/2000/svg" width="14" height="14" viewBox="0 0 14 14">
  <g fill="none">
    <path fill="#86939E" d="M10.0858389,4.89380769 C10.302351,5.0953101 10.314887,5.43459135 10.1138558,5.65160817 L6.45975481,9.5958726 C6.25870673,9.81288942 5.92021635,9.82545913 5.7036875,9.6239399 L4.12224279,8.1521226 C3.90573077,7.95062019 3.89319471,7.61133894 4.09422596,7.39432212 L4.09834856,7.38987981 C4.29939663,7.17286298 4.63788702,7.16029327 4.85439904,7.3618125 L6.0438101,8.46877163 L9.32977163,4.921875 C9.53081971,4.70485817 9.86932692,4.69228846 10.0858389,4.89380769 L10.0858389,4.89380769 Z"/>
    <path fill="#137DED" d="M1.43651442,7.03956945 C1.14052885,7.03956945 0.900240385,7.47713878 0.898052885,8.0179375 L0.898052885,8.01023381 C0.898052885,7.74214556 0.957451923,7.49963354 1.05336538,7.32398952 C1.14927885,7.14834549 1.28170673,7.03956945 1.42810096,7.03956945 L1.43651442,7.03956945 L1.43651442,7.03956945 Z M13.0196635,7.98860187 L13.0196635,7.99630555 C13.0187536,7.73737298 12.9620956,7.48955341 12.8619952,7.30667163 C12.7645673,7.12825428 12.6299519,7.0179375 12.4812019,7.0179375 L12.4896154,7.0179375 C12.7824038,7.0179375 13.0196635,7.45273351 13.0196635,7.98860187 L13.0196635,7.98860187 Z"/>
    <path fill="#86939E" d="M3.24688942,12.3773293 L1.8494976,13.7800553 L1.84416346,10.9799375 L4.64428125,10.9745865 L3.24688942,12.3773293 Z M10.5418486,1.72322837 L9.13910577,3.12062019 L11.9392404,3.12595433 L11.9445745,0.325836538 L10.5418486,1.72322837 Z"/>
    <path fill="#86939E" d="M7,0.00585576923 C3.136875,0.00585576923 -0.000168269231,3.14289904 0,7.00602404 C0,7.85115625 0.149776442,8.66133894 0.424223558,9.41146635 C0.533413462,9.70989183 0.878112981,9.84671154 1.16183173,9.70358173 L1.17504087,9.69691827 C1.41633894,9.57519231 1.52586538,9.29214663 1.43331731,9.03821154 C1.19912019,8.39567548 1.07692308,7.71009615 1.07692308,7.00585577 C1.07692308,5.44027885 1.69632212,3.93898077 2.80033654,2.82907692 C3.92050481,1.70301923 5.41254808,1.08277885 7,1.08277885 C8.21810096,1.08277885 9.38,1.44792308 10.3606731,2.12672115 L11.1323558,1.35503846 C9.97415865,0.506793269 8.54555288,0.00585576923 7,0.00585576923 Z M12.8355769,4.30367067 L12.823899,4.3095601 C12.5821298,4.43153846 12.4725192,4.71520673 12.5654207,4.9695625 C12.8005433,5.61325962 12.9230769,6.30011779 12.9230769,7.00585577 C12.9230769,8.58792308 12.3070433,10.0754231 11.1882212,11.1940769 C10.0695673,12.312899 8.58223558,12.9289327 7,12.9289327 C5.78307692,12.9289327 4.62235577,12.5644615 3.6421875,11.8870096 L2.87050481,12.6586923 C4.02819712,13.5057596 5.45579327,14.0058558 7,14.0058558 C10.8632933,14.0058558 14.0011779,10.8667933 14,7.0035 C13.9997308,6.15742548 13.8493486,5.3465024 13.5741611,4.59585337 C13.4646851,4.29719231 13.1195986,4.1603726 12.8355769,4.30367067 L12.8355769,4.30367067 Z"/>
  </g>
</svg>
