<svg xmlns="http://www.w3.org/2000/svg" width="16" height="16" viewBox="0 0 16 16">
  <g fill="#ffffff">
    <path d="M7.76893266,1.45957041 C6.17391808,1.45957041 4.88069888,2.75278961 4.88069888,4.34783616 C4.88069888,5.94305859 6.17391808,7.23606994 7.76893266,7.23606994 C9.36401119,7.23606994 10.6572144,5.94305859 10.6572144,4.34783616 C10.6571824,2.75278961 9.36396323,1.45957041 7.76893266,1.45957041 Z M7.75746844,11.0887698 C7.75746844,11.0887698 3.60498781,6.46125127 3.60498781,4.16795813 C3.60498781,1.87484086 5.46417528,0.0154615156 7.75746844,0.0154615156 C10.0507616,0.0154615156 11.909965,1.87484086 11.909965,4.16795813 C11.909965,6.46125127 7.75746844,11.0887698 7.75746844,11.0887698 Z M7.75746844,5.55212366 C6.99297877,5.55212366 6.37331889,4.9324478 6.37331889,4.16799009 C6.37331889,3.40350042 6.99304272,2.78382456 7.75746844,2.78382456 C8.52195811,2.78382456 9.14164997,3.40350042 9.14164997,4.16799009 C9.14164997,4.93243181 8.52195811,5.55212366 7.75746844,5.55212366 Z M14.9534056,5.79575048 L14.9534056,13.470483 C14.9534056,13.470483 11.9997602,14.3473925 10.3998209,14.7971835 L4.80831595,13.2283912 L1.07211311,14.4997851 L1.07211311,6.85826209 L2.4560548,6.48056617 C2.41630575,6.24913908 2.40010873,5.66072203 2.40010873,5.41428111 L0.775244494,5.78964285 C0.321621152,5.8944349 0.00032778125,6.29841229 0.00032778125,6.76398238 L0.00032778125,15.1378418 C0.00032778125,15.4749752 0.273628429,15.7482759 0.610761863,15.7482759 C0.675147264,15.7482759 0.739127282,15.7380897 0.800329375,15.7180951 L4.51699458,14.5110164 C4.70446217,14.4501316 4.90574198,14.446006 5.09554696,14.4991578 L10.1302117,15.9090343 C10.3065705,15.9584207 10.4931051,15.958427 10.6694672,15.9090525 L15.2692676,14.6212864 C15.7011189,14.5003848 15.9996722,14.1067687 15.9996722,13.6583127 L15.9996722,5.72080538 C15.9996722,5.16852063 15.551957,4.72080538 14.9996722,4.72080538 C14.9092283,4.72080538 14.8192024,4.73307527 14.7320574,4.75727941 L13.588507,5.07489522 C13.5728696,5.34490416 13.5661541,5.89947216 13.5125745,6.3107773 L14.9534056,5.79575048 Z"/>
    <polygon points="4 9 5 9.454 5 14 4 14"/>
    <polygon points="10 11 11 11.552 11 15 10 15"/>
  </g>
</svg>
