<?xml version="1.0" standalone="no"?><!DOCTYPE svg PUBLIC "-//W3C//DTD SVG 1.1//EN" "http://www.w3.org/Graphics/SVG/1.1/DTD/svg11.dtd"><svg t="1545964096115" class="icon" style="" viewBox="0 0 1024 1024" version="1.1" xmlns="http://www.w3.org/2000/svg" p-id="5633" xmlns:xlink="http://www.w3.org/1999/xlink" width="200" height="200"><defs><style type="text/css"></style></defs><path d="M928 832h-64V179.2h64v652.8z m-768 0H96V179.2h64v652.8z" p-id="5634"></path><path d="M512 352C307.2 352 96 294.4 96 192c0-211.2 832-211.2 832 0 0 102.4-211.2 160-416 160z m0-256c-230.4 0-352 64-352 96S281.6 288 512 288s352-64 352-96S742.4 96 512 96z m0 691.2c-204.8 0-416-57.6-416-160h64c0 32 121.6 96 352 96s352-64 352-96h64c0 102.4-211.2 160-416 160z m0-217.6C307.2 569.6 96 512 96 409.6h64C160 441.6 281.6 505.6 512 505.6S864 441.6 864 409.6h64c0 102.4-211.2 160-416 160z m0 422.4c-204.8 0-416-57.6-416-160h64c0 32 121.6 96 352 96s352-64 352-96h64c0 102.4-211.2 160-416 160z" p-id="5635"></path></svg>