<?xml version="1.0" standalone="no"?><!DOCTYPE svg PUBLIC "-//W3C//DTD SVG 1.1//EN" "http://www.w3.org/Graphics/SVG/1.1/DTD/svg11.dtd"><svg t="1545964088417" class="icon" style="" viewBox="0 0 1024 1024" version="1.1" xmlns="http://www.w3.org/2000/svg" p-id="5410" xmlns:xlink="http://www.w3.org/1999/xlink" width="200" height="200"><defs><style type="text/css"></style></defs><path d="M512.056889 613.489778c-23.665778 0-46.307556-5.290667-63.829333-15.018667L48.924444 376.263111a74.922667 74.922667 0 0 1-40.391111-67.697778c0-16.839111 5.233778-48.014222 40.391111-67.584L448.170667 19.000889c35.043556-19.456 92.615111-19.456 127.544889 0l399.36 222.208c35.157333 19.569778 40.391111 50.744889 40.391111 67.640889 0 16.839111-5.233778 48.071111-40.391111 67.584l-399.246223 222.037333c-17.521778 9.671111-40.163556 15.018667-63.715555 15.018667zM85.902222 308.622222L469.674667 522.24c21.390222 11.946667 63.374222 11.946667 84.707555 0l383.829334-213.333333-383.886223-213.617778c-21.390222-11.832889-63.317333-11.889778-84.650666 0L85.845333 308.622222z" p-id="5411"></path><path d="M931.612444 522.581333l-377.230222 209.692445c-21.390222 11.946667-63.317333 11.946667-84.707555 0L92.785778 522.581333H8.533333c0.853333 17.408 7.736889 45.624889 40.391111 63.715556l399.246223 222.151111c17.521778 9.784889 40.163556 15.189333 63.829333 15.189333a133.12 133.12 0 0 0 63.715556-15.132444l399.303111-221.980445a74.524444 74.524444 0 0 0 40.277333-63.943111h-83.740444z" p-id="5412"></path><path d="M937.813333 703.146667l0.398223 0.170666-383.829334 213.447111c-21.390222 11.889778-63.317333 11.832889-84.707555-0.056888L85.902222 703.089778H8.533333c0 16.952889 5.290667 48.128 40.391111 67.697778l399.36 222.151111c17.464889 9.728 40.106667 15.132444 63.772445 15.132444a133.688889 133.688889 0 0 0 63.715555-15.075555l399.303112-222.037334c35.157333-19.569778 40.391111-50.688 40.391111-67.584v-0.284444h-77.653334z" p-id="5413"></path></svg>