<?xml version="1.0" standalone="no"?><!DOCTYPE svg PUBLIC "-//W3C//DTD SVG 1.1//EN" "http://www.w3.org/Graphics/SVG/1.1/DTD/svg11.dtd"><svg t="1545964036204" class="icon" style="" viewBox="0 0 1204 1024" version="1.1" xmlns="http://www.w3.org/2000/svg" p-id="3975" xmlns:xlink="http://www.w3.org/1999/xlink" width="235.15625" height="200"><defs><style type="text/css"></style></defs><path d="M675.358118 530.974118a295.755294 295.755294 0 0 0 114.567529-246.964706C783.661176 130.831059 658.733176 6.324706 505.434353 0.240941a296.538353 296.538353 0 0 0-193.536 530.552471 496.700235 496.700235 0 0 0-311.597177 407.792941 48.549647 48.549647 0 0 0 48.128 54.091294 48.489412 48.489412 0 0 0 48.128-43.610353 399.781647 399.781647 0 0 1 396.950589-355.749647 399.962353 399.962353 0 0 1 397.071059 355.930353c2.710588 24.696471 23.311059 43.550118 48.128 43.550118 28.912941 0 51.320471-25.298824 48.128-54.031059a496.278588 496.278588 0 0 0-311.416471-407.792941z m-381.650824-234.315294A199.981176 199.981176 0 0 1 493.507765 96.978824a199.981176 199.981176 0 0 1 199.740235 199.80047 199.981176 199.981176 0 0 1-199.740235 199.740235 200.041412 200.041412 0 0 1-199.800471-199.740235z m649.09553 216.425411a435.983059 435.983059 0 0 1 261.481411 346.232471 48.549647 48.549647 0 0 1-47.947294 55.115294 48.790588 48.790588 0 0 1-48.188235-43.008 339.727059 339.727059 0 0 0-263.710118-288.105412 61.379765 61.379765 0 0 1-48.308706-59.934117c0-24.997647 14.697412-47.646118 37.827765-56.741647a169.562353 169.562353 0 0 0-5.903059-317.620706 48.489412 48.489412 0 0 1 32.527059-91.376942 266.24 266.24 0 0 1 82.221177 455.439059z" p-id="3976"></path></svg>