<?xml version="1.0" standalone="no"?><!DOCTYPE svg PUBLIC "-//W3C//DTD SVG 1.1//EN" "http://www.w3.org/Graphics/SVG/1.1/DTD/svg11.dtd"><svg t="1545964040174" class="icon" style="" viewBox="0 0 1024 1024" version="1.1" xmlns="http://www.w3.org/2000/svg" p-id="4085" xmlns:xlink="http://www.w3.org/1999/xlink" width="200" height="200"><defs><style type="text/css"></style></defs><path d="M887.881143 188.074667v752.347428H260.949333V188.074667h626.93181z m0-62.70781H260.949333c-34.620952 0-62.70781 28.135619-62.707809 62.70781v752.347428c0 34.620952 28.135619 62.659048 62.707809 62.659048h626.93181c34.620952 0 62.70781-28.086857 62.707809-62.659048V188.074667c0-34.620952-28.086857-62.70781-62.707809-62.70781z m-125.366857-62.659047V125.318095H260.949333L198.241524 188.074667v626.931809H135.582476V62.70781h626.93181z m0-62.70781H135.582476C100.961524 0 72.874667 28.086857 72.874667 62.70781v752.298666C72.874667 849.627429 100.961524 877.714286 135.582476 877.714286h125.366857V188.074667H825.270857V62.70781c0-34.620952-28.135619-62.70781-62.707809-62.70781z m-30.329905 407.503238H418.694095a31.305143 31.305143 0 1 1 0-62.707809h313.490286a31.305143 31.305143 0 1 1 0 62.707809z m0 188.074667H418.694095a31.305143 31.305143 0 1 1 0-62.659048h313.490286a31.305143 31.305143 0 1 1 0 62.659048z m0 188.074666H418.694095a31.305143 31.305143 0 1 1 0-62.659047h313.490286a31.305143 31.305143 0 1 1 0 62.659047z" p-id="4086"></path></svg>