<?xml version="1.0" standalone="no"?><!DOCTYPE svg PUBLIC "-//W3C//DTD SVG 1.1//EN" "http://www.w3.org/Graphics/SVG/1.1/DTD/svg11.dtd"><svg t="1545964044147" class="icon" style="" viewBox="0 0 1204 1024" version="1.1" xmlns="http://www.w3.org/2000/svg" p-id="4195" xmlns:xlink="http://www.w3.org/1999/xlink" width="235.15625" height="200"><defs><style type="text/css"></style></defs><path d="M1161.629551 0.060232H43.00547A43.00547 43.00547 0 0 0 0 43.065702v903.476266c0 23.791542 19.27416 43.065702 43.00547 43.065702h1118.624081c23.73131 0 43.00547-19.27416 43.00547-43.065702v-903.476266A43.00547 43.00547 0 0 0 1161.629551 0.060232z m-43.065702 903.476266H86.131404V86.131404H1118.503617V903.536498zM224.062114 387.350391h421.321099a43.00547 43.00547 0 0 0 0-86.01094H224.062114a43.00547 43.00547 0 1 0 0 86.071172z m0 258.153285h421.321099a43.00547 43.00547 0 1 0 0-86.01094H224.062114a43.00547 43.00547 0 0 0 0 86.01094z m722.479854 85.950709c23.791542 0 43.065702-19.27416 43.065702-43.00547V255.442856a43.00547 43.00547 0 1 0-86.071172 0v432.945827c0 23.73131 19.27416 43.00547 43.00547 43.00547z" p-id="4196"></path></svg>