<?xml version="1.0" standalone="no"?><!DOCTYPE svg PUBLIC "-//W3C//DTD SVG 1.1//EN" "http://www.w3.org/Graphics/SVG/1.1/DTD/svg11.dtd"><svg t="1545964047486" class="icon" style="" viewBox="0 0 1024 1024" version="1.1" xmlns="http://www.w3.org/2000/svg" p-id="4305" xmlns:xlink="http://www.w3.org/1999/xlink" width="200" height="200"><defs><style type="text/css"></style></defs><path d="M567.141888 869.0688c-242.688-5.12-358.5536-77.0048-339.6096-232.0384 8.8064-71.936 56.4224-114.176 124.2624-130.048a305.7152 305.7152 0 0 1 109.7216-4.096l3.7376 0.768a585.9328 585.9328 0 0 0 37.4272 7.4752 505.5488 505.5488 0 0 0 107.3152 7.168c77.056-4.1984 116.3264-29.5936 118.272-84.4288 2.304-61.184-45.2608-110.1824-132.096-147.3536-32.0512-13.6704-66.6624-24.4736-101.376-32.6656-11.3664-2.6624-22.8352-5.0688-34.3552-7.168a184.32 184.32 0 1 1 9.8816-81.408c10.9056 1.792 25.7024 4.7104 43.264 8.8576 38.9632 9.1648 77.9776 21.3504 114.7392 37.0688 114.5856 48.9984 185.6512 122.2656 181.8624 225.6896-3.8912 106.752-81.6128 156.9792-195.7376 163.1744a583.4752 583.4752 0 0 1-125.0816-8.0896 580.608 580.608 0 0 1-42.1376-8.3968 226.6624 226.6624 0 0 0-76.8 3.2256c-37.2736 8.704-57.4976 26.624-61.5936 60.2112-10.9568 89.7024 56.064 133.888 244.736 139.776a184.32 184.32 0 1 1 13.568 82.2784zM286.975488 286.72a102.4 102.4 0 1 0 0-204.8 102.4 102.4 0 0 0 0 204.8z m450.56 614.4a102.4 102.4 0 1 0 0-204.8 102.4 102.4 0 0 0 0 204.8z" p-id="4306"></path></svg>