<?xml version="1.0" standalone="no"?><!DOCTYPE svg PUBLIC "-//W3C//DTD SVG 1.1//EN" "http://www.w3.org/Graphics/SVG/1.1/DTD/svg11.dtd"><svg t="1545964077084" class="icon" style="" viewBox="0 0 1024 1024" version="1.1" xmlns="http://www.w3.org/2000/svg" p-id="5079" xmlns:xlink="http://www.w3.org/1999/xlink" width="200" height="200"><defs><style type="text/css"></style></defs><path d="M512 70.656h335.5136l-0.0512 882.688H176.4864c0.1024 0 0.0512-441.344 0.0512-441.344V285.5936L344.2176 70.656H512zM298.752 13.568L113.408 251.9552a35.328 35.328 0 0 0-7.4752 21.7088v679.5776A70.656 70.656 0 0 0 176.4864 1024h671.0272a70.656 70.656 0 0 0 70.5536-70.656V70.656A70.5536 70.5536 0 0 0 847.5136 0H326.656a35.328 35.328 0 0 0-27.8528 13.6192z m19.0464 233.6768c0-0.1024-141.312-0.1024-141.312-0.1024v70.6048h141.312c38.9632 0 70.656-31.5392 70.656-70.5024V70.656h-70.656v176.64z" p-id="5080"></path><path d="M332.8 409.6h358.4a25.6 25.6 0 1 1 0 51.2h-358.4a25.6 25.6 0 0 1 0-51.2z m0 153.6h358.4a25.6 25.6 0 1 1 0 51.2h-358.4a25.6 25.6 0 1 1 0-51.2z m0 153.6h153.6a25.6 25.6 0 1 1 0 51.2h-153.6a25.6 25.6 0 1 1 0-51.2z" p-id="5081"></path></svg>