<?xml version="1.0" standalone="no"?><!DOCTYPE svg PUBLIC "-//W3C//DTD SVG 1.1//EN" "http://www.w3.org/Graphics/SVG/1.1/DTD/svg11.dtd"><svg t="1545964072210" class="icon" style="" viewBox="0 0 1024 1024" version="1.1" xmlns="http://www.w3.org/2000/svg" p-id="4969" xmlns:xlink="http://www.w3.org/1999/xlink" width="200" height="200"><defs><style type="text/css"></style></defs><path d="M1023.995904 585.16202v237.668856c0 13.721511-2.969581 26.521428-8.959942 38.297351-5.939161 11.775923-14.079908 20.787065-24.473441 26.879825l-210.78903 127.999168a46.591697 46.591697 0 0 1-26.828625 7.987148 46.591697 46.591697 0 0 1-26.828626-7.987148l-210.840229-127.999168a30.7198 30.7198 0 0 1-3.276779-2.303985 10.239933 10.239933 0 0 1-3.276779 2.303985l-210.840229 127.999168a46.591697 46.591697 0 0 1-26.828626 7.987148 46.591697 46.591697 0 0 1-26.828625-7.987148l-210.78903-127.999168a63.282789 63.282789 0 0 1-24.473441-26.879825A83.711456 83.711456 0 0 1 0.00256 822.830876V585.21322c0-14.489506 3.379178-27.801419 10.137534-40.03814a68.095557 68.095557 0 0 1 26.572627-27.391822l204.235473-106.290509V182.783836c0-14.438306 3.379178-27.801419 10.086334-39.935741a68.095557 68.095557 0 0 1 26.623827-27.494221L488.447385 5.735387A49.663677 49.663677 0 0 1 511.999232 0.001024c8.447945 0 16.332694 1.894388 23.551847 5.734363l210.78903 109.669687c11.007928 6.14396 19.865471 15.257501 26.623827 27.443021 6.707156 12.185521 10.086334 25.548634 10.086334 39.986941v228.606514l204.286672 106.290509c11.263927 6.09276 20.172669 15.206301 26.777426 27.391822 6.604757 12.185521 9.881536 25.548634 9.881536 40.038139zM271.053598 673.123049l190.104364-98.815358-190.104364-98.866557-190.104364 98.815357 190.104364 98.866558z m30.105404 259.428713l180.734826-109.720886v-179.403634l-180.734826 93.695391v195.429129zM511.999232 289.125545l207.512251-107.980098L511.999232 73.114149l-207.512251 108.031298L511.999232 289.176744z m30.105404 216.574592l180.734826-94.258587V259.429738l-180.734826 93.695391v152.575008z m210.84023 167.422912l190.104364-98.815358-190.104364-98.866557-190.104364 98.815357 190.104364 98.866558z m30.105404 259.428713l180.734825-109.720886v-179.403634l-180.734825 93.695391v195.429129z" p-id="4970"></path></svg>