<?xml version="1.0" standalone="no"?><!DOCTYPE svg PUBLIC "-//W3C//DTD SVG 1.1//EN" "http://www.w3.org/Graphics/SVG/1.1/DTD/svg11.dtd"><svg t="1545963980800" class="icon" style="" viewBox="0 0 1144 1024" version="1.1" xmlns="http://www.w3.org/2000/svg" p-id="2537" xmlns:xlink="http://www.w3.org/1999/xlink" width="223.4375" height="200"><defs><style type="text/css"></style></defs><path d="M1003.941647 200.764235h-903.529412C40.176941 200.764235 0 240.941176 0 301.176471v602.352941c0 60.235294 40.176941 100.412235 100.412235 100.412235h903.529412c60.235294 0 100.352-40.176941 100.352-100.412235V301.176471c0-60.235294-40.116706-100.412235-100.352-100.412236z m0 702.765177h-903.529412V301.176471h903.529412v602.352941zM150.588235 100.412235h803.117177c30.117647 0 50.236235-20.118588 50.236235-50.236235 0-30.117647-20.118588-50.176-50.236235-50.176H150.588235c-30.117647 0-50.176 20.058353-50.176 50.176 0 30.117647 20.058353 50.236235 50.176 50.236235z" p-id="2538"></path></svg>