<?xml version="1.0" standalone="no"?><!DOCTYPE svg PUBLIC "-//W3C//DTD SVG 1.1//EN" "http://www.w3.org/Graphics/SVG/1.1/DTD/svg11.dtd"><svg t="1545964009910" class="icon" style="" viewBox="0 0 1024 1024" version="1.1" xmlns="http://www.w3.org/2000/svg" p-id="3314" xmlns:xlink="http://www.w3.org/1999/xlink" width="200" height="200"><defs><style type="text/css"></style></defs><path d="M798.47619 536.380952V170.666667h60.952381V536.380952h-60.952381zM560.761905 684.422095v60.757334c-32.036571 2.974476-64.853333 4.534857-97.52381 4.534857-195.047619 0-396.190476-54.857143-396.190476-152.380953h60.952381c0 30.47619 115.809524 91.428571 335.238095 91.428572 35.206095 0 67.730286-1.560381 97.52381-4.33981zM575.878095 536.380952H560.761905v1.560381c-32.036571 2.974476-64.853333 4.534857-97.52381 4.534857C268.190476 542.47619 67.047619 487.619048 67.047619 390.095238h60.952381C128 420.571429 243.809524 481.52381 463.238095 481.52381S798.47619 420.571429 798.47619 390.095238h60.952381c0 78.60419-130.681905 129.511619-283.599238 146.285714zM560.761905 879.469714v60.757334c-32.036571 2.974476-64.853333 4.534857-97.52381 4.534857-195.047619 0-396.190476-54.857143-396.190476-152.380953h60.952381c0 30.47619 115.809524 91.428571 335.238095 91.428572 35.206095 0 67.730286-1.560381 97.52381-4.33981zM128 792.380952H67.047619V170.666667h60.952381v621.714285zM463.238095 335.238095C268.190476 335.238095 67.047619 280.380952 67.047619 182.857143c0-201.142857 792.380952-201.142857 792.380952 0 0 97.52381-201.142857 152.380952-396.190476 152.380952z m0-243.809524c-219.428571 0-335.238095 60.952381-335.238095 91.428572S243.809524 274.285714 463.238095 274.285714s335.238095-60.952381 335.238095-91.428571S682.666667 91.428571 463.238095 91.428571z m475.623619 917.504h-266.678857a47.640381 47.640381 0 0 1-47.591619-47.591619V827.977143c0-26.282667 21.308952-47.591619 47.591619-47.591619h9.508572v-43.836953a123.806476 123.806476 0 0 1 247.320381-8.874666 28.574476 28.574476 0 1 1-56.80762 4.144762h-0.195047a66.657524 66.657524 0 0 0-133.12 4.729904v43.836953h199.923809c26.331429 0 47.640381 21.308952 47.640381 47.591619v133.363809c0 26.331429-21.308952 47.591619-47.591619 47.591619z" p-id="3315"></path></svg>