<?xml version="1.0" standalone="no"?><!DOCTYPE svg PUBLIC "-//W3C//DTD SVG 1.1//EN" "http://www.w3.org/Graphics/SVG/1.1/DTD/svg11.dtd"><svg t="1545964067799" class="icon" style="" viewBox="0 0 1344 1024" version="1.1" xmlns="http://www.w3.org/2000/svg" p-id="4859" xmlns:xlink="http://www.w3.org/1999/xlink" width="262.5" height="200"><defs><style type="text/css"></style></defs><path d="M668.032 234.88a281.088 281.088 0 0 0-280.32 280.32c0 154.112 126.08 280.256 280.32 280.256 154.112 0 280.32-126.144 280.32-280.32 0-154.112-126.208-280.32-280.32-280.32z m0 467.136a187.392 187.392 0 0 1-186.88-186.88 187.392 187.392 0 0 1 186.88-186.88 187.392 187.392 0 0 1 186.88 186.88 187.392 187.392 0 0 1-186.88 186.88z m625.92-228.928C1209.984 356.352 962.368 48 668.096 48 373.632 48 126.08 356.352 41.92 473.088a77.248 77.248 0 0 0 0 88.768c84.096 112.128 331.712 420.48 626.048 420.48 294.272 0 541.888-308.352 625.92-425.152a70.08 70.08 0 0 0 0-84.096z m-93.44 70.08c-60.672 84.096-275.584 345.728-532.48 345.728-256.96 0-471.872-261.632-532.608-345.728-14.016-18.688-14.016-37.376 0-56.064 60.8-84.096 275.648-345.664 532.608-345.664 256.896 0 471.808 261.568 532.48 345.664 14.08 18.688 14.08 37.376 0 56.064z" p-id="4860"></path></svg>