<?xml version="1.0" standalone="no"?><!DOCTYPE svg PUBLIC "-//W3C//DTD SVG 1.1//EN" "http://www.w3.org/Graphics/SVG/1.1/DTD/svg11.dtd"><svg t="1545964084691" class="icon" style="" viewBox="0 0 1204 1024" version="1.1" xmlns="http://www.w3.org/2000/svg" p-id="5300" xmlns:xlink="http://www.w3.org/1999/xlink" width="235.15625" height="200"><defs><style type="text/css"></style></defs><path d="M1204.464941 579.885176V280.877176c0-0.421647 0.240941-0.722824 0.240941-1.084235 0-0.301176-0.240941-0.602353-0.240941-1.024V43.008A43.008 43.008 0 0 0 1161.456941 0H43.248941a43.008 43.008 0 0 0-43.008 43.008v235.760941c0 0.421647-0.240941 0.722824-0.240941 1.024 0 0.361412 0.240941 0.662588 0.240941 1.084235v299.008c0 0.361412-0.240941 0.662588-0.240941 1.024 0 0.301176 0.240941 0.602353 0.240941 1.024v364.303059c0 23.732706 19.275294 43.008 43.008 43.008h1118.208c23.792941 0 43.008-19.275294 43.008-43.008V581.872941c0-0.421647 0.240941-0.722824 0.240941-1.024 0-0.361412-0.240941-0.722824-0.240941-1.024zM451.824941 537.901176V322.861176h279.552v215.04H451.824941z m279.552 86.016v279.311059H451.824941v-279.311059h279.552zM86.256941 322.861176h279.491765v215.04h-279.491765V322.861176z m731.136 0h301.056v215.04H817.392941V322.861176z m301.056-236.845176v150.768941H86.256941V86.016h1032.192z m-1032.192 537.901176h279.491765v279.311059h-279.491765v-279.311059z m731.136 279.311059v-279.311059h301.056v279.311059H817.392941z" p-id="5301"></path></svg>