<?xml version="1.0" standalone="no"?><!DOCTYPE svg PUBLIC "-//W3C//DTD SVG 1.1//EN" "http://www.w3.org/Graphics/SVG/1.1/DTD/svg11.dtd"><svg t="1545964018988" class="icon" style="" viewBox="0 0 1024 1024" version="1.1" xmlns="http://www.w3.org/2000/svg" p-id="3534" xmlns:xlink="http://www.w3.org/1999/xlink" width="200" height="200"><defs><style type="text/css"></style></defs><path d="M704 498.915556L619.406222 323.299556l208.156445 208.156444L619.406222 739.555556l84.593778-175.616H170.666667V498.915556z" p-id="3535"></path><path d="M902.087111 960H121.912889v-288.028444H56.888889V972.8c0 6.428444 0 12.8 6.485333 19.228444 6.542222 6.371556 19.512889 19.171556 32.540445 25.6 12.970667 6.371556 19.512889 6.371556 32.483555 6.371556H921.6c19.512889-6.428444 32.483556-12.8 39.025778-32.028444 0-6.371556 6.485333-19.171556 6.485333-25.6V64.056889c0-19.171556-6.485333-32.028444-19.512889-44.828445-6.485333-6.371556-12.970667-12.743111-19.512889-12.743111-6.485333 0-12.970667-6.428444-25.998222-6.428444H108.885333C102.4 0 95.914667 6.371556 89.372444 12.8 76.401778 25.6 69.973333 38.4 63.374222 51.2V345.6h58.538667v-281.6h780.174222v896z" p-id="3536"></path></svg>