<?xml version="1.0" standalone="no"?><!DOCTYPE svg PUBLIC "-//W3C//DTD SVG 1.1//EN" "http://www.w3.org/Graphics/SVG/1.1/DTD/svg11.dtd"><svg t="1545964080744" class="icon" style="" viewBox="0 0 1024 1024" version="1.1" xmlns="http://www.w3.org/2000/svg" p-id="5190" xmlns:xlink="http://www.w3.org/1999/xlink" width="200" height="200"><defs><style type="text/css"></style></defs><path d="M512 70.656h335.5136l-0.0512 882.688H176.4864c0.1024 0 0.0512-441.344 0.0512-441.344V285.5936L344.2176 70.656H512zM298.752 13.568L113.408 251.9552a35.328 35.328 0 0 0-7.4752 21.7088v679.5776A70.656 70.656 0 0 0 176.4864 1024h671.0272a70.656 70.656 0 0 0 70.5536-70.656V70.656A70.5536 70.5536 0 0 0 847.5136 0H326.656a35.328 35.328 0 0 0-27.8528 13.6192z m19.0464 233.6768c0-0.1024-141.312-0.1024-141.312-0.1024v70.6048h141.312c38.9632 0 70.656-31.5392 70.656-70.5024V70.656h-70.656v176.64z m137.2672 492.4416a35.328 35.328 0 0 0 69.12 14.6432l62.4128-293.5296a35.328 35.328 0 1 0-69.12-14.6944l-62.4128 293.5808z m276.48-117.1456a26.1632 26.1632 0 0 1 0-37.0688l-103.2704 103.2704a35.328 35.328 0 0 0 49.9712 49.92l103.2192-103.2192a44.4416 44.4416 0 0 0 0-62.8736l-103.2704-103.2192a35.328 35.328 0 0 0-49.92 49.92l103.2704 103.2704z m-471.3472-49.9712a44.4416 44.4416 0 0 0 0 62.8736l103.2704 103.2192a35.328 35.328 0 0 0 49.92-49.92l-103.2704-103.2704c10.24 10.24 10.24 26.8288 0 37.0688l103.2704-103.2704a35.328 35.328 0 1 0-49.9712-49.92l-103.2192 103.2192z" p-id="5191"></path></svg>