<?xml version="1.0" standalone="no"?><!DOCTYPE svg PUBLIC "-//W3C//DTD SVG 1.1//EN" "http://www.w3.org/Graphics/SVG/1.1/DTD/svg11.dtd"><svg t="1545964032161" class="icon" style="" viewBox="0 0 1417 1024" version="1.1" xmlns="http://www.w3.org/2000/svg" p-id="3865" xmlns:xlink="http://www.w3.org/1999/xlink" width="276.7578125" height="200"><defs><style type="text/css"></style></defs><path d="M67.820308 901.435077H1350.104615a59.076923 59.076923 0 0 1 0 118.153846H67.741538a59.076923 59.076923 0 1 1 0-118.153846zM1058.973538 523.027692a59.076923 59.076923 0 0 1-59.076923 59.076923H67.820308a59.076923 59.076923 0 1 1 0-118.153846h932.076307a59.076923 59.076923 0 0 1 59.076923 59.076923z m350.129231-437.641846a59.076923 59.076923 0 0 1-59.076923 59.076923H67.741538a59.076923 59.076923 0 0 1 0-118.153846H1350.104615a59.076923 59.076923 0 0 1 59.076923 59.076923z m-275.692307 636.770462a43.323077 43.323077 0 0 0 61.282461 0l158.72-158.72a78.769231 78.769231 0 0 0 0-111.458462l-158.72-158.72a43.323077 43.323077 0 1 0-61.282461 61.282462l153.127384 153.127384L1133.489231 660.873846a43.323077 43.323077 0 0 0 0 61.282462z" p-id="3866"></path></svg>