<?xml version="1.0" standalone="no"?><!DOCTYPE svg PUBLIC "-//W3C//DTD SVG 1.1//EN" "http://www.w3.org/Graphics/SVG/1.1/DTD/svg11.dtd"><svg t="1545964064442" class="icon" style="" viewBox="0 0 1024 1024" version="1.1" xmlns="http://www.w3.org/2000/svg" p-id="4749" xmlns:xlink="http://www.w3.org/1999/xlink" width="200" height="200"><defs><style type="text/css"></style></defs><path d="M946.972444 52.224H75.662222c-34.304 0-62.236444 27.875556-62.236444 62.236444V787.911111c0 34.304 27.875556 62.179556 62.236444 62.179556h248.888889v62.236444c0 34.360889 27.875556 62.236444 62.236445 62.236445h248.888888c34.304 0 62.236444-27.875556 62.236445-62.236445v-62.236444h248.888889c34.304 0 62.179556-27.875556 62.179555-62.179556V114.460444a61.838222 61.838222 0 0 0-62.008889-62.236444z m-1.991111 720.440889H83.797333V130.332444h854.528l6.656 642.332445z m-371.484444-466.545778H231.139556a31.175111 31.175111 0 0 1-31.061334-31.118222c0-17.066667 13.994667-31.118222 31.061334-31.118222h342.243555c17.066667 0 31.118222 13.994667 31.118222 31.118222 0 17.066667-13.994667 31.118222-31.118222 31.118222z m62.179555 165.432889h-404.48a31.175111 31.175111 0 0 1-31.061333-31.118222c0-17.066667 13.994667-31.118222 31.061333-31.118222h404.48c17.066667 0 31.118222 13.994667 31.118223 31.118222 0 17.123556-13.994667 31.118222-31.118223 31.118222z m155.534223 165.546667H231.196444a31.175111 31.175111 0 0 1-31.061333-31.118223c0-17.066667 13.994667-31.118222 31.061333-31.118222h560.014223c17.123556 0 31.118222 14.051556 31.118222 31.118222 0 17.123556-13.994667 31.118222-31.118222 31.118223z" p-id="4750"></path></svg>