<?xml version="1.0" standalone="no"?><!DOCTYPE svg PUBLIC "-//W3C//DTD SVG 1.1//EN" "http://www.w3.org/Graphics/SVG/1.1/DTD/svg11.dtd"><svg t="1545964092030" class="icon" style="" viewBox="0 0 1024 1024" version="1.1" xmlns="http://www.w3.org/2000/svg" p-id="5522" xmlns:xlink="http://www.w3.org/1999/xlink" width="200" height="200"><defs><style type="text/css"></style></defs><path d="M639.601778 684.657778H535.779556V608.142222h79.473777V78.506667H88.291556v529.635555h76.231111v76.515556H64a53.134222 53.134222 0 0 1-53.532444-52.622222V54.613333c0-29.013333 24.007111-52.622222 53.475555-52.622222h575.658667c29.468444 0 53.475556 23.608889 53.475555 52.622222v577.422223c0 29.013333-24.007111 52.622222-53.475555 52.622222z" p-id="5523"></path><path d="M924.103111 983.324444H348.501333a53.134222 53.134222 0 0 1-53.475555-52.622222V353.28c0-29.013333 23.950222-52.622222 53.475555-52.622222h100.579556V377.173333h-76.231111v529.635556h526.904889V377.173333H820.337778V300.657778h103.822222c29.582222 0 53.532444 23.608889 53.532444 52.565333V930.702222c0 29.013333-24.007111 52.622222-53.475555 52.622222z" p-id="5524"></path></svg>