<?xml version="1.0" standalone="no"?><!DOCTYPE svg PUBLIC "-//W3C//DTD SVG 1.1//EN" "http://www.w3.org/Graphics/SVG/1.1/DTD/svg11.dtd"><svg t="1545963997187" class="icon" style="" viewBox="0 0 1077 1024" version="1.1" xmlns="http://www.w3.org/2000/svg" p-id="2977" xmlns:xlink="http://www.w3.org/1999/xlink" width="210.3515625" height="200"><defs><style type="text/css"></style></defs><path d="M689.852632 10.778947l269.473684 269.473685h-269.473684zM700.631579 959.326316v64.673684h-635.957895c-32.336842 0-53.894737-21.557895-53.894737-53.894737v-905.431579c0-32.336842 21.557895-53.894737 53.894737-53.894737h549.726316v64.673685h-538.947368v873.094736h625.178947z m188.631579-366.484211v-242.526316h64.673684v242.526316h-64.673684z" p-id="2978"></path><path d="M679.073684 657.515789c-26.947368 37.726316-118.568421 64.673684-226.357895 64.673685s-199.410526-26.947368-226.357894-64.673685c-5.389474-5.389474-10.778947-5.389474-10.778948 0v53.894737c0 53.894737 107.789474 107.789474 237.136842 107.789474s237.136842-53.894737 237.136843-107.789474v-53.894737c0-5.389474-5.389474-5.389474-10.778948 0z m0-167.073684c-26.947368 37.726316-118.568421 59.284211-226.357895 59.284211s-199.410526-26.947368-226.357894-59.284211c-5.389474-5.389474-10.778947-5.389474-10.778948 0v70.063158c0 53.894737 107.789474 97.010526 237.136842 97.010526s237.136842-43.115789 237.136843-97.010526v-70.063158c0-5.389474-5.389474-10.778947-10.778948 0z m-226.357895-204.8c-129.347368 0-237.136842 37.726316-237.136842 80.842106v37.726315c0 48.505263 107.789474 86.231579 237.136842 86.231579s237.136842-37.726316 237.136843-86.231579v-37.726315c0-48.505263-107.789474-86.231579-237.136843-80.842106z" p-id="2979"></path><path d="M1034.778947 1024h-237.136842c-21.557895 0-43.115789-21.557895-43.115789-43.115789v-129.347369c0-26.947368 21.557895-43.115789 43.115789-43.115789h10.778948v-43.11579c0-64.673684 48.505263-113.178947 107.789473-118.568421 59.284211 0 107.789474 48.505263 113.178948 107.789474 0 10.778947 0 21.557895-10.778948 26.947368s-16.168421 5.389474-26.947368 0-16.168421-16.168421-16.168421-21.557895c0-32.336842-26.947368-59.284211-59.284211-59.28421-32.336842 0-59.284211 26.947368-59.28421 64.673684v43.11579h177.852631c21.557895 0 43.115789 21.557895 43.11579 43.115789v129.347369c0 21.557895-21.557895 43.115789-43.11579 43.115789z" p-id="2980"></path></svg>