<?xml version="1.0" standalone="no"?><!DOCTYPE svg PUBLIC "-//W3C//DTD SVG 1.1//EN" "http://www.w3.org/Graphics/SVG/1.1/DTD/svg11.dtd"><svg t="1545964005924" class="icon" style="" viewBox="0 0 1024 1024" version="1.1" xmlns="http://www.w3.org/2000/svg" p-id="3203" xmlns:xlink="http://www.w3.org/1999/xlink" width="200" height="200"><defs><style type="text/css"></style></defs><path d="M889.904762 190.171429v750.933333h-629.028572v-750.933333h629.028572z m0-63.390477h-629.028572c-34.133333 0-63.390476 29.257143-63.390476 63.390477v750.933333c0 34.133333 29.257143 63.390476 63.390476 63.390476h629.028572c34.133333 0 63.390476-29.257143 63.390476-63.390476v-750.933333c0-39.009524-29.257143-63.390476-63.390476-63.390477z m-126.780952-63.390476v63.390476h-502.24762l-63.390476 63.390477v629.028571h-63.390476v-750.933333h629.028572z m0-63.390476h-629.028572c-34.133333 0-63.390476 29.257143-63.390476 63.390476v750.933334c0 34.133333 29.257143 63.390476 63.390476 63.390476h126.780952v-687.542857h565.638096v-126.780953c0-34.133333-24.380952-63.390476-63.390476-63.390476z" p-id="3204"></path><path d="M704.609524 731.428571h-287.695238c-29.257143 0-53.638095-19.504762-53.638096-48.761904v-131.657143c0-24.380952 24.380952-48.761905 53.638096-48.761905h9.752381v-43.885714c0-63.390476 58.514286-117.028571 126.780952-121.904762 73.142857 0 131.657143 48.761905 136.533333 112.152381 0 9.752381-4.87619 19.504762-14.628571 29.257143-9.752381 4.87619-19.504762 4.87619-34.133333 0s-14.628571-14.628571-14.628572-24.380953c-4.87619-34.133333-34.133333-63.390476-73.142857-58.514285s-68.266667 29.257143-68.266667 63.390476v43.885714h214.552381c29.257143 0 53.638095 19.504762 53.638096 48.761905v131.657143c4.87619 29.257143-19.504762 48.761905-48.761905 48.761904z" p-id="3205"></path></svg>