<?xml version="1.0" standalone="no"?><!DOCTYPE svg PUBLIC "-//W3C//DTD SVG 1.1//EN" "http://www.w3.org/Graphics/SVG/1.1/DTD/svg11.dtd"><svg t="1545963977660" class="icon" style="" viewBox="0 0 1024 1024" version="1.1" xmlns="http://www.w3.org/2000/svg" p-id="2427" xmlns:xlink="http://www.w3.org/1999/xlink" width="200" height="200"><defs><style type="text/css"></style></defs><path d="M974.222222 832H507.562667a142.222222 142.222222 0 0 0-275.569778 0H49.777778a35.498667 35.498667 0 1 0 0 71.111111h182.215111a142.222222 142.222222 0 0 0 275.569778 0h466.659555a35.498667 35.498667 0 1 0 0-71.111111zM369.777778 939.804444a72.248889 72.248889 0 1 1 0-144.497777 72.248889 72.248889 0 0 1 0 144.497777z m604.444444-463.36h-182.215111a142.222222 142.222222 0 0 0-275.569778 0H49.777778a35.498667 35.498667 0 1 0 0 71.111112h466.659555a142.222222 142.222222 0 0 0 275.569778 0h182.215111a35.498667 35.498667 0 1 0 0-71.111112zM654.222222 584.248889a72.248889 72.248889 0 1 1 0-144.497778 72.248889 72.248889 0 0 1 0 144.497778zM49.777778 192h182.215111a142.222222 142.222222 0 0 0 275.569778 0h466.659555a35.498667 35.498667 0 1 0 0-71.111111H507.562667a142.222222 142.222222 0 0 0-275.569778 0H49.777778a35.498667 35.498667 0 1 0 0 71.111111zM369.777778 84.195556a72.248889 72.248889 0 1 1 0 144.497777 72.248889 72.248889 0 0 1 0-144.497777z" p-id="2428"></path></svg>