<?xml version="1.0" standalone="no"?><!DOCTYPE svg PUBLIC "-//W3C//DTD SVG 1.1//EN" "http://www.w3.org/Graphics/SVG/1.1/DTD/svg11.dtd"><svg t="1545964059823" class="icon" style="" viewBox="0 0 1024 1024" version="1.1" xmlns="http://www.w3.org/2000/svg" p-id="4637" xmlns:xlink="http://www.w3.org/1999/xlink" width="200" height="200"><defs><style type="text/css"></style></defs><path d="M714.105263 13.473684l269.473684 269.473684h-269.473684z" p-id="4638"></path><path d="M40.421053 67.368421V970.105263a53.894737 53.894737 0 0 0 53.894736 53.894737h835.368422a53.894737 53.894737 0 0 0 53.894736-53.894737V350.315789H916.210526v606.31579h-808.421052V80.842105h538.947368V13.473684H94.315789a53.894737 53.894737 0 0 0-53.894736 53.894737z" p-id="4639"></path><path d="M704.943158 657.946947c-28.456421 37.510737-119.107368 64.997053-226.627369 64.997053-107.466105 0-198.170947-27.486316-226.573473-64.997053-6.036211-7.922526-9.216-3.664842-9.216 0.269474v55.080421c0 53.355789 105.579789 108.597895 235.789473 108.597895s235.789474-55.296 235.789474-108.597895v-55.080421c0-3.934316-3.233684-8.192-9.162105-0.269474z m0.323368-168.690526c-27.917474 35.678316-118.999579 61.871158-226.950737 61.871158s-199.033263-26.192842-226.896842-61.925053c-5.820632-7.329684-8.892632-3.341474-8.892631 0v69.73979c0 52.277895 105.579789 94.531368 235.789473 94.531368s235.789474-42.307368 235.789474-94.531368V489.202526c0-3.341474-3.072-7.383579-8.838737 0zM478.315789 282.947368C348.106105 282.947368 242.526316 318.571789 242.526316 362.549895v38.049684C242.526316 447.326316 348.106105 485.052632 478.315789 485.052632s235.789474-37.780211 235.789474-84.453053v-38.049684c0-43.978105-105.579789-79.602526-235.789474-79.602527z" p-id="4640"></path></svg>