<?xml version="1.0" standalone="no"?><!DOCTYPE svg PUBLIC "-//W3C//DTD SVG 1.1//EN" "http://www.w3.org/Graphics/SVG/1.1/DTD/svg11.dtd"><svg t="1545964001976" class="icon" style="" viewBox="0 0 1216 1024" version="1.1" xmlns="http://www.w3.org/2000/svg" p-id="3089" xmlns:xlink="http://www.w3.org/1999/xlink" width="237.5" height="200"><defs><style type="text/css"></style></defs><path d="M19.2 6.4h1132.8v243.2h-1132.8z" p-id="3090"></path><path d="M19.2 140.8h89.6v851.2h-89.6v-851.2z m1043.2 0h89.6v345.6h-89.6v-345.6z" p-id="3091"></path><path d="M51.2 908.8h595.2v83.2h-569.6l-25.6-83.2z m32-243.2h569.6v83.2h-569.6v-83.2z m0-249.6h665.6v83.2h-665.6v-83.2z" p-id="3092"></path><path d="M364.8 140.8h89.6v787.2h-89.6v-787.2z m345.6 12.8h89.6v345.6h-89.6v-345.6z" p-id="3093"></path><path d="M1139.2 1004.8h-352c-32 0-64-25.6-64-64V768c0-32 25.6-64 64-64h12.8v-57.6c0-89.6 70.4-160 153.6-160 89.6 0 160 64 166.4 153.6 0 12.8-6.4 25.6-12.8 38.4-12.8 6.4-25.6 6.4-38.4 0-12.8-6.4-19.2-19.2-19.2-32-6.4-44.8-44.8-83.2-89.6-83.2s-83.2 38.4-83.2 89.6v57.6h262.4c32 0 64 25.6 64 64v172.8c-6.4 32-32 57.6-64 57.6z" p-id="3094"></path></svg>