<?xml version="1.0" standalone="no"?><!DOCTYPE svg PUBLIC "-//W3C//DTD SVG 1.1//EN" "http://www.w3.org/Graphics/SVG/1.1/DTD/svg11.dtd"><svg t="1545964050640" class="icon" style="" viewBox="0 0 1024 1024" version="1.1" xmlns="http://www.w3.org/2000/svg" p-id="4415" xmlns:xlink="http://www.w3.org/1999/xlink" width="200" height="200"><defs><style type="text/css"></style></defs><path d="M760.58819 203.53219L604.647619 50.127238A48.761905 48.761905 0 0 0 570.514286 36.132571H170.666667a48.761905 48.761905 0 0 0-48.761905 48.761905v748.495238a48.761905 48.761905 0 0 0 48.761905 48.761905h555.739428a48.761905 48.761905 0 0 0 48.761905-48.761905V238.299429a48.761905 48.761905 0 0 0-14.57981-34.767239zM185.734095 817.152V101.180952h350.256762v177.493334h175.34781v538.477714H185.782857z" p-id="4416"></path><path d="M838.168381 310.954667v635.416381H281.648762a32.52419 32.52419 0 1 0 0 64.999619h571.538286a48.761905 48.761905 0 0 0 48.761904-48.761905V310.954667a31.890286 31.890286 0 1 0-63.829333 0zM283.794286 370.93181h329.435428a31.695238 31.695238 0 0 1 0 63.390476H283.794286a31.695238 31.695238 0 0 1 0-63.390476z" p-id="4417"></path><path d="M283.794286 522.093714h329.48419a31.695238 31.695238 0 0 1 0 63.390476H283.794286a31.695238 31.695238 0 1 1 0-63.390476z m0 151.161905h229.180952a31.695238 31.695238 0 0 1 0 63.390476h-229.180952a31.695238 31.695238 0 0 1 0-63.390476z" p-id="4418"></path></svg>