<?xml version="1.0" standalone="no"?><!DOCTYPE svg PUBLIC "-//W3C//DTD SVG 1.1//EN" "http://www.w3.org/Graphics/SVG/1.1/DTD/svg11.dtd"><svg t="1545964013921" class="icon" style="" viewBox="0 0 1024 1024" version="1.1" xmlns="http://www.w3.org/2000/svg" p-id="3424" xmlns:xlink="http://www.w3.org/1999/xlink" width="200" height="200"><defs><style type="text/css"></style></defs><path d="M0 56.888889v910.051555a56.888889 56.888889 0 0 0 56.888889 56.888889h910.222222a56.888889 56.888889 0 0 0 56.888889-56.888889V56.888889a56.888889 56.888889 0 0 0-56.888889-56.888889H56.888889a56.888889 56.888889 0 0 0-56.888889 56.888889z m955.335111 11.776v218.965333H68.664889v-219.022222h886.670222zM68.664889 955.164444V356.238222h886.670222v598.983111H68.664889zM129.820444 146.545778h95.573334v68.664889h-95.573334V146.545778z m191.089778 0H416.426667v68.664889H320.853333V146.545778z m191.146667 0h95.573333v68.664889H512V146.545778zM371.313778 543.118222l-79.075556-4.608-108.088889 164.920889 109.397334 163.726222h82.716444l-109.681778-164.067555 104.732445-159.971556z m282.112 0l104.618666 159.971556-107.918222 161.564444 80.896 2.503111 109.397334-163.726222-108.088889-164.977778-78.904889 4.664889z m-240.298667 361.187556h71.907556l124.928-399.985778-70.997334-2.673778-125.838222 402.659556z" p-id="3425"></path></svg>