<?xml version="1.0" standalone="no"?><!DOCTYPE svg PUBLIC "-//W3C//DTD SVG 1.1//EN" "http://www.w3.org/Graphics/SVG/1.1/DTD/svg11.dtd"><svg t="1545963972762" class="icon" style="" viewBox="0 0 1024 1024" version="1.1" xmlns="http://www.w3.org/2000/svg" p-id="2317" xmlns:xlink="http://www.w3.org/1999/xlink" width="200" height="200"><defs><style type="text/css"></style></defs><path d="M856.768 505.6a40 40 0 0 1-57.6-55.232L868.864 377.6a157.184 157.184 0 0 0-15.168-214.016c-60.416-62.784-149.632-68.416-200-15.616L459.2 352a157.184 157.184 0 0 0 15.168 214.016 40 40 0 1 1-56.768 56.384 236.8 236.8 0 0 1-15.232-324.416l194.432-202.752c83.584-87.232 225.6-80 316.032 16a236.8 236.8 0 0 1 13.952 320.768L856.768 505.6z m-665.6 12.8a40 40 0 0 1 57.6 55.232L179.2 646.4a157.184 157.184 0 0 0 15.168 214.016c60.416 62.784 149.632 68.352 200 15.552L588.8 672a157.184 157.184 0 0 0-15.168-214.016 40 40 0 1 1 56.768-56.384 236.8 236.8 0 0 1 15.232 324.416L451.2 928.768c-83.584 87.232-225.6 80-316.032-16a236.8 236.8 0 0 1-13.952-320.768L191.168 518.4z" p-id="2318"></path></svg>