<?xml version="1.0" standalone="no"?><!DOCTYPE svg PUBLIC "-//W3C//DTD SVG 1.1//EN" "http://www.w3.org/Graphics/SVG/1.1/DTD/svg11.dtd"><svg t="1545964024966" class="icon" style="" viewBox="0 0 1024 1024" version="1.1" xmlns="http://www.w3.org/2000/svg" p-id="3645" xmlns:xlink="http://www.w3.org/1999/xlink" width="200" height="200"><defs><style type="text/css"></style></defs><path d="M993.1264 481.1264h-33.792c-15.2064-222.7712-193.7408-401.3056-416.5632-416.5632V30.8736a30.8736 30.8736 0 0 0-61.6448 0v33.792C258.3552 79.872 79.872 258.3552 64.5632 481.1264H30.8736a30.8736 30.8736 0 0 0 0 61.7472h33.792c15.2064 222.7712 193.7408 401.2544 416.5632 416.4608v33.792a30.8736 30.8736 0 0 0 61.6448 0v-33.792c222.7712-15.2064 401.2544-193.7408 416.5632-416.4608h33.792a30.8736 30.8736 0 0 0-0.1024-61.7472z m-95.5904 0h-81.2544a306.3808 306.3808 0 0 0-273.408-273.408V126.464a387.4304 387.4304 0 0 1 354.6624 354.6624z m-282.3168 61.7472h138.6496a244.3264 244.3264 0 0 1-211.0976 211.0976v-138.752a30.8736 30.8736 0 0 0-61.6448 0.0512v138.7008a244.3264 244.3264 0 0 1-211.0976-211.0976h138.7008a30.8736 30.8736 0 0 0 0-61.7472H270.0288a244.3264 244.3264 0 0 1 211.0976-211.0976v138.7008a30.8736 30.8736 0 0 0 61.7472 0V270.0288a244.3264 244.3264 0 0 1 211.0976 211.0976h-138.752a30.8224 30.8224 0 0 0 0 61.7472zM481.1264 126.464v81.2544a306.3808 306.3808 0 0 0-273.408 273.408H126.464A387.4304 387.4304 0 0 1 481.1264 126.464zM126.464 542.8736h81.2544a306.3808 306.3808 0 0 0 273.408 273.408v81.2544a387.4304 387.4304 0 0 1-354.6624-354.6624z m416.4096 354.6112v-81.2032a306.3808 306.3808 0 0 0 273.408-273.408h81.2544a387.2768 387.2768 0 0 1-354.6624 354.6112z" p-id="3646"></path></svg>