<?xml version="1.0" standalone="no"?><!DOCTYPE svg PUBLIC "-//W3C//DTD SVG 1.1//EN" "http://www.w3.org/Graphics/SVG/1.1/DTD/svg11.dtd"><svg t="1545963986858" class="icon" style="" viewBox="0 0 1204 1024" version="1.1" xmlns="http://www.w3.org/2000/svg" p-id="2647" xmlns:xlink="http://www.w3.org/1999/xlink" width="235.15625" height="200"><defs><style type="text/css"></style></defs><path d="M1186.816 314.127059L887.747765 10.360471A46.08 46.08 0 0 0 859.557647 0H46.983529A46.983529 46.983529 0 0 0 0 46.983529v614.159059a46.08 46.08 0 0 0 7.529412 24.45553l8.432941 8.432941 299.971765 303.766588a46.08 46.08 0 0 0 34.876235 15.962353h806.851765a46.983529 46.983529 0 0 0 46.983529-46.983529V351.774118a46.08 46.08 0 0 0-17.829647-37.647059zM94.027294 89.328941h747.640471l207.811764 215.341177H353.581176a46.983529 46.983529 0 0 0-46.983529 47.043764v508.80753L93.967059 641.445647V89.328941z m1019.422118 835.102118H400.624941V398.757647h712.824471v525.673412z" p-id="2648"></path></svg>