<?xml version="1.0" standalone="no"?><!DOCTYPE svg PUBLIC "-//W3C//DTD SVG 1.1//EN" "http://www.w3.org/Graphics/SVG/1.1/DTD/svg11.dtd"><svg t="1545975601854" class="icon" style="" viewBox="0 0 1024 1024" version="1.1" xmlns="http://www.w3.org/2000/svg" p-id="2110" xmlns:xlink="http://www.w3.org/1999/xlink" width="200" height="200"><defs><style type="text/css"></style></defs><path d="M512 70.656h335.5136l-0.0512 882.688H176.4864c0.1024 0 0.0512-441.344 0.0512-441.344V285.5936L344.2176 70.656H512zM298.752 13.568L113.408 251.9552a35.328 35.328 0 0 0-7.4752 21.7088v679.5776A70.656 70.656 0 0 0 176.4864 1024h671.0272a70.656 70.656 0 0 0 70.5536-70.656V70.656A70.5536 70.5536 0 0 0 847.5136 0H326.656a35.328 35.328 0 0 0-27.8528 13.6192z m19.0464 233.6768c0-0.1024-141.312-0.1024-141.312-0.1024v70.6048h141.312c38.9632 0 70.656-31.5392 70.656-70.5024V70.656h-70.656v176.64z" p-id="2111"></path><path d="M719.872 545.024l-89.088-89.088a25.6 25.6 0 0 0-36.096 36.096L665.6 563.2l-71.168 71.168a25.6 25.6 0 1 0 36.096 36.096l89.088-89.088a25.6 25.6 0 0 0 0.256-36.352z m-295.936-89.088a25.6 25.6 0 0 0-36.096 0l-89.344 89.088a25.6 25.6 0 0 0 0 36.096l89.088 89.088a25.6 25.6 0 0 0 36.096-36.096L353.024 563.2 423.936 492.032a25.6 25.6 0 0 0 0-36.096z m121.088-5.632A25.6 25.6 0 0 0 512 465.408l-65.792 177.664a25.6 25.6 0 1 0 47.872 17.92l65.792-177.664a25.6 25.6 0 0 0-14.848-33.024z" p-id="2112"></path></svg>