<?xml version="1.0" standalone="no"?><!DOCTYPE svg PUBLIC "-//W3C//DTD SVG 1.1//EN" "http://www.w3.org/Graphics/SVG/1.1/DTD/svg11.dtd"><svg t="1545964055632" class="icon" style="" viewBox="0 0 1280 1024" version="1.1" xmlns="http://www.w3.org/2000/svg" p-id="4527" xmlns:xlink="http://www.w3.org/1999/xlink" width="250" height="200"><defs><style type="text/css"></style></defs><path d="M575.55228 91.456583h-438.399726a45.695971 45.695971 0 0 0-45.695971 45.695971V868.480097c0 25.279984 20.479987 45.759971 45.695971 45.759972h1005.695372c25.279984 0 45.695971-20.479987 45.695971-45.759972V274.304469a45.695971 45.695971 0 0 0-45.695971-45.759972H731.520183a45.695971 45.695971 0 0 1-32.51198-13.247992L575.55228 91.520583z m174.591891 45.695971h392.703755c75.775953 0 137.151914 61.439962 137.151914 137.151915v594.239628c0 75.775953-61.439962 137.151914-137.151914 137.151914H137.152554A137.151914 137.151914 0 0 1 0.00064 868.544097V137.152554C0.00064 61.376602 61.440602 0.00064 137.152554 0.00064h457.151715a45.695971 45.695971 0 0 1 32.447979 13.247992l123.391923 123.903922zM45.696611 411.456383A45.695971 45.695971 0 1 1 45.696611 320.00044h1142.847286a45.695971 45.695971 0 0 1 0 91.455943H45.696611z" p-id="4528"></path></svg>