<?xml version="1.0" standalone="no"?><!DOCTYPE svg PUBLIC "-//W3C//DTD SVG 1.1//EN" "http://www.w3.org/Graphics/SVG/1.1/DTD/svg11.dtd"><svg t="1542268305534" class="icon" style="" viewBox="0 0 1024 1024" version="1.1" xmlns="http://www.w3.org/2000/svg" p-id="4248" xmlns:xlink="http://www.w3.org/1999/xlink" width="200" height="200"><defs><style type="text/css"></style></defs><path d="M520.96 502.72a31.36 31.36 0 0 1-13.376-3.008L98.432 303.488a30.784 30.784 0 0 1 0-55.616L507.52 51.648a30.976 30.976 0 0 1 26.88 0.064l403.84 196.224a30.72 30.72 0 0 1 0 55.488L534.272 499.584a30.08 30.08 0 0 1-13.44 3.136zM183.04 275.648l337.792 161.984 333.44-161.92-333.44-161.984-337.792 161.92z m337.92 693.504a31.104 31.104 0 0 1-13.44-3.072L103.68 769.856a30.784 30.784 0 1 1 26.88-55.488l390.4 189.696 390.336-189.696a31.04 31.04 0 0 1 41.216 14.272 30.912 30.912 0 0 1-14.272 41.216l-403.84 196.224a30.4 30.4 0 0 1-13.44 3.072z" p-id="4249"></path><path d="M924.544 763.968a30.848 30.848 0 0 1-30.784-30.848V281.024a30.848 30.848 0 0 1 61.632 0v452.096a30.784 30.784 0 0 1-30.848 30.848z m-816.512 3.52a30.848 30.848 0 0 1-30.848-30.784v-455.68a30.848 30.848 0 0 1 61.632 0v455.68a30.848 30.848 0 0 1-30.784 30.784z m439.104 163.456h-62.4v-456.96h62.464v456.96z" p-id="4250"></path></svg>