<?xml version="1.0" standalone="no"?><!DOCTYPE svg PUBLIC "-//W3C//DTD SVG 1.1//EN" "http://www.w3.org/Graphics/SVG/1.1/DTD/svg11.dtd"><svg t="1542268227955" class="icon" style="" viewBox="0 0 1170 1024" version="1.1" xmlns="http://www.w3.org/2000/svg" p-id="2250" xmlns:xlink="http://www.w3.org/1999/xlink" width="228.515625" height="200"><defs><style type="text/css"></style></defs><path d="M957.44 244.882286l-148.48 272.384c27.501714 0 52.224 8.265143 74.24 19.236571l143.067429-261.339428c-24.722286-5.485714-49.517714-13.750857-68.754286-30.281143zM701.732571 558.518857L594.285714 481.499429c-13.750857 22.016-32.987429 38.546286-55.003428 52.297142l118.345143 85.284572c10.971429-22.016 24.722286-44.032 44.032-60.562286z m-363.227428-55.003428L189.878857 693.394286c21.942857 10.971429 44.032 24.722286 60.489143 44.032l151.405714-192.658286a141.165714 141.165714 0 0 1-63.341714-41.252571z" p-id="2251"></path><path d="M107.300571 137.508571c0-16.457143 13.750857-30.208 30.281143-30.208h751.177143c0-24.722286 8.192-46.811429 19.236572-66.048H137.508571C82.578286 38.546286 38.546286 82.651429 38.546286 137.581714v566.857143c19.236571-11.044571 44.032-19.309714 65.974857-19.309714V137.508571h2.779428z m940.982858 137.654858v586.020571a30.500571 30.500571 0 0 1-30.208 30.281143H291.620571a149.942857 149.942857 0 0 1-32.914285 66.048h759.369143c55.003429 0 99.035429-44.032 99.035428-99.035429V264.045714a134.582857 134.582857 0 0 1-68.754286 10.971429c2.706286 2.779429 2.706286 0 0 0z m0-275.163429a122.148571 122.148571 0 0 0-121.051429 121.051429 122.148571 122.148571 0 0 0 121.051429 121.051428 122.148571 122.148571 0 0 0 121.124571-121.051428A122.148571 122.148571 0 0 0 1048.283429 0z m0 162.377143a42.349714 42.349714 0 0 1-41.252572-41.325714c0-21.942857 19.236571-41.252571 41.252572-41.252572 22.016 0 41.325714 19.236571 41.325714 41.252572 0 22.016-19.309714 41.252571-41.325714 41.252571z" p-id="2252"></path><path d="M806.180571 778.678857a122.148571 122.148571 0 0 0 121.051429-121.051428 122.148571 122.148571 0 0 0-121.051429-121.124572 122.148571 122.148571 0 0 0-121.051428 121.124572 122.148571 122.148571 0 0 0 121.051428 121.051428z m0-162.377143c21.942857 0 41.252571 19.309714 41.252572 41.325715 0 21.942857-19.236571 41.252571-41.252572 41.252571a42.349714 42.349714 0 0 1-41.252571-41.252571c0-22.016 19.236571-41.325714 41.252571-41.325715zM459.483429 299.885714a122.148571 122.148571 0 0 0-121.051429 121.124572A122.148571 122.148571 0 0 0 459.483429 541.988571a122.148571 122.148571 0 0 0 121.051428-121.051428A122.148571 122.148571 0 0 0 459.483429 299.885714z m0 159.597715a42.349714 42.349714 0 0 1-41.252572-41.252572c0-22.016 19.236571-41.252571 41.252572-41.252571 22.016 0 41.252571 19.236571 41.252571 41.252571 0 21.942857-19.236571 41.252571-41.252571 41.252572z m-338.432 283.428571c-66.048 0-121.051429 52.297143-121.051429 118.272a122.148571 122.148571 0 0 0 121.051429 121.124571 122.148571 122.148571 0 0 0 121.051428-121.124571c0-65.974857-55.003429-118.272-121.051428-118.272z m0 159.597714a42.349714 42.349714 0 0 1-41.252572-41.325714c0-21.942857 19.236571-41.252571 41.252572-41.252571 22.016 0 41.252571 19.236571 41.252571 41.252571 0 22.016-19.236571 41.325714-41.252571 41.325714z" p-id="2253"></path></svg>