<?xml version="1.0" standalone="no"?><!DOCTYPE svg PUBLIC "-//W3C//DTD SVG 1.1//EN" "http://www.w3.org/Graphics/SVG/1.1/DTD/svg11.dtd"><svg t="1542268276652" class="icon" style="" viewBox="0 0 1088 1024" version="1.1" xmlns="http://www.w3.org/2000/svg" p-id="3426" xmlns:xlink="http://www.w3.org/1999/xlink" width="212.5" height="200"><defs><style type="text/css"></style></defs><path d="M384 638.08c-135.872-8.32-252.032-42.88-320-91.2V640c0 63.424 138.368 116.096 320 126.208v63.872c-135.872-8.32-252.032-42.816-320-91.136V832H0V224C0 100.352 200.576 0 448 0c247.36 0 448 100.288 448 224v202.112h-64V339.456C753.472 404.48 610.816 448 448 448c-162.944 0-305.6-43.52-384-108.544V448c0 63.36 138.368 116.032 320 126.144v63.872z m64 385.856c-247.424 0-448-85.952-448-192h64c0 70.72 171.904 128 384 128v64z m0-640c212.032 0 384-71.68 384-160S659.968 64 448 64C235.904 64 64 135.68 64 224S235.904 384 448 384z" p-id="3427"></path><path d="M1066.688 717.44a84.608 84.608 0 0 0-56.512-24 87.04 87.04 0 0 0-58.752 19.2c-0.32 0.256-0.384 0.64-0.704 0.896L735.872 600.96c0.896-3.968 2.944-7.616 3.2-11.712a69.44 69.44 0 0 0-21.248-53.248c-30.336-30.08-82.048-32.128-115.264-4.736-33.28 27.52-35.584 74.304-5.248 104.448 11.84 11.776 27.584 18.24 44.48 21.312l25.472 217.088c-7.552 3.328-15.104 6.592-21.504 11.904-35.712 29.44-38.208 79.808-5.632 112.192 17.28 17.088 40.96 25.792 64.768 25.792 21.12 0 42.304-6.848 59.072-20.736 17.28-14.336 27.392-33.92 28.48-55.04 0.384-7.808-1.728-15.232-3.776-22.656l169.984-100.16c12.928 8.704 27.584 14.976 44.16 15.616l3.776 0.128c20.352 0 39.68-6.784 54.912-19.328 33.216-27.52 35.52-74.368 5.184-104.384z m-137.92 32.384c-3.84 14.272-4.288 29.12 1.408 43.072l-163.392 96.32a90.496 90.496 0 0 0-54.656-23.232l-24.768-211.392a83.2 83.2 0 0 0 25.152-14.144c0.96-0.832 1.344-1.92 2.24-2.752l214.016 112.128z m-307.2-165.44a31.296 31.296 0 0 1 11.712-22.592 38.208 38.208 0 0 1 24.256-8.512 37.76 37.76 0 0 1 26.624 10.56c6.4 6.4 9.792 14.784 9.344 23.488a31.168 31.168 0 0 1-11.648 22.592 36.224 36.224 0 0 1-25.984 8.512 37.312 37.312 0 0 1-24.896-10.56 30.592 30.592 0 0 1-9.408-23.488z m111.68 388.352a45.184 45.184 0 0 1-59.392-2.432 35.712 35.712 0 0 1 2.624-53.76 44.288 44.288 0 0 1 28.352-10.048h1.92a43.584 43.584 0 0 1 29.184 12.416 35.712 35.712 0 0 1-2.688 53.824z m297.472-181.44a40.192 40.192 0 0 1-25.856 8.512 37.76 37.76 0 0 1-24.96-10.624 30.528 30.528 0 0 1 2.304-46.016 37.952 37.952 0 0 1 24.192-8.512 37.76 37.76 0 0 1 26.624 10.624 30.592 30.592 0 0 1-2.304 46.08z" p-id="3428"></path></svg>