<?xml version="1.0" standalone="no"?><!DOCTYPE svg PUBLIC "-//W3C//DTD SVG 1.1//EN" "http://www.w3.org/Graphics/SVG/1.1/DTD/svg11.dtd"><svg t="1542268257784" class="icon" style="" viewBox="0 0 1024 1024" version="1.1" xmlns="http://www.w3.org/2000/svg" p-id="2957" xmlns:xlink="http://www.w3.org/1999/xlink" width="200" height="200"><defs><style type="text/css"></style></defs><path d="M512 0C296.192 0 64 65.024 64 208v608C64 958.848 296.192 1024 512 1024c215.744 0 448-65.152 448-208v-608C960 65.024 727.744 0 512 0z m384 816C896 895.488 724.032 960 512 960c-212.096 0-384-64.512-384-144v-119.552C194.112 764.608 353.6 800 512 800s317.888-35.392 384-103.552v119.552z m0-192h-0.128l0.128 0.96C896 704 724.032 768 512 768c-212.096 0-384-64-384-143.04l0.128-0.96H128V504.448C194.112 572.608 353.6 608 512 608s317.888-35.392 384-103.552V624z m0-192h-0.128l0.128 1.024C896 512 724.032 576 512 576 299.904 576 128 512 128 433.024l0.128-1.024H128V322.048C211.84 385.92 365.632 416 512 416s300.16-30.08 384-93.952V432zM512 352c-212.096 0-384-64.512-384-144C128 128.448 299.904 64 512 64c212.032 0 384 64.448 384 144 0 79.488-171.968 144-384 144z" p-id="2958"></path><path d="M768 832a32 32 0 1 0 64 0 32 32 0 0 0-64 0z m0-192a32 32 0 1 0 64 0 32 32 0 0 0-64 0z m0-192a32 32 0 1 0 64 0 32 32 0 0 0-64 0z" p-id="2959"></path></svg>