<?xml version="1.0" standalone="no"?><!DOCTYPE svg PUBLIC "-//W3C//DTD SVG 1.1//EN" "http://www.w3.org/Graphics/SVG/1.1/DTD/svg11.dtd"><svg t="1542268309445" class="icon" style="" viewBox="0 0 1024 1024" version="1.1" xmlns="http://www.w3.org/2000/svg" p-id="4366" xmlns:xlink="http://www.w3.org/1999/xlink" width="200" height="200"><defs><style type="text/css"></style></defs><path d="M864 704c-32 0-64 12.8-89.6 25.6l-51.2-51.2c25.6-38.4 44.8-83.2 44.8-134.4 0-70.4-32-134.4-83.2-172.8l25.6-51.2h25.6C825.6 320 896 249.6 896 160S825.6 0 736 0 576 70.4 576 160c0 57.6 32 102.4 70.4 134.4l-19.2 44.8C601.6 326.4 576 320 544 320 422.4 320 320 422.4 320 544c0 32 6.4 57.6 19.2 83.2l-44.8 19.2C262.4 608 217.6 576 160 576 70.4 576 0 646.4 0 736S70.4 896 160 896 320 825.6 320 736v-25.6l51.2-25.6c38.4 51.2 102.4 83.2 172.8 83.2 51.2 0 96-19.2 134.4-44.8l51.2 51.2c-12.8 25.6-25.6 57.6-25.6 89.6 0 89.6 70.4 160 160 160s160-70.4 160-160-70.4-160-160-160z m-128-640c51.2 0 96 44.8 96 96S787.2 256 736 256 640 211.2 640 160 684.8 64 736 64z m-576 768c-51.2 0-96-44.8-96-96S108.8 640 160 640s96 44.8 96 96S211.2 832 160 832zM384 544C384 454.4 454.4 384 544 384S704 454.4 704 544 633.6 704 544 704 384 633.6 384 544z m480 416c-51.2 0-96-44.8-96-96s44.8-96 96-96 96 44.8 96 96-44.8 96-96 96z" p-id="4367"></path></svg>