<?xml version="1.0" standalone="no"?><!DOCTYPE svg PUBLIC "-//W3C//DTD SVG 1.1//EN" "http://www.w3.org/Graphics/SVG/1.1/DTD/svg11.dtd"><svg t="1542268237174" class="icon" style="" viewBox="0 0 1024 1024" version="1.1" xmlns="http://www.w3.org/2000/svg" p-id="2486" xmlns:xlink="http://www.w3.org/1999/xlink" width="200" height="200"><defs><style type="text/css"></style></defs><path d="M292.544 219.456h438.912V292.48H292.48V219.52z m0 146.24h438.912v73.152H292.48V365.696z m0 146.304h438.912v73.152H292.48V512zM877.696 36.544H146.304a36.544 36.544 0 0 0-36.608 36.608v877.696c0 20.224 16.384 36.608 36.608 36.608h475.392l292.608-256V73.152a36.544 36.544 0 0 0-36.608-36.608zM182.848 109.696h658.304v548.608H621.696a36.544 36.544 0 0 0-36.544 36.544v219.456H182.848V109.696z m620.352 621.76l-144.896 126.72v-126.72h144.896z" p-id="2487"></path></svg>