<?xml version="1.0" standalone="no"?><!DOCTYPE svg PUBLIC "-//W3C//DTD SVG 1.1//EN" "http://www.w3.org/Graphics/SVG/1.1/DTD/svg11.dtd"><svg t="1542268289809" class="icon" style="" viewBox="0 0 1170 1024" version="1.1" xmlns="http://www.w3.org/2000/svg" p-id="3778" xmlns:xlink="http://www.w3.org/1999/xlink" width="228.515625" height="200"><defs><style type="text/css"></style></defs><path d="M468.114286 902.070857H117.028571a78.262857 78.262857 0 0 1-78.043428-77.970286v-702.171428C38.985143 78.994286 74.093714 43.885714 117.028571 43.885714h897.243429c42.861714 0 77.970286 35.108571 77.970286 78.043429v234.057143c0 23.405714-15.579429 38.985143-38.985143 38.985143-23.405714 0-38.985143-15.579429-38.985143-38.985143v-234.057143H117.028571v702.171428h351.085715c23.405714 0 38.985143 15.579429 38.985143 38.985143 0 23.405714-15.579429 38.985143-38.985143 38.985143z" p-id="3779"></path><path d="M819.2 980.114286a313.051429 313.051429 0 0 1-312.100571-312.100572A313.051429 313.051429 0 0 1 819.2 355.986286a313.051429 313.051429 0 0 1 312.100571 312.027428A313.051429 313.051429 0 0 1 819.2 980.114286z m0-546.157715a234.788571 234.788571 0 0 0-234.057143 234.057143c0 128.731429 105.325714 234.057143 234.057143 234.057143 128.731429 0 234.057143-105.325714 234.057143-234.057143 0-128.731429-105.325714-234.057143-234.057143-234.057143z m-351.085714-117.028571H226.230857c-23.405714 0-38.985143-15.579429-38.985143-38.985143 0-23.405714 15.579429-38.985143 38.985143-38.985143H468.114286c23.405714 0 38.985143 15.579429 38.985143 38.985143 0 23.405714-15.579429 38.985143-38.985143 38.985143zM390.070857 473.014857h-163.84c-23.405714 0-38.985143-15.652571-38.985143-39.058286 0-23.405714 15.579429-38.985143 38.985143-38.985142h163.84c23.405714 0 39.058286 15.579429 39.058286 38.985142 0 23.405714-15.652571 39.058286-39.058286 39.058286z m0 156.013714h-163.84c-23.405714 0-38.985143-15.579429-38.985143-38.985142 0-23.405714 15.579429-39.058286 38.985143-39.058286h163.84c23.405714 0 39.058286 15.652571 39.058286 39.058286 0 23.405714-15.652571 38.985143-39.058286 38.985142z" p-id="3780"></path><path d="M787.968 816.274286c-19.456 0-42.861714-7.826286-58.514286-23.405715l-93.622857-93.622857a37.741714 37.741714 0 0 1 0-54.637714 37.741714 37.741714 0 0 1 54.637714 0l93.622858 93.622857h7.826285L947.931429 582.217143a37.741714 37.741714 0 0 1 54.637714 0 37.741714 37.741714 0 0 1 0 54.637714l-156.086857 156.013714c-15.579429 15.579429-35.108571 23.405714-58.514286 23.405715z" p-id="3781"></path></svg>