<?xml version="1.0" standalone="no"?><!DOCTYPE svg PUBLIC "-//W3C//DTD SVG 1.1//EN" "http://www.w3.org/Graphics/SVG/1.1/DTD/svg11.dtd"><svg t="1542268248336" class="icon" style="" viewBox="0 0 1024 1024" version="1.1" xmlns="http://www.w3.org/2000/svg" p-id="2720" xmlns:xlink="http://www.w3.org/1999/xlink" width="200" height="200"><defs><style type="text/css"></style></defs><path d="M988.672 768.877714a36.132571 36.132571 0 0 0-36.132571-36.059428H113.225143V73.581714a36.132571 36.132571 0 0 0-36.059429-36.132571h-2.194285a36.278857 36.278857 0 0 0-36.132572 36.132571v731.355429h913.700572a35.913143 35.913143 0 0 0 36.132571-36.059429z m0.219429 101.376h-73.142858v46.299429l-72.557714-0.073143v-46.226286h-73.142857v46.226286l-72.777143-0.146286v-45.494857h-73.142857v45.494857H550.619429v-44.909714h-73.142858v44.836571h-72.777142v-44.836571h-73.142858v44.690286h-72.923428v-45.860572h-73.142857v45.860572h-73.142857v-45.275429H38.765714v115.2h949.833143v-42.642286h0.219429v-73.142857z" p-id="2721"></path><path d="M400.457143 648.777143c4.388571 4.169143 10.24 6.290286 16.091428 6.290286l2.779429-0.073143h0.438857L585.581714 629.028571l377.270857-397.165714a63.780571 63.780571 0 0 0-2.048-91.867428L875.52 57.856a57.709714 57.709714 0 0 0-39.643429-16.384c-16.896 0-33.645714 8.045714-46.957714 22.528L409.6 462.848l-16.822857 166.034286-0.073143 0.804571v0.512a24.283429 24.283429 0 0 0 7.753143 18.578286z m434.980571-540.672h0.365715l81.334857 78.628571v0.365715l-16.091429 17.334857-81.627428-78.994286 16.018285-17.334857zM471.405714 490.496l304.274286-317.952 81.700571 79.140571-304.128 317.805715-94.72 15.506285 12.873143-94.500571z" p-id="2722"></path></svg>