<?xml version="1.0" standalone="no"?><!DOCTYPE svg PUBLIC "-//W3C//DTD SVG 1.1//EN" "http://www.w3.org/Graphics/SVG/1.1/DTD/svg11.dtd"><svg t="1557812325842" class="icon" style="" viewBox="0 0 1204 1024" version="1.1" xmlns="http://www.w3.org/2000/svg" p-id="2534" xmlns:xlink="http://www.w3.org/1999/xlink" width="235.15625" height="200"><defs><style type="text/css"></style></defs><path d="M0 0v983.04h1204.705882V0H0z m451.764706 631.988706V421.285647h301.17647v210.703059h-301.17647z m301.17647 70.174118v210.703058h-301.17647v-210.703058h301.17647z m0-561.754353V351.171765h-301.17647V140.348235h301.17647z m-376.470588 0V351.171765h-301.17647V140.348235h301.17647z m-301.17647 280.877176h301.17647v210.703059h-301.17647V421.285647z m752.941176 0h301.176471v210.703059h-301.176471V421.285647z m0-70.174118V140.348235h301.176471V351.171765h-301.176471z m-752.941176 351.051295h301.17647v210.703058h-301.17647v-210.703058z m752.941176 210.703058v-210.703058h301.176471v210.703058h-301.176471z" p-id="2535"></path></svg>