<?xml version="1.0" standalone="no"?><!DOCTYPE svg PUBLIC "-//W3C//DTD SVG 1.1//EN" "http://www.w3.org/Graphics/SVG/1.1/DTD/svg11.dtd"><svg t="1542268320715" class="icon" style="" viewBox="0 0 1024 1024" version="1.1" xmlns="http://www.w3.org/2000/svg" p-id="4483" xmlns:xlink="http://www.w3.org/1999/xlink" width="200" height="200"><defs><style type="text/css"></style></defs><path d="M435.2 179.2c-105.664 0-153.6 63.104-153.6 153.6h51.2c1.728-64.192 43.52-100.736 102.4-102.4 51.712 1.664 74.56 29.824 76.288 77.504 0 24.704-17.792 53.44-53.44 86.4-41.088 36.288-48.448 62.528-48.448 92.096v51.2h51.2v-51.2c0-16.384 8.832-38.592 37.376-64.896 42.816-37.888 64.192-75.712 64.192-113.6C562.368 232.32 517.248 179.2 435.2 179.2zM409.6 640h51.2v-51.2h-51.2v51.2z m435.2-163.456V122.048S835.2 51.2 768 51.2H51.2v732.544s9.6 59.648 102.4 61.056c92.8 1.408 281.6 0 281.6 0-11.136 1.408 409.6-368.256 409.6-368.256zM409.6 793.6s-236.8-0.704-256 0c-59.2 2.24-51.2-57.152-51.2-57.152V98.56H768c33.6 0 25.6 28.096 25.6 47.36v307.2l-384 340.544z m547.456-173.184l-88.96-83.008-15.808-14.656-15.68 14.656-66.752 62.272-244.736 228.224-4.8 4.416-1.344 6.144L486.4 972.8l147.776-26.88 6.656-1.152 4.8-4.48 244.736-228.224 66.752-62.208 15.808-14.72-15.872-14.72z m-338.24 286.08l-71.872 13.376 14.336-67.072 224.256-209.088 57.536 53.632-224.256 209.088z m255.808-238.528l-57.6-53.696 35.328-32.832 57.6 53.632-35.328 32.896z" p-id="4484"></path></svg>