<?xml version="1.0" standalone="no"?><!DOCTYPE svg PUBLIC "-//W3C//DTD SVG 1.1//EN" "http://www.w3.org/Graphics/SVG/1.1/DTD/svg11.dtd"><svg t="1549001424968" class="icon" style="" viewBox="0 0 1024 1024" version="1.1" xmlns="http://www.w3.org/2000/svg" p-id="2512" xmlns:xlink="http://www.w3.org/1999/xlink" width="200" height="200"><defs><style type="text/css"></style></defs><path d="M955.736747 62.600533v834.218667a62.122667 62.122667 0 0 1-63.419734 62.600533H131.75808a61.576533 61.576533 0 0 1-63.488-62.600533V62.600533C68.27008 27.101867 95.71328 0 131.689813 0H892.248747c35.976533 0 63.419733 27.170133 63.419733 62.600533H955.736747z m-68.266667 5.9392H136.536747V890.88h750.933333V68.539733zM273.07008 719.530667a34.269867 34.269867 0 0 1 0-68.539734 34.269867 34.269867 0 0 1 0 68.539734zM273.07008 514.048a34.269867 34.269867 0 0 1 0-68.539733 34.269867 34.269867 0 0 1 0 68.539733z m0-205.6192a34.269867 34.269867 0 0 1 0-68.539733 34.269867 34.269867 0 0 1 0 68.539733z m491.52 411.170133H395.95008c-12.288 0-20.48-17.066667-20.48-34.269866 0-20.48 8.192-34.269867 20.48-34.269867h368.64c10.24 0 20.48 13.7216 20.48 34.269867 0 17.134933-10.24 34.269867-20.48 34.269866z m0-205.550933H395.95008c-12.288 0-20.48-17.134933-20.48-34.269867s8.192-34.269867 20.48-34.269866h368.64c10.24 0 20.48 17.066667 20.48 34.269866 0 17.066667-10.24 34.269867-20.48 34.269867z m0-205.6192H395.95008c-12.288 0-20.48-13.653333-20.48-34.269867 0-20.48 8.192-34.269867 20.48-34.269866h368.64c10.24 0 20.48 13.7216 20.48 34.269866s-10.24 34.269867-20.48 34.269867z" p-id="2513"></path></svg>