<?xml version="1.0" standalone="no"?><!DOCTYPE svg PUBLIC "-//W3C//DTD SVG 1.1//EN" "http://www.w3.org/Graphics/SVG/1.1/DTD/svg11.dtd"><svg t="1557812340869" class="icon" style="" viewBox="0 0 1024 1024" version="1.1" xmlns="http://www.w3.org/2000/svg" p-id="2657" xmlns:xlink="http://www.w3.org/1999/xlink" width="200" height="200"><defs><style type="text/css"></style></defs><path d="M412.912941 0H72.342588C32.406588 0 0 32.466824 0 72.402824v340.992c0 39.936 32.406588 72.402824 72.282353 72.402823h340.630588c39.936 0 72.282353-32.466824 72.282353-72.402823V72.402824C485.255529 32.466824 452.909176 0 412.973176 0z m0 413.394824H72.342588V72.523294s0.120471-0.120471 0-0.12047h340.449883s0.120471 0.120471 0.12047 0v340.992c0.120471 0 0 0 0 0zM951.717647 0h-340.570353c-39.936 0-72.282353 32.466824-72.282353 72.402824v340.992c0 39.936 32.346353 72.402824 72.282353 72.402823h340.570353c39.936 0 72.342588-32.466824 72.342588-72.402823V72.402824C1024 32.466824 991.593412 0 951.717647 0z m0 413.394824h-340.570353V72.523294s0.120471-0.120471 0-0.12047h340.449882s0.120471 0.120471 0.120471 0v340.992s-0.120471 0 0 0zM412.912941 538.202353H72.342588C32.406588 538.202353 0 570.669176 0 610.605176v340.992C0 991.533176 32.406588 1024 72.282353 1024h340.630588c39.936 0 72.282353-32.466824 72.282353-72.402824v-340.992c0-39.936-32.346353-72.402824-72.282353-72.402823z m0 413.394823H72.342588v-340.931764s0.120471-0.060235 0-0.060236h340.449883s0.120471 0.120471 0.12047 0v340.992c0.120471-0.120471 0 0 0 0zM951.717647 538.202353h-340.570353c-39.936 0-72.282353 32.466824-72.282353 72.402823v340.992c0 39.936 32.346353 72.402824 72.282353 72.402824h340.570353c39.936 0 72.342588-32.466824 72.342588-72.402824v-340.992c0-39.936-32.406588-72.402824-72.282353-72.402823z m0 413.394823h-340.570353v-340.931764s0.120471-0.060235 0-0.060236h340.449882s0.120471 0.120471 0.120471 0v340.992c0-0.120471-0.120471 0 0 0z" p-id="2658"></path></svg>