<?xml version="1.0" standalone="no"?><!DOCTYPE svg PUBLIC "-//W3C//DTD SVG 1.1//EN" "http://www.w3.org/Graphics/SVG/1.1/DTD/svg11.dtd"><svg t="1542268266890" class="icon" style="" viewBox="0 0 1024 1024" version="1.1" xmlns="http://www.w3.org/2000/svg" p-id="3075" xmlns:xlink="http://www.w3.org/1999/xlink" width="200" height="200"><defs><style type="text/css"></style></defs><path d="M658.733176 586.571294a150.467765 150.467765 0 0 0-14.396235-34.514823c6.987294-9.456941 31.081412-44.574118 13.733647-61.921883l-8.914823-9.396706c-14.817882-14.878118-52.705882 8.312471-61.921883 14.336a149.744941 149.744941 0 0 0-34.93647-14.45647c-1.987765-11.745882-10.661647-52.886588-35.056941-52.886588h-9.758118c-21.022118 0-33.008941 42.526118-35.719529 53.187764a149.985882 149.985882 0 0 0-34.454589 14.456471c-8.432941-6.264471-44.754824-31.322353-62.464-13.673412l-9.456941 7.951059c-15.420235 15.420235 10.24 56.139294 14.938353 63.247059-6.023529 10.721882-10.721882 22.106353-13.974588 33.972706-10.24 1.626353-53.970824 10.059294-53.970824 35.237647v9.758117c0 21.805176 45.839059 33.912471 54.211765 35.900236 3.312941 11.745882 8.011294 23.070118 14.034824 33.671529-4.879059 7.710118-29.515294 48.248471-14.275765 63.548235l8.914823 7.408941c20.178824 20.118588 62.223059-12.950588 62.223059-12.950588l-1.987765-2.048c11.324235 6.625882 23.431529 11.866353 36.020706 15.420236 2.108235 8.553412 14.215529 54.091294 35.900236 54.091294h9.818353c28.491294 0 35.538824-53.187765 35.538823-53.187765h-2.650353c12.769882-3.312941 25.057882-8.192 36.502588-14.637177 8.914824 5.903059 46.200471 29.214118 61.078589 14.336l9.878588-9.878588c19.877647-19.877647-12.468706-60.536471-13.372235-61.620706 6.264471-10.842353 11.083294-22.467765 14.45647-34.514823 11.143529-2.770824 52.946824-14.757647 52.946824-35.538824v-9.818353c0-27.527529-49.754353-34.996706-52.886589-35.538823z m-146.672941 121.554824a80.775529 80.775529 0 1 1 0-161.551059 80.775529 80.775529 0 0 1 0 161.551059z m322.258824-572.717177v-52.585412C834.258824 30.960941 801.490824 0 746.676706 0 692.103529 0 659.275294 30.960941 659.275294 82.823529v52.585412h-59.271529v-52.585412C600.003765 30.960941 567.296 0 512.602353 0c-54.814118 0-87.461647 30.960941-87.461647 82.823529v52.585412h-59.331765v-52.585412C365.748706 30.960941 333.040941 0 278.287059 0c-54.814118 0-87.461647 30.960941-87.461647 82.823529v52.585412H90.352941v843.294118h843.294118v-843.294118h-99.388235z m-128.180706-52.585412c0-25.6 11.745882-35.960471 40.598588-35.96047 28.973176 0 40.658824 10.360471 40.658824 35.96047v140.769883c0 25.6-11.685647 35.960471-40.658824 35.96047-28.852706 0-40.598588-10.360471-40.598588-35.96047V82.823529z m-234.194824 0c0-25.6 11.685647-35.960471 40.598589-35.96047 28.912941 0 40.658824 10.360471 40.658823 35.96047v140.769883c0 25.6-11.745882 35.960471-40.658823 35.96047-28.912941 0-40.598588-10.360471-40.598589-35.96047V82.823529z m-234.315294 0c0-25.6 11.745882-35.960471 40.658824-35.96047 28.912941 0 40.658824 10.360471 40.658823 35.96047v140.769883c0 25.6-11.745882 35.960471-40.658823 35.96047-28.912941 0-40.658824-10.360471-40.658824-35.96047V82.823529z m625.724236 825.645177H160.647529V322.861176h702.704942v585.60753z" p-id="3076"></path></svg>