<?xml version="1.0" standalone="no"?><!DOCTYPE svg PUBLIC "-//W3C//DTD SVG 1.1//EN" "http://www.w3.org/Graphics/SVG/1.1/DTD/svg11.dtd"><svg t="1542268279961" class="icon" style="" viewBox="0 0 1024 1024" version="1.1" xmlns="http://www.w3.org/2000/svg" p-id="3544" xmlns:xlink="http://www.w3.org/1999/xlink" width="200" height="200"><defs><style type="text/css"></style></defs><path d="M512 972.16A460.224 460.224 0 1 1 513.152 51.84 460.224 460.224 0 0 1 512 972.16zM512 103.04a409.6 409.6 0 1 0-0.064 819.2A409.6 409.6 0 0 0 512 102.976z m317.44 413.44v0.832l-0.064 0.448-0.064 0.64-0.128 0.64v0.128a27.456 27.456 0 0 1-6.656 14.336c-6.72 8.64-14.08 16.832-21.44 24.768a558.592 558.592 0 0 1-135.68 109.44 347.968 347.968 0 0 1-101.76 39.168 277.44 277.44 0 0 1-116.928-1.792c-67.136-15.552-128-54.144-181.12-100.288a510.656 510.656 0 0 1-69.44-71.296 28.544 28.544 0 0 1 0-36.672 371.84 371.84 0 0 1 21.44-24.832 557.952 557.952 0 0 1 135.744-109.44 347.712 347.712 0 0 1 101.76-39.04 277.568 277.568 0 0 1 116.8 1.728c67.2 15.552 128 54.208 181.12 100.352 25.472 21.376 48.704 45.248 69.44 71.232a26.944 26.944 0 0 1 6.72 14.4l0.064 0.768 0.128 0.64v1.28l0.128 1.28v1.28z m-320-134.4c-66.304 0-120 57.152-120 127.744s53.76 127.744 120 127.744c66.24 0 120.064-57.152 120.064-127.744 0-70.528-53.76-127.744-120.064-127.744z m0 191.616c-33.152 0-60.032-28.608-60.032-63.872 0-35.264 26.88-63.872 60.032-63.872s60.032 28.608 60.032 63.872c0 35.328-26.88 63.872-60.032 63.872z" p-id="3545"></path></svg>