<?xml version="1.0" standalone="no"?><!DOCTYPE svg PUBLIC "-//W3C//DTD SVG 1.1//EN" "http://www.w3.org/Graphics/SVG/1.1/DTD/svg11.dtd"><svg t="1542268293202" class="icon" style="" viewBox="0 0 1024 1024" version="1.1" xmlns="http://www.w3.org/2000/svg" p-id="3897" xmlns:xlink="http://www.w3.org/1999/xlink" width="200" height="200"><defs><style type="text/css"></style></defs><path d="M936.3456 55.978667H130.4576C89.156267 55.978667 55.5008 89.429333 55.5008 130.730667V935.936c0 41.301333 33.655467 74.888533 74.9568 74.888533h805.888c41.301333 0 74.888533-33.5872 74.888533-74.888533V130.798933c0-41.301333-33.5872-74.888533-74.888533-74.888533z m-50.7904 85.1968a32.085333 32.085333 0 1 1 0 64.170666 32.085333 32.085333 0 0 1 0-64.170666z m-114.961067 0a32.085333 32.085333 0 1 1 0 64.170666 32.085333 32.085333 0 0 1 0-64.170666z m155.0336 783.9744H141.1072V285.013333H925.696v640.136534z m-650.6496-93.320534h516.778667a15.701333 15.701333 0 0 0 12.970667-24.576L546.816 360.8576a15.633067 15.633067 0 0 0-27.0336 0l-258.4576 447.556267a15.701333 15.701333 0 0 0 13.585067 23.483733z m288.1536-58.709333c0 6.007467-4.778667 10.786133-10.717866 10.786133h-38.024534a10.717867 10.717867 0 0 1-10.717866-10.717866v-37.819734c0-5.870933 4.778667-10.717867 10.717866-10.717866h38.024534c5.9392 0 10.717867 4.778667 10.717866 10.717866v37.819734z m-54.135466-299.485867h48.810666c5.870933 0 10.717867 4.778667 10.717867 10.717867l-5.393067 205.277867c0 5.870933-4.778667 10.717867-10.717866 10.717866h-38.024534a10.717867 10.717867 0 0 1-10.717866-10.717866l-5.461334-205.2096c0-5.9392 4.846933-10.786133 10.786134-10.786134z" p-id="3898"></path></svg>