<?xml version="1.0" standalone="no"?><!DOCTYPE svg PUBLIC "-//W3C//DTD SVG 1.1//EN" "http://www.w3.org/Graphics/SVG/1.1/DTD/svg11.dtd"><svg t="1542268296445" class="icon" style="" viewBox="0 0 1024 1024" version="1.1" xmlns="http://www.w3.org/2000/svg" p-id="4014" xmlns:xlink="http://www.w3.org/1999/xlink" width="200" height="200"><defs><style type="text/css"></style></defs><path d="M512.128 0.128L68.864 234.496l443.264 234.24 443.2-234.24L512.128 0.128z m-331.52 234.368l331.52-175.36 331.456 175.232L512 409.664 180.672 234.496z m-111.744 52.352l2.048 513.28L493.312 1024l-2.112-513.28-422.4-223.872z m54.144 481.792L121.408 373.888l317.696 168.32 1.6 394.816L123.008 768.64zM530.88 1024l422.4-223.872 2.048-513.28L532.992 510.72 530.88 1024z m54.208-481.728l317.696-168.384-1.6 394.752-317.696 168.32 1.6-394.688z" p-id="4015"></path></svg>