<?xml version="1.0" standalone="no"?><!DOCTYPE svg PUBLIC "-//W3C//DTD SVG 1.1//EN" "http://www.w3.org/Graphics/SVG/1.1/DTD/svg11.dtd"><svg t="1542268241375" class="icon" style="" viewBox="0 0 1024 1024" version="1.1" xmlns="http://www.w3.org/2000/svg" p-id="2603" xmlns:xlink="http://www.w3.org/1999/xlink" width="200" height="200"><defs><style type="text/css"></style></defs><path d="M992 303.68v497.728c0 49.152-37.376 89.024-83.456 89.024h-83.52v-44.48h83.52c23.04 0 41.728-19.968 41.728-44.48V333.952h-166.976c-46.144 0-83.456-39.872-83.456-89.024V44.608h-375.68c-23.04 0-41.728 19.968-41.728 44.48h-41.728c0-49.152 37.376-89.024 83.52-89.024h404.096l257.6 295.936 6.08 7.68z m-250.432-222.144v163.328c0 24.576 18.688 44.48 41.792 44.48h140.992l-182.784-207.808z m41.728 355.712v497.6c0 49.152-37.376 89.088-83.456 89.088H115.456c-46.08 0-83.456-39.872-83.456-89.088V222.528c0-49.152 37.376-89.024 83.456-89.024h404.096l257.664 295.872 6.08 7.872zM532.864 215.04v163.392c0 24.576 18.688 44.48 41.728 44.48h140.992L532.864 215.04z m-459.136 7.552v712.32c0 24.64 18.688 44.544 41.728 44.544h584.384c23.04 0 41.728-19.968 41.728-44.544V467.456H574.656c-46.08 0-83.456-39.872-83.456-89.024v-200.32h-375.68c-23.104 0-41.792 19.904-41.792 44.48z m104.384 267.136h208.704v44.48H178.112v-44.48z m0-133.568h208.704v44.48H178.112v-44.48z m459.136 311.68H178.112V623.36h459.136v44.48z m0 133.568H178.112v-44.544h459.136v44.544z" p-id="2604"></path></svg>