<?xml version="1.0" standalone="no"?><!DOCTYPE svg PUBLIC "-//W3C//DTD SVG 1.1//EN" "http://www.w3.org/Graphics/SVG/1.1/DTD/svg11.dtd"><svg t="1542268286771" class="icon" style="" viewBox="0 0 1024 1024" version="1.1" xmlns="http://www.w3.org/2000/svg" p-id="3661" xmlns:xlink="http://www.w3.org/1999/xlink" width="200" height="200"><defs><style type="text/css"></style></defs><path d="M895.961602 749.72604V694.871248c0-60.63283-30.791823-91.424653-91.424654-91.424653s-91.424653 30.791823-91.424653 91.424653v54.854792h182.849307z m-255.989029 200.987958c0 10.093282 8.045369 18.284931 18.138651 18.43121h292.851449a18.35807 18.35807 0 0 0 18.138651-18.43121v-145.986886L639.972573 804.580832v146.133166z m-54.854792 36.86242V768.010971a18.284931 18.284931 0 0 1 18.28493-18.284931H658.257503V694.871248a146.279445 146.279445 0 1 1 292.558891 0v54.854792h54.854792a18.284931 18.284931 0 0 1 18.28493 18.284931v219.565447a36.569861 36.569861 0 0 1-36.643001 36.423582H621.760782A36.569861 36.569861 0 0 1 585.117781 987.576418z m237.704098-69.482736a18.284931 18.284931 0 1 1-36.569861 0V877.720555h-18.43121a18.284931 18.284931 0 1 1 0-36.569861h73.505421a18.284931 18.284931 0 1 1 0 36.569861h-18.50435v40.446266zM351.802066 537.620845A292.55889 292.55889 0 1 1 511.978058 585.161665 438.838335 438.838335 0 0 0 73.139723 1024H0a512.124338 512.124338 0 0 1 351.802066-486.452295zM511.978058 512.021942a219.419168 219.419168 0 1 0-0.146279-438.838336A219.419168 219.419168 0 0 0 511.978058 512.021942z" p-id="3662"></path></svg>