<?xml version="1.0" standalone="no"?><!DOCTYPE svg PUBLIC "-//W3C//DTD SVG 1.1//EN" "http://www.w3.org/Graphics/SVG/1.1/DTD/svg11.dtd"><svg t="1542268217320" class="icon" style="" viewBox="0 0 1024 1024" version="1.1" xmlns="http://www.w3.org/2000/svg" p-id="2016" xmlns:xlink="http://www.w3.org/1999/xlink" width="200" height="200"><defs><style type="text/css"></style></defs><path d="M963.764706 993.882353h-349.364706c-18.070588 0-30.117647-12.047059-30.117647-30.117647v-349.364706c0-18.070588 12.047059-30.117647 30.117647-30.117647h349.364706c18.070588 0 30.117647 12.047059 30.117647 30.117647v349.364706c0 18.070588-12.047059 30.117647-30.117647 30.117647z m-319.247059-60.235294h289.129412v-289.129412h-289.129412v289.129412z m-234.917647 60.235294h-349.364706c-18.070588 0-30.117647-12.047059-30.117647-30.117647v-349.364706c0-18.070588 12.047059-30.117647 30.117647-30.117647h349.364706c18.070588 0 30.117647 12.047059 30.117647 30.117647v349.364706c0 18.070588-12.047059 30.117647-30.117647 30.117647z m-319.247059-60.235294h289.129412v-289.129412h-289.129412v289.129412z m873.411765-493.929412h-349.364706c-18.070588 0-30.117647-12.047059-30.117647-30.117647V60.235294c0-18.070588 12.047059-30.117647 30.117647-30.117647h349.364706c18.070588 0 30.117647 12.047059 30.117647 30.117647v349.364706c0 18.070588-12.047059 30.117647-30.117647 30.117647z m-319.247059-60.235294h289.129412v-289.129412h-289.129412v289.129412z m-234.917647 60.235294h-349.364706c-18.070588 0-30.117647-12.047059-30.117647-30.117647V60.235294c0-18.070588 12.047059-30.117647 30.117647-30.117647h349.364706c18.070588 0 30.117647 12.047059 30.117647 30.117647v349.364706c0 18.070588-12.047059 30.117647-30.117647 30.117647z m-319.247059-60.235294h289.129412v-289.129412h-289.129412v289.129412z" p-id="2017"></path></svg>