<?xml version="1.0" standalone="no"?><!DOCTYPE svg PUBLIC "-//W3C//DTD SVG 1.1//EN" "http://www.w3.org/Graphics/SVG/1.1/DTD/svg11.dtd"><svg t="1542268252426" class="icon" style="" viewBox="0 0 1092 1024" version="1.1" xmlns="http://www.w3.org/2000/svg" p-id="2838" xmlns:xlink="http://www.w3.org/1999/xlink" width="213.28125" height="200"><defs><style type="text/css"></style></defs><path d="M218.453333 219.409067h544.221867v58.299733H218.453333v-58.299733z m0 192.034133h448.238934v58.231467H218.453333v-58.231467z m0 191.965867h320.170667v58.299733H218.453333v-58.299733z" p-id="2839"></path><path d="M872.925867 0H89.088C41.096533 0 0 32.017067 0 70.382933V902.485333c0 38.365867 41.096533 70.382933 89.088 70.382934H393.216c20.548267 0 34.065067-11.400533 34.065067-30.583467s-13.5168-30.242133-34.065067-30.242133H58.299733V50.517333h844.663467v211.831467c0 19.182933 7.441067 32.631467 27.989333 32.631467s24.234667-13.448533 24.234667-32.631467V70.314667C955.1872 32.085333 920.917333 0 872.925867 0z" p-id="2840"></path><path d="M1059.293867 418.679467l-83.012267-77.550934a70.8608 70.8608 0 0 0-52.8384-21.162666c-22.596267 0-37.6832 7.099733-52.770133 21.162666l-347.136 366.455467-7.5776 7.031467-67.925334 197.290666c0 7.099733 0 21.162667 7.509334 28.2624 7.5776 7.031467 15.1552 7.031467 30.242133 7.031467l211.285333-63.488c7.509333 0 7.509333-6.9632 15.086934-6.9632l354.7136-366.455467c15.018667-28.194133 15.018667-70.519467-7.509334-91.613866zM523.605333 883.780267l37.6832-105.745067 75.502934 70.519467-113.186134 35.2256z m158.446934-63.488l-98.0992-98.577067 196.1984-197.290667 98.0992 98.577067-196.1984 197.290667z m332.049066-345.224534l-105.6768 105.6768-98.0992-98.645333 105.6768-105.745067 7.509334-7.031466c7.5776 0 7.5776 0 7.5776 7.031466l83.012266 77.550934c7.509333 7.031467 7.509333 14.062933 0 21.162666z" p-id="2841"></path></svg>