<?xml version="1.0" standalone="no"?><!DOCTYPE svg PUBLIC "-//W3C//DTD SVG 1.1//EN" "http://www.w3.org/Graphics/SVG/1.1/DTD/svg11.dtd"><svg t="1542268299880" class="icon" style="" viewBox="0 0 1024 1024" version="1.1" xmlns="http://www.w3.org/2000/svg" p-id="4131" xmlns:xlink="http://www.w3.org/1999/xlink" width="200" height="200"><defs><style type="text/css"></style></defs><path d="M977.472 558.528h-34.944V453.824c0-44.224-37.248-81.472-81.408-81.472h-314.24V279.296h197.824a46.72 46.72 0 0 0 46.592-46.592V93.12a46.72 46.72 0 0 0-46.592-46.592H279.296a46.72 46.72 0 0 0-46.592 46.592v139.584c0 25.6 20.992 46.592 46.592 46.592h197.76v93.056H162.944c-44.16 0-81.408 37.248-81.408 81.472v104.704H46.528A46.72 46.72 0 0 0 0 605.12v325.76c0 25.6 20.928 46.592 46.528 46.592H186.24a46.72 46.72 0 0 0 46.528-46.592v-325.76a46.72 46.72 0 0 0-46.528-46.592h-34.88V453.824c0-7.04 4.608-11.648 11.584-11.648h314.24v116.352h-34.944a46.72 46.72 0 0 0-46.528 46.592v325.76c0 25.6 20.928 46.592 46.528 46.592h139.648a46.72 46.72 0 0 0 46.528-46.592v-325.76a46.72 46.72 0 0 0-46.528-46.592h-34.944V442.24h314.24c6.976 0 11.584 4.672 11.584 11.648v104.704h-34.88a46.72 46.72 0 0 0-46.528 46.592v325.76c0 25.6 20.928 46.592 46.528 46.592h139.648a46.72 46.72 0 0 0 46.528-46.592v-325.76a46.72 46.72 0 0 0-46.528-46.592zM162.88 628.352v279.296H69.824V628.352h93.056z m395.648 0v279.296H465.472V628.352h93.056z m-256-418.88V116.352h418.944v93.12H302.528zM954.24 907.648h-93.056V628.352h93.056v279.296z" p-id="4132"></path></svg>