<?xml version="1.0" standalone="no"?><!DOCTYPE svg PUBLIC "-//W3C//DTD SVG 1.1//EN" "http://www.w3.org/Graphics/SVG/1.1/DTD/svg11.dtd"><svg t="1545104691889" class="icon" style="" viewBox="0 0 1280 1024" version="1.1" xmlns="http://www.w3.org/2000/svg" p-id="2762" xmlns:xlink="http://www.w3.org/1999/xlink" width="250" height="200"><defs><style type="text/css"></style></defs><path d="M288 774.4c0-32 25.6-57.6 57.6-57.6s57.6 25.6 57.6 57.6-25.6 57.6-57.6 57.6-57.6-25.6-57.6-57.6z m640-364.8l-179.2 32 128 160-76.8 51.2-102.4-172.8-102.4 172.8-76.8-51.2 121.6-160-179.2-32 32-89.6 172.8 64-19.2-198.4h96l-19.2 198.4 172.8-64 32 89.6z" fill="#F67F89" p-id="2763"></path><path d="M1184 1024h-1081.6c-57.6 0-96-44.8-96-96v-825.6c0-57.6 44.8-96 96-96h1081.6c57.6 0 96 44.8 96 96v825.6c0 51.2-44.8 96-96 96z m-1088-953.6c-12.8 0-32 12.8-32 32v825.6c0 12.8 12.8 32 32 32h1081.6c12.8 0 32-12.8 32-32v-825.6c0-12.8-12.8-32-32-32h-1081.6z" fill="#3E4456" p-id="2764"></path></svg>