<?xml version="1.0" standalone="no"?><!DOCTYPE svg PUBLIC "-//W3C//DTD SVG 1.1//EN" "http://www.w3.org/Graphics/SVG/1.1/DTD/svg11.dtd"><svg t="1545104697741" class="icon" style="" viewBox="0 0 1024 1024" version="1.1" xmlns="http://www.w3.org/2000/svg" p-id="3002" xmlns:xlink="http://www.w3.org/1999/xlink" width="200" height="200"><defs><style type="text/css"></style></defs><path d="M901.12 368.64l-337.92-337.92h-394.24c-30.72 0-51.2 20.48-51.2 51.2v860.16c0 30.72 20.48 51.2 51.2 51.2h680.96c30.72 0 51.2-20.48 51.2-51.2v-573.44z m-281.6-204.8l148.48 148.48h-148.48v-148.48z m230.4 773.12h-670.72v-855.04h363.52l20.48 20.48v261.12h261.12l20.48 20.48v552.96z" fill="#3E4456" p-id="3003"></path><path d="M363.52 506.88c15.36 10.24 25.6 30.72 25.6 51.2h-35.84c-5.12-15.36-10.24-25.6-15.36-30.72-10.24-5.12-20.48-10.24-35.84-10.24-15.36 0-25.6 0-30.72 5.12-10.24 5.12-15.36 10.24-15.36 20.48s5.12 15.36 15.36 20.48c5.12 0 15.36 5.12 35.84 15.36 30.72 10.24 51.2 15.36 56.32 20.48 20.48 10.24 30.72 25.6 30.72 46.08s-5.12 35.84-20.48 46.08c-15.36 10.24-35.84 15.36-66.56 15.36-25.6 0-46.08-5.12-61.44-15.36-20.48-15.36-30.72-30.72-30.72-61.44h35.84c0 15.36 10.24 30.72 15.36 35.84 10.24 5.12 20.48 10.24 40.96 10.24 15.36 0 30.72-5.12 35.84-10.24 10.24-5.12 15.36-10.24 15.36-20.48s-5.12-20.48-20.48-25.6c-5.12 0-20.48-5.12-40.96-15.36-25.6-10.24-46.08-15.36-51.2-20.48-15.36-10.24-25.6-25.6-25.6-46.08s10.24-35.84 25.6-46.08c15.36-10.24 35.84-15.36 56.32-15.36 25.6 15.36 46.08 20.48 61.44 30.72zM604.16 527.36c20.48 20.48 25.6 46.08 25.6 81.92 0 30.72-10.24 61.44-25.6 81.92 10.24 10.24 15.36 20.48 25.6 30.72l-25.6 20.48c-10.24-10.24-15.36-25.6-25.6-35.84-15.36 10.24-35.84 15.36-56.32 15.36-35.84 0-61.44-10.24-76.8-30.72-20.48-20.48-25.6-46.08-25.6-81.92 0-35.84 10.24-61.44 25.6-81.92 20.48-20.48 46.08-30.72 76.8-30.72 35.84-5.12 61.44 5.12 81.92 30.72z m-133.12 20.48c-10.24 15.36-15.36 35.84-15.36 61.44s5.12 46.08 15.36 61.44c10.24 15.36 30.72 20.48 51.2 20.48 15.36 0 25.6-5.12 35.84-10.24-10.24-15.36-20.48-25.6-30.72-35.84l20.48-20.48c10.24 10.24 20.48 25.6 30.72 35.84 10.24-15.36 10.24-30.72 10.24-51.2 0-25.6-5.12-46.08-20.48-61.44-10.24-15.36-30.72-20.48-51.2-20.48s-35.84 5.12-46.08 20.48zM701.44 496.64v189.44h117.76v30.72h-153.6v-220.16h35.84z" fill="#F67F89" p-id="3004"></path></svg>