<?xml version="1.0" standalone="no"?><!DOCTYPE svg PUBLIC "-//W3C//DTD SVG 1.1//EN" "http://www.w3.org/Graphics/SVG/1.1/DTD/svg11.dtd"><svg t="1543835946621" class="icon" style="" viewBox="0 0 1024 1024" version="1.1" xmlns="http://www.w3.org/2000/svg" p-id="2715" xmlns:xlink="http://www.w3.org/1999/xlink" width="200" height="200"><defs><style type="text/css"></style></defs><path d="M779.8 401.5c0.3-4.7 0.4-9.4 0.4-14.2 0-141.9-115.1-257-257-257-124 0-227.6 87.9-251.7 204.8C141.4 358.9 42.8 472.8 42.8 609.8c0 154.3 125 279.3 279.3 279.3 3.7 0 7.4-0.1 11.1-0.2v0.2H448V659h-85.3L512 424.4 661.3 659H576v230.1h137.1v-1c7.4 0.7 14.8 1 22.4 1 135.8 0 245.8-110 245.8-245.8 0-120.6-86.9-220.9-201.5-241.8z" p-id="2716"></path></svg>