<?xml version="1.0" standalone="no"?><!DOCTYPE svg PUBLIC "-//W3C//DTD SVG 1.1//EN" "http://www.w3.org/Graphics/SVG/1.1/DTD/svg11.dtd"><svg t="1542014908325" class="icon" style="" viewBox="0 0 1024 1024" version="1.1" xmlns="http://www.w3.org/2000/svg" p-id="1632" xmlns:xlink="http://www.w3.org/1999/xlink" width="200" height="200"><defs><style type="text/css"></style></defs><path d="M512 785.042286a34.304 34.304 0 0 1-24.137143-9.947429L146.505143 433.737143a34.084571 34.084571 0 0 1 24.137143-58.294857h170.715428v-307.2c0-18.797714 15.286857-34.084571 34.084572-34.084572h273.115428c18.797714 0 34.084571 15.286857 34.084572 34.084572v307.2h170.715428a34.157714 34.157714 0 0 1 24.137143 58.294857L536.137143 775.094857a34.304 34.304 0 0 1-24.137143 9.947429z m477.842286 204.8H34.157714a34.157714 34.157714 0 0 1 0-68.242286h955.684572a34.157714 34.157714 0 0 1 0 68.242286z" p-id="1633"></path></svg>