<?xml version="1.0" standalone="no"?><!DOCTYPE svg PUBLIC "-//W3C//DTD SVG 1.1//EN" "http://www.w3.org/Graphics/SVG/1.1/DTD/svg11.dtd"><svg t="1541992756325" class="icon" style="" viewBox="0 0 1024 1024" version="1.1" xmlns="http://www.w3.org/2000/svg" p-id="8536" xmlns:xlink="http://www.w3.org/1999/xlink" width="200" height="200"><defs><style type="text/css"></style></defs><path d="M268.8 913.92c-8.704 0-17.408-3.584-23.552-9.728l-48.128-48.128-39.424 39.424c-6.656 6.656-15.36 10.752-24.576 10.752-8.192 0-16.384-3.072-22.528-8.704-13.312-12.288-14.336-33.792-1.536-47.104l1.536-1.536 294.4-294.4-3.072-3.584c-47.104-58.88-68.608-133.12-59.904-207.872 8.192-75.264 45.568-142.336 104.448-189.44 50.688-40.448 111.616-61.952 176.128-61.952 86.528 0 167.424 38.912 221.184 106.496 47.104 58.88 68.608 133.12 59.904 207.872-8.192 75.264-45.568 142.336-104.448 189.44-49.664 39.936-112.64 61.952-176.64 61.952-60.416 0-117.76-18.944-166.4-54.272l-3.584-2.56L353.28 699.904l80.384 80.384c6.144 6.144 9.728 14.848 9.728 23.552s-3.584 17.408-9.728 23.552c-6.144 6.144-14.848 9.728-23.552 9.728-8.704 0-17.408-3.584-23.552-9.728l-80.384-80.384L244.224 808.96l48.128 48.128c6.144 6.144 9.728 14.848 9.728 23.552s-3.584 17.408-9.728 23.552-14.848 9.728-23.552 9.728zM624.64 157.696c-57.856 0-111.616 22.528-152.064 64-80.896 82.432-80.896 216.064 0 298.496 40.448 40.96 94.208 64 152.064 64 56.32 0 109.056-21.504 149.504-60.928 40.448-39.936 63.488-93.184 64-150.016s-20.992-110.592-60.928-151.04l-2.56-2.56c-40.96-40.448-94.208-61.952-150.016-61.952z" p-id="8537"></path></svg>