<?xml version="1.0" standalone="no"?><!DOCTYPE svg PUBLIC "-//W3C//DTD SVG 1.1//EN" "http://www.w3.org/Graphics/SVG/1.1/DTD/svg11.dtd"><svg t="1542101747376" class="icon" style="" viewBox="0 0 1489 1024" version="1.1" xmlns="http://www.w3.org/2000/svg" p-id="5708" xmlns:xlink="http://www.w3.org/1999/xlink" width="290.8203125" height="200"><defs><style type="text/css"></style></defs><path d="M712.151971 208.802909h65.163636V93.090909h-65.163636v115.712zM330.013789 427.938909l46.173091-54.551273-72.052364-71.121454-45.986909 49.896727 71.866182 75.776zM93.097425 902.981818h97.745455V825.716364H93.097425V902.981818z m1205.527273-77.172363V902.981818H1396.370153V825.716364h-97.745455z m-185.250909-452.142546l46.08 54.551273 69.073455-81.733818-46.08-54.644364-69.166546 81.826909zM798.167971 850.850909c-15.546182 0-28.299636 14.894545-28.299636 33.233455 0 18.338909 12.753455 33.326545 28.299636 33.326545 15.546182 0 28.299636-14.987636 28.299636-33.326545 0-18.245818-12.753455-33.233455-28.299636-33.233455z m0-66.56c46.824727 0 84.992 44.683636 84.992 99.793455 0 55.109818-38.167273 99.793455-84.992 99.793454-46.917818 0-84.992-44.683636-84.992-99.793454 0-55.016727 38.167273-99.793455 84.992-99.793455zM697.164335 654.336l76.706909 256.558545 46.359272 22.062546 11.170909-56.971636-134.23709-221.556364zM510.796335 232.168727l381.486545 629.480728L860.631971 1024l-131.723636-62.929455-218.112-728.901818z" p-id="5709"></path><path d="M1435.282153 1024h-101.655273a651.729455 651.729455 0 1 0-1177.786182 0H54.185425a744.727273 744.727273 0 1 1 1381.189819 0z" p-id="5710"></path></svg>