<?xml version="1.0" standalone="no"?><!DOCTYPE svg PUBLIC "-//W3C//DTD SVG 1.1//EN" "http://www.w3.org/Graphics/SVG/1.1/DTD/svg11.dtd"><svg t="1542014892964" class="icon" style="" viewBox="0 0 1024 1024" version="1.1" xmlns="http://www.w3.org/2000/svg" p-id="1509" xmlns:xlink="http://www.w3.org/1999/xlink" width="200" height="200"><defs><style type="text/css"></style></defs><path d="M764.635429 661.577143a147.017143 147.017143 0 0 0-81.261715 38.107428l-299.154285-152.137142a149.796571 149.796571 0 0 0-1.901715-77.750858l295.497143-150.820571a148.187429 148.187429 0 0 0 125.44 43.446857A148.48 148.48 0 1 0 636.854857 196.022857c-1.682286 12.8-1.682286 25.673143 0 38.4L328.850286 393.142857A148.187429 148.187429 0 0 0 92.891429 492.690286a148.48 148.48 0 0 0 243.053714 132.388571l303.396571 149.942857a148.48 148.48 0 1 0 291.693715 52.809143 148.48 148.48 0 0 0-166.4-166.253714z" p-id="1510"></path></svg>