<?xml version="1.0" standalone="no"?><!DOCTYPE svg PUBLIC "-//W3C//DTD SVG 1.1//EN" "http://www.w3.org/Graphics/SVG/1.1/DTD/svg11.dtd"><svg t="1542010117577" class="icon" style="" viewBox="0 0 1024 1024" version="1.1" xmlns="http://www.w3.org/2000/svg" p-id="1553" xmlns:xlink="http://www.w3.org/1999/xlink" width="200" height="200"><defs><style type="text/css"></style></defs><path d="M151.039452 959.992c0 35.327706 29.269089 63.999467 65.535454 63.999467h590.757744a64.852793 64.852793 0 0 0 65.791452-63.999467V301.65082H150.95412v658.34118z m520.870327-594.939042h101.716485v532.475563a50.346247 50.346247 0 0 1-50.77291 49.663586 50.346247 50.346247 0 0 1-50.943575-49.663586v-532.475563z m-210.771577 0h101.887151v532.475563A50.346247 50.346247 0 0 1 511.996444 947.192107a50.346247 50.346247 0 0 1-50.943575-49.663586v-532.475563z m-212.222232 0H350.717788v532.475563a50.346247 50.346247 0 0 1-50.858242 49.663586 50.346247 50.346247 0 0 1-50.772911-49.663586v-532.475563zM872.953436 68.436763a64.852793 64.852793 0 0 1 65.70612 63.999467v105.215123H85.333333V132.43623a64.852793 64.852793 0 0 1 65.706119-63.999467H408.743972V31.999733S407.71998 0 440.487707 0h140.798827c32.767727 0 33.962384 31.999733 33.962383 31.999733v36.43703h257.704519z" p-id="1554"></path></svg>
