<?xml version="1.0" standalone="no"?><!DOCTYPE svg PUBLIC "-//W3C//DTD SVG 1.1//EN" "http://www.w3.org/Graphics/SVG/1.1/DTD/svg11.dtd"><svg t="1541992770228" class="icon" style="" viewBox="0 0 1024 1024" version="1.1" xmlns="http://www.w3.org/2000/svg" p-id="8824" xmlns:xlink="http://www.w3.org/1999/xlink" width="200" height="200"><defs><style type="text/css"></style></defs><path d="M241.261782 426.975755l-92.460218-92.357825c-29.079404-29.181796-29.181796-76.282239-0.307176-105.566428l78.637261-79.456399c28.874619-29.284188 75.87267-29.488973 105.156859-0.307177l92.460217 92.255433c20.580846 20.580846 30.922465 50.376996 22.526299 76.384631l82.937736 81.606637c57.851631-58.363592 57.646847-153.07644-0.614353-211.030463L384.303779 43.311929C326.247364-14.744486 232.14887-14.334917 174.194847 44.028675L43.235137 176.626661c-57.851631 58.465985-57.646847 152.974047 0.614353 211.132855l145.089843 144.885059c58.158808 58.158808 152.257302 57.954023 210.108933-0.614354l-81.29946-81.709029c-24.778929 6.860282-56.930101-3.788514-76.487024-23.345437z m738.043463 202.019943L839.232623 489.025469c-59.182731-59.182731-155.124285-58.875554-214.102231 0.716746l83.244913 84.371228c26.417205-8.908127 56.622924 1.740669 77.613339 22.731083l86.419074 86.316682c29.591365 29.488973 29.79615 77.818123 0.409569 107.614273L792.541749 871.56298c-29.386581 29.898542-77.306162 30.000934-106.897527 0.409569l-86.316681-86.316682c-20.068884-20.068884-31.024857-52.83441-24.164575-78.227692l-83.552091-82.732952c-58.773161 59.5923-58.465985 155.738639 0.716746 215.126154l140.072622 139.970229c59.387515 59.182731 155.226677 58.875554 214.102231-0.511961l133.417124-135.157793c58.977946-59.5923 58.670769-155.841031-0.614353-215.126154zM354.917199 352.127007c-19.761708 20.273669-19.659315 53.141587 0.307176 73.415256l239.393121 243.693596c19.966492 20.171277 52.117664 20.068884 71.77698-0.307176 19.761708-20.478453 19.556923-53.243979-0.307177-73.415256l-239.393121-243.693596c-19.966492-20.068884-52.015272-19.966492-71.776979 0.307176z" p-id="8825"></path></svg>
