<?xml version="1.0" standalone="no"?><!DOCTYPE svg PUBLIC "-//W3C//DTD SVG 1.1//EN" "http://www.w3.org/Graphics/SVG/1.1/DTD/svg11.dtd"><svg t="1557454391441" class="icon" style="" viewBox="0 0 1877 1024" version="1.1" xmlns="http://www.w3.org/2000/svg" p-id="2660" xmlns:xlink="http://www.w3.org/1999/xlink" width="366.6015625" height="200"><defs><style type="text/css"></style></defs><path d="M341.333333 256h512v512H341.333333z" fill="#F67F89" p-id="2661"></path><path d="M1109.333333 384h256v256h-256z" fill="#F9F9FA" p-id="2662"></path><path d="M981.333333 256h512v512h-512z" fill="#3E4456" p-id="2663"></path><path d="M614.4 426.666667h256v170.666666h-256z" fill="#F9F9FA" p-id="2664"></path><path d="M981.333333 426.666667h273.066667v170.666666h-273.066667z" fill="#F67F89" p-id="2665"></path><path d="M1749.333333 1024h-1621.333333C59.733333 1024 0 964.266667 0 896v-768C0 59.733333 59.733333 0 128 0h1621.333333c68.266667 0 128 59.733333 128 128v768c0 68.266667-59.733333 128-128 128zM128 85.333333c-25.6 0-42.666667 17.066667-42.666667 42.666667v768c0 25.6 17.066667 42.666667 42.666667 42.666667h1621.333333c25.6 0 42.666667-17.066667 42.666667-42.666667v-768c0-25.6-17.066667-42.666667-42.666667-42.666667h-1621.333333z" fill="#3E4456" p-id="2666"></path></svg>