<?xml version="1.0" standalone="no"?><!DOCTYPE svg PUBLIC "-//W3C//DTD SVG 1.1//EN" "http://www.w3.org/Graphics/SVG/1.1/DTD/svg11.dtd"><svg t="1549001421078" class="icon" style="" viewBox="0 0 1024 1024" version="1.1" xmlns="http://www.w3.org/2000/svg" p-id="2400" xmlns:xlink="http://www.w3.org/1999/xlink" width="200" height="200"><defs><style type="text/css"></style></defs><path d="M1.2288 477.457067V134.929067C1.2288 9.489067 71.099733 1.2288 137.216 1.2288h544.5632C786.909867 1.2288 819.2 37.2736 819.2 137.216v68.369067c0 54.0672-68.334933 47.3088-68.334933 0V137.181867c0-50.312533-16.520533-68.334933-69.12-68.334934H137.216c-56.32 0-68.334933 7.509333-68.334933 68.334934v681.301333c0 37.546667 20.2752 68.334933 68.334933 68.334933h135.953067c41.301333 0 45.056 68.334933 0 68.334934s-78.848 0.750933-162.235734 0c-48.810667 0-90.112-29.2864-104.413866-74.3424a141.960533 141.960533 0 0 1-6.007467-39.799467c0.750933-144.247467 0.750933-220.091733 0.750933-363.554133" p-id="2401"></path><path d="M681.745067 1022.7712c-187.767467 0-339.490133-152.4736-339.490134-340.2752 0-187.767467 152.4736-340.241067 340.992-340.241067 187.8016 0 340.2752 153.224533 340.2752 340.992-0.750933 187.8016-153.258667 339.524267-341.777066 339.524267z m0.750933-612.932267c-149.469867 0-271.906133 121.685333-272.657067 271.1552 0 149.504 120.9344 272.657067 270.404267 272.657067 150.2208 0.750933 273.408-120.9344 273.408-270.404267a272.008533 272.008533 0 0 0-271.1552-273.408zM614.161067 204.8c54.0672 0 46.557867 69.085867 0 69.085867H205.550933c-51.0976 0-48.810667-69.085867 0-69.085867h408.576z m-340.2752 204.288c54.101333 0 46.592 69.12 0 69.12H205.550933c-51.0976 0-48.810667-69.12 0-69.12h68.334934z" p-id="2402"></path><path d="M849.237333 555.554133c-15.7696-15.7696-40.5504-15.7696-55.569066 0l-170.496 170.530134-51.848534-51.848534c-15.7696-15.7696-40.5504-15.7696-55.569066 0-15.7696 15.7696-15.7696 40.584533 0 55.6032l79.633066 79.598934a39.8336 39.8336 0 0 0 55.569067 0l3.003733-3.003734c1.501867-0.750933 2.2528-2.2528 3.003734-3.003733l191.556266-191.522133c15.7696-15.7696 15.7696-41.301333 0.750934-56.32z" p-id="2403"></path></svg>