<?xml version="1.0" standalone="no"?><!DOCTYPE svg PUBLIC "-//W3C//DTD SVG 1.1//EN" "http://www.w3.org/Graphics/SVG/1.1/DTD/svg11.dtd"><svg t="1554442006504" class="icon" style="" viewBox="0 0 1024 1024" version="1.1" xmlns="http://www.w3.org/2000/svg" p-id="1011" xmlns:xlink="http://www.w3.org/1999/xlink" width="200" height="200"><defs><style type="text/css"></style></defs><path d="M112.859429 954.148571H61.44a60.708571 60.708571 0 0 1-60.562286-60.635428V60.562286A60.708571 60.708571 0 0 1 61.44 0h51.419429v954.148571zM960.146286 0H226.450286a63.195429 63.195429 0 0 0-63.049143 62.976v828.196571c0 34.450286 28.306286 62.902857 63.049143 62.902858h733.622857a63.195429 63.195429 0 0 0 63.049143-62.902858V62.902857A63.341714 63.341714 0 0 0 960.146286 0z" p-id="1012"></path><path d="M365.714286 512c0-5.12 1.974857-10.24 5.851428-14.116571L571.026286 298.422857a19.894857 19.894857 0 0 1 34.084571 14.116572v99.766857h179.492572c10.971429 0 19.968 8.923429 19.968 19.894857v159.597714c0 10.971429-8.923429 19.968-19.968 19.968H605.110857v99.693714a19.968 19.968 0 0 1-34.084571 14.116572L371.565714 526.116571A20.041143 20.041143 0 0 1 365.714286 512z" fill="#e6e6e6" p-id="1013"></path></svg>