<?xml version="1.0" standalone="no"?><!DOCTYPE svg PUBLIC "-//W3C//DTD SVG 1.1//EN" "http://www.w3.org/Graphics/SVG/1.1/DTD/svg11.dtd"><svg t="1554442000886" class="icon" style="" viewBox="0 0 1024 1024" version="1.1" xmlns="http://www.w3.org/2000/svg" p-id="889" xmlns:xlink="http://www.w3.org/1999/xlink" width="200" height="200"><defs><style type="text/css"></style></defs><path d="M112.859429 954.148571H61.44a60.708571 60.708571 0 0 1-60.562286-60.635428V60.562286A60.708571 60.708571 0 0 1 61.44 0h51.419429v954.148571zM960.146286 0H226.450286a63.195429 63.195429 0 0 0-63.049143 62.976v828.196571c0 34.450286 28.306286 62.902857 63.049143 62.902858h733.622857a63.195429 63.195429 0 0 0 63.049143-62.902858V62.902857A63.341714 63.341714 0 0 0 960.146286 0z" p-id="890"></path><path d="M804.571429 512c0 5.12-1.974857 10.24-5.851429 14.116571L599.259429 725.577143a19.894857 19.894857 0 0 1-34.084572-14.116572V611.693714H385.682286A19.968 19.968 0 0 1 365.714286 591.798857V432.201143c0-10.971429 8.923429-19.968 19.968-19.968h179.492571V312.539429a19.968 19.968 0 0 1 34.084572-14.116572l199.460571 199.460572c3.876571 3.876571 5.851429 8.996571 5.851429 14.116571z" fill="#e6e6e6" p-id="891"></path></svg>