<?xml version="1.0" standalone="no"?><!DOCTYPE svg PUBLIC "-//W3C//DTD SVG 1.1//EN" "http://www.w3.org/Graphics/SVG/1.1/DTD/svg11.dtd"><svg t="1557454385543" class="icon" style="" viewBox="0 0 1939 1024" version="1.1" xmlns="http://www.w3.org/2000/svg" p-id="2534" xmlns:xlink="http://www.w3.org/1999/xlink" width="378.7109375" height="200"><defs><style type="text/css"></style></defs><path d="M17.066667 364.088889c0-51.2 11.377778-91.022222 28.444444-119.466667s45.511111-39.822222 73.955556-39.822222c62.577778 0 96.711111 51.2 96.711111 153.6 0 51.2-11.377778 91.022222-28.444445 113.777778-17.066667 28.444444-39.822222 39.822222-73.955555 39.822222-28.444444 0-56.888889-11.377778-68.266667-34.133333-17.066667-28.444444-28.444444-62.577778-28.444444-113.777778z m39.822222 0c0 79.644444 22.755556 119.466667 62.577778 119.466667 39.822222 0 62.577778-39.822222 62.577777-119.466667 0-85.333333-17.066667-125.155556-56.888888-125.155556-45.511111-5.688889-68.266667 39.822222-68.266667 125.155556zM347.022222 512V250.311111c-11.377778 5.688889-17.066667 17.066667-34.133333 22.755556-11.377778 5.688889-28.444444 11.377778-39.822222 17.066666v-39.822222c17.066667-5.688889 34.133333-11.377778 51.2-22.755555s34.133333-17.066667 39.822222-28.444445h17.066667V512h-34.133334z" fill="#3E4456" p-id="2535"></path><path d="M1604.266667 512V250.311111c-5.688889 5.688889-17.066667 11.377778-28.444445 22.755556-11.377778 5.688889-28.444444 11.377778-39.822222 17.066666v-39.822222c17.066667-5.688889 34.133333-11.377778 51.2-22.755555 17.066667-11.377778 34.133333-17.066667 39.822222-28.444445h17.066667V512h-39.822222zM1740.8 364.088889c0-51.2 11.377778-91.022222 28.444444-119.466667s45.511111-39.822222 73.955556-39.822222c62.577778 0 96.711111 51.2 96.711111 153.6 0 51.2-11.377778 91.022222-28.444444 113.777778-17.066667 28.444444-39.822222 39.822222-73.955556 39.822222-28.444444 0-56.888889-11.377778-68.266667-39.822222-17.066667-22.755556-28.444444-56.888889-28.444444-108.088889z m39.822222 0c0 79.644444 22.755556 119.466667 62.577778 119.466667 39.822222 0 62.577778-39.822222 62.577778-119.466667 0-85.333333-17.066667-125.155556-56.888889-125.155556-45.511111-5.688889-68.266667 39.822222-68.266667 125.155556zM1280 364.088889c0-51.2 11.377778-91.022222 28.444444-119.466667s45.511111-39.822222 73.955556-39.822222c62.577778 0 96.711111 51.2 96.711111 153.6 0 51.2-11.377778 91.022222-28.444444 113.777778-17.066667 28.444444-39.822222 39.822222-73.955556 39.822222-28.444444 0-56.888889-11.377778-68.266667-39.822222-17.066667-22.755556-28.444444-56.888889-28.444444-108.088889z m39.822222 0c0 79.644444 22.755556 119.466667 62.577778 119.466667 39.822222 0 62.577778-39.822222 62.577778-119.466667 0-85.333333-17.066667-125.155556-56.888889-125.155556-45.511111-5.688889-68.266667 39.822222-68.266667 125.155556z" fill="#3E4456" p-id="2536"></path><path d="M557.511111 398.222222c0-68.266667 11.377778-119.466667 34.133333-153.6 22.755556-34.133333 56.888889-51.2 96.711112-51.2 79.644444 0 125.155556 68.266667 125.155555 199.111111 0 62.577778-11.377778 113.777778-34.133333 147.911111-22.755556 34.133333-56.888889 51.2-96.711111 51.2s-68.266667-17.066667-91.022223-51.2c-22.755556-34.133333-34.133333-79.644444-34.133333-142.222222z m51.2-5.688889c0 102.4 28.444444 153.6 79.644445 153.6 51.2 0 79.644444-51.2 79.644444-159.288889C762.311111 284.444444 733.866667 227.555556 688.355556 227.555556c-56.888889 0-79.644444 56.888889-79.644445 164.977777zM978.488889 580.266667V250.311111c-5.688889 5.688889-22.755556 17.066667-39.822222 28.444445-17.066667 11.377778-34.133333 17.066667-51.2 22.755555v-51.2c22.755556-5.688889 39.822222-17.066667 68.266666-28.444444 22.755556-11.377778 39.822222-22.755556 51.2-34.133334h17.066667v398.222223h-45.511111z" fill="#F67F89" p-id="2537"></path><path d="M1410.844444 1012.622222c-11.377778 11.377778-34.133333 11.377778-45.511111 0l-267.377777-261.688889c-73.955556 56.888889-170.666667 96.711111-273.066667 96.711111-238.933333 0-432.355556-187.733333-432.355556-420.977777C398.222222 187.733333 591.644444 0 830.577778 0s432.355556 187.733333 432.355555 420.977778c0 108.088889-39.822222 210.488889-113.777777 284.444444l261.688888 261.688889c17.066667 11.377778 17.066667 34.133333 0 45.511111zM830.577778 68.266667C625.777778 68.266667 466.488889 227.555556 466.488889 426.666667s164.977778 358.4 364.088889 358.4c199.111111 0 364.088889-159.288889 364.088889-358.4s-164.977778-358.4-364.088889-358.4z" fill="#3E4456" p-id="2538"></path></svg>