<?xml version="1.0" standalone="no"?><!DOCTYPE svg PUBLIC "-//W3C//DTD SVG 1.1//EN" "http://www.w3.org/Graphics/SVG/1.1/DTD/svg11.dtd"><svg t="1542599119134" class="icon" style="" viewBox="0 0 1024 1024" version="1.1" xmlns="http://www.w3.org/2000/svg" p-id="1958" xmlns:xlink="http://www.w3.org/1999/xlink" width="200" height="200"><defs><style type="text/css"></style></defs><path d="M896 18.285714 128 18.285714C67.657143 18.285714 18.285714 67.657143 18.285714 128L18.285714 896C18.285714 956.342858 67.657143 1005.714285 128 1005.714285L896 1005.714285C956.342858 1005.714285 1005.714285 956.342858 1005.714285 896L1005.714285 128C1005.714285 67.657143 956.342858 18.285714 896 18.285714L896 18.285714ZM347.428573 786.285715 237.714286 786.285715 237.714286 402.285715 347.428573 402.285715 347.428573 786.285715 347.428573 786.285715ZM566.857142 786.285715 457.142858 786.285715 457.142858 237.714286 566.857142 237.714286 566.857142 786.285715 566.857142 786.285715ZM786.285715 786.285715 676.571427 786.285715 676.571427 566.857142 786.285715 566.857142 786.285715 786.285715 786.285715 786.285715Z" p-id="1959" fill="#ffffff"></path></svg>