<?xml version="1.0" standalone="no"?><!DOCTYPE svg PUBLIC "-//W3C//DTD SVG 1.1//EN" "http://www.w3.org/Graphics/SVG/1.1/DTD/svg11.dtd"><svg t="1542101592774" class="icon" style="" viewBox="0 0 1170 1024" version="1.1" xmlns="http://www.w3.org/2000/svg" p-id="3282" xmlns:xlink="http://www.w3.org/1999/xlink" width="228.515625" height="200"><defs><style type="text/css"></style></defs><path d="M438.857143 638.098286c-155.282286-8.338286-288.036571-42.934857-365.714286-91.136V640c0 63.414857 158.134857 116.077714 365.714286 126.244571v63.853715c-155.282286-8.338286-288.036571-42.861714-365.714286-91.136v93.037714H0V223.963429C0 100.425143 229.229714 0 512 0s512 100.278857 512 224.036571v202.093715h-73.142857V339.382857c-89.6 65.024-252.635429 108.544-438.857143 108.544S162.742857 404.48 73.142857 339.456v108.544c0 63.414857 158.134857 116.077714 365.714286 126.244571v63.853715zM512 1024c-282.770286 0-512-85.942857-512-192h73.142857c0 70.729143 196.461714 128 438.857143 128V1024z m0-640c242.395429 0 438.857143-71.68 438.857143-160.036571C950.857143 135.68 754.395429 64.073143 512 64.073143s-438.857143 71.68-438.857143 160.036571C73.142857 312.32 269.604571 384 512 384z m596.845714 419.84l-47.689143-25.892571c2.706286-13.677714 4.388571-27.574857 4.388572-41.910858a216.722286 216.722286 0 0 0-4.388572-41.984l47.762286-25.965714a37.229714 37.229714 0 0 0 14.921143-52.443428l-40.813714-66.56a40.301714 40.301714 0 0 0-24.722286-17.846858 43.154286 43.154286 0 0 0-31.012571 3.803429l-48.274286 26.258286a248.539429 248.539429 0 0 0-76.726857-42.276572V486.4c0-21.211429-18.285714-38.4-40.813715-38.4h-81.627428c-22.674286 0.073143-40.886857 17.261714-40.813714 38.4v32.621714c-28.086857 9.581714-54.125714 23.917714-76.653715 42.276572l-48.274285-26.258286a43.154286 43.154286 0 0 0-31.085715-3.803429 40.301714 40.301714 0 0 0-24.722285 17.92l-40.813715 66.56a37.229714 37.229714 0 0 0 14.921143 52.443429l47.762286 25.892571c-2.779429 13.897143-4.315429 27.867429-4.388572 41.910858 0 14.409143 1.755429 28.306286 4.388572 41.984l-47.762286 25.965714a37.229714 37.229714 0 0 0-14.921143 52.443428l40.813715 66.56c5.339429 8.777143 14.262857 15.213714 24.722285 17.846858a43.154286 43.154286 0 0 0 31.012572-3.803429l48.274285-26.258286c22.674286 18.066286 48.201143 32.768 76.8 42.276572v32.621714c0 21.211429 18.212571 38.4 40.740572 38.4h81.627428c22.674286-0.073143 40.96-17.261714 40.813715-38.4v-32.621714c28.16-9.581714 54.125714-23.917714 76.726857-42.276572l48.274286 26.258286c9.362286 5.12 20.48 6.436571 31.012571 3.803429a40.374857 40.374857 0 0 0 24.722286-17.92l40.813714-66.56a37.229714 37.229714 0 0 0-14.921143-52.443429z m-50.614857 37.814857l-18.797714 29.915429a19.748571 19.748571 0 0 1-25.746286 6.217143l-52.297143-27.574858a192.365714 192.365714 0 0 1-103.058285 54.637715v37.961143c0 9.508571-8.411429 17.188571-18.870858 17.188571h-37.595428a19.382857 19.382857 0 0 1-13.238857-4.973714 16.822857 16.822857 0 0 1-5.632-12.288v-37.888a192.365714 192.365714 0 0 1-103.131429-54.710857l-52.224 27.721142a19.748571 19.748571 0 0 1-25.746286-6.290285l-18.724571-29.915429a16.091429 16.091429 0 0 1-1.901714-13.092571 17.261714 17.261714 0 0 1 8.777143-10.386286l52.443428-27.794286a158.134857 158.134857 0 0 1-9.947428-54.345143c0-19.090286 3.657143-37.302857 10.020571-54.418285l-52.589714-27.794286a17.261714 17.261714 0 0 1-8.704-10.386286 16.091429 16.091429 0 0 1 1.901714-13.165714l18.724571-29.842286a19.748571 19.748571 0 0 1 25.746286-6.217143l52.297143 27.574858a192.365714 192.365714 0 0 1 103.131429-54.637715v-37.961143c0-9.508571 8.411429-17.188571 18.797714-17.188571h37.595428c10.459429 0 18.870857 7.68 18.870858 17.261714v37.888a192.365714 192.365714 0 0 1 103.131428 54.637715l52.224-27.574858a19.748571 19.748571 0 0 1 25.746286 6.217143l18.797714 29.915429a16.091429 16.091429 0 0 1 1.828572 13.092571 17.261714 17.261714 0 0 1-8.777143 10.386286l-52.370286 27.794286c6.144 17.115429 9.947429 35.328 9.947429 54.345143 0 19.090286-3.730286 37.302857-9.947429 54.418285l52.443429 27.794286c4.315429 2.194286 7.460571 5.997714 8.777142 10.386286a16.091429 16.091429 0 0 1-1.901714 13.165714zM820.662857 640c-56.832 0-102.912 43.008-102.912 96.036571 0 52.955429 46.08 95.963429 102.912 95.963429s102.912-43.008 102.912-96.036571c0-52.955429-46.08-95.963429-102.912-95.963429z m0 128c-18.944 0-34.304-14.336-34.304-32.036571 0-17.627429 15.36-31.963429 34.377143-31.963429 18.870857 0 34.230857 14.336 34.230857 32.036571 0 17.627429-15.36 31.963429-34.304 31.963429z" p-id="3283"></path></svg>