<?xml version="1.0" standalone="no"?><!DOCTYPE svg PUBLIC "-//W3C//DTD SVG 1.1//EN" "http://www.w3.org/Graphics/SVG/1.1/DTD/svg11.dtd"><svg t="1542014921137" class="icon" style="" viewBox="0 0 1024 1024" version="1.1" xmlns="http://www.w3.org/2000/svg" p-id="1755" xmlns:xlink="http://www.w3.org/1999/xlink" width="200" height="200"><defs><style type="text/css"></style></defs><path d="M267.556571 19.69981C342.503619 6.631619 423.984762 0 512 0c88.015238 0 169.496381 6.631619 244.443429 19.69981s134.241524 31.012571 177.785904 53.540571c43.495619 22.479238 65.389714 46.811429 65.389715 73.191619v73.240381c0 26.331429-21.74781 50.663619-65.389715 73.191619-43.690667 22.528-102.838857 40.326095-177.785904 53.49181-74.947048 12.921905-156.42819 19.504762-244.443429 19.504761-88.015238 0-169.496381-6.680381-244.443429-19.748571S133.315048 315.14819 89.721905 292.62019C46.128762 270.09219 24.380952 245.76 24.380952 219.37981V146.18819c0-26.38019 21.74781-50.712381 65.389715-73.24038C133.461333 50.712381 192.609524 32.914286 267.556571 19.69981z m-36.717714 394.483809C318.025143 430.665143 411.745524 438.857143 512 438.857143s193.974857-8.192 281.161143-24.624762c87.137524-16.335238 155.989333-40.569905 206.311619-72.557714v97.133714c0 26.38019-21.74781 50.712381-65.389714 73.240381-43.690667 22.528-102.838857 40.326095-177.785905 53.491809-74.800762 13.06819-156.281905 19.602286-244.297143 19.602286-88.015238 0-169.496381-6.680381-244.443429-19.699809-74.947048-13.06819-134.241524-31.012571-177.785904-53.540572C46.128762 489.325714 24.380952 465.042286 24.380952 438.662095V341.528381c50.468571 32.231619 119.320381 56.417524 206.457905 72.655238z m0 219.526095c87.186286 16.384 180.906667 24.576 281.161143 24.576s193.974857-8.192 281.161143-24.576c87.137524-16.384 155.989333-40.569905 206.311619-72.557714V658.285714c0 26.38019-21.74781 50.712381-65.389714 73.240381-43.690667 22.528-102.838857 40.326095-177.785905 53.49181s-156.281905 19.69981-244.297143 19.699809c-88.015238 0-169.496381-6.631619-244.443429-19.699809s-134.095238-30.96381-177.785904-53.49181C46.128762 708.998095 24.380952 684.714667 24.380952 658.285714v-97.133714c50.468571 31.98781 119.320381 56.173714 206.457905 72.557714z m0 219.428572C318.025143 869.522286 411.745524 877.714286 512 877.714286s193.974857-8.192 281.161143-24.576c87.137524-16.384 155.989333-40.569905 206.311619-72.606476V877.714286c0 26.331429-21.74781 50.712381-65.389714 73.191619-43.690667 22.528-102.838857 40.326095-177.785905 53.491809S600.015238 1024 512 1024c-88.015238 0-169.496381-6.680381-244.443429-19.69981-74.947048-13.06819-134.241524-31.012571-177.785904-53.540571C46.128762 928.280381 24.380952 903.94819 24.380952 877.568v-97.133714c50.468571 32.134095 119.320381 56.32 206.457905 72.655238z" p-id="1756"></path></svg>