<?xml version="1.0" standalone="no"?><!DOCTYPE svg PUBLIC "-//W3C//DTD SVG 1.1//EN" "http://www.w3.org/Graphics/SVG/1.1/DTD/svg11.dtd"><svg t="1542014875367" class="icon" style="" viewBox="0 0 1102 1024" version="1.1" xmlns="http://www.w3.org/2000/svg" p-id="1386" xmlns:xlink="http://www.w3.org/1999/xlink" width="215.234375" height="200"><defs><style type="text/css"></style></defs><path d="M1036.288 985.088H136.743385s-71.601231 11.185231-71.601231-84.283077V128.551385S66.717538 42.535385 154.387692 42.535385H469.464615s38.203077-7.955692 70.104616 41.432615c30.168615 47.734154 47.734154 77.981538 47.734154 77.981538s11.106462 12.760615 36.548923 12.760616h405.976615s71.68-7.955692 71.68 71.68v659.062154s11.106462 79.556923-65.299692 79.556923z m-66.875077-604.947692a35.367385 35.367385 0 0 0-34.973538-35.052308H233.944615a35.682462 35.682462 0 0 0-36.627692 35.052308v3.150769c0 20.716308 15.911385 36.627692 36.627692 36.627692h700.49477a35.682462 35.682462 0 0 0 34.973538-36.627692v-3.150769z" p-id="1387"></path></svg>