<?xml version="1.0" standalone="no"?><!DOCTYPE svg PUBLIC "-//W3C//DTD SVG 1.1//EN" "http://www.w3.org/Graphics/SVG/1.1/DTD/svg11.dtd"><svg t="1542014982882" class="icon" style="" viewBox="0 0 1260 1024" version="1.1" xmlns="http://www.w3.org/2000/svg" p-id="2126" xmlns:xlink="http://www.w3.org/1999/xlink" width="246.09375" height="200"><defs><style type="text/css"></style></defs><path d="M974.769231 756.420923H110.434462a49.230769 49.230769 0 0 1-49.23077-49.230769V78.139077c0-27.175385 22.055385-49.230769 49.23077-49.230769h241.821538c12.288 0 24.103385 4.568615 33.083077 12.760615l73.255385 66.56h516.174769c27.175385 0 49.230769 22.055385 49.230769 49.230769v549.809231c0 27.175385-22.055385 49.152-49.230769 49.152zM159.665231 657.959385h765.873231v-451.347693H439.532308a49.230769 49.230769 0 0 1-33.083077-12.760615l-73.255385-66.481231H159.744v530.589539z" p-id="2127"></path><path d="M1155.072 948.145231H330.830769a49.230769 49.230769 0 0 1 0-98.461539h774.931693V322.166154a49.230769 49.230769 0 0 1 98.461538 0v576.748308c0 27.175385-22.055385 49.230769-49.230769 49.230769z" p-id="2128"></path></svg>

