<?xml version="1.0" standalone="no"?><!DOCTYPE svg PUBLIC "-//W3C//DTD SVG 1.1//EN" "http://www.w3.org/Graphics/SVG/1.1/DTD/svg11.dtd"><svg t="1557813000199" class="icon" style="" viewBox="0 0 1024 1024" version="1.1" xmlns="http://www.w3.org/2000/svg" p-id="3533" xmlns:xlink="http://www.w3.org/1999/xlink" width="200" height="200"><defs><style type="text/css"></style></defs><path d="M451.318 451.318h-364.036c-33.754 0-60.734 27.168-60.734 60.682 0 33.747 27.191 60.682 60.734 60.682h364.036v364.036c0 33.754 27.168 60.734 60.682 60.734 33.747 0 60.682-27.191 60.682-60.734v-364.036h364.036c33.754 0 60.734-27.168 60.734-60.682 0-33.747-27.191-60.682-60.734-60.682h-364.036v-364.036c0-33.754-27.168-60.734-60.682-60.734-33.747 0-60.682 27.191-60.682 60.734v364.036z" fill="" p-id="3534"></path></svg>