<?xml version="1.0" standalone="no"?><!DOCTYPE svg PUBLIC "-//W3C//DTD SVG 1.1//EN" "http://www.w3.org/Graphics/SVG/1.1/DTD/svg11.dtd"><svg t="1542014944380" class="icon" style="" viewBox="0 0 1024 1024" version="1.1" xmlns="http://www.w3.org/2000/svg" p-id="1878" xmlns:xlink="http://www.w3.org/1999/xlink" width="200" height="200"><defs><style type="text/css"></style></defs><path d="M985.673143 729.673143h-179.346286V550.326857a38.326857 38.326857 0 1 0-76.653714 0v179.346286H550.326857a38.326857 38.326857 0 1 0 0 76.653714h179.346286v179.346286a38.326857 38.326857 0 0 0 76.653714 0v-179.346286h179.346286a38.326857 38.326857 0 1 0 0-76.653714zM384 638.025143C248.100571 629.76 131.949714 595.163429 64 546.889143V640c0 63.488 138.386286 116.150857 320 126.244571v63.853715c-135.899429-8.338286-252.050286-42.788571-320-91.136v93.037714H0V223.963429C0 100.278857 200.557714 0 448 0c247.369143 0 447.926857 100.278857 447.926857 223.963429v202.093714h-64V339.456c-78.409143 65.024-221.037714 108.544-384 108.544-162.889143 0-305.517714-43.52-383.926857-108.544v108.544c0 63.414857 138.386286 116.077714 320 126.171429v63.853714zM448 1024C200.557714 1024 0 937.984 0 831.926857h64c0 70.729143 171.885714 128 384 128V1024z m0-640c212.114286 0 384-71.68 384-159.963429 0-88.283429-171.885714-159.963429-384-159.963428s-384 71.68-384 159.963428c0 88.356571 171.885714 160.036571 384 160.036572z" p-id="1879"></path></svg>