<?xml version="1.0" standalone="no"?><!DOCTYPE svg PUBLIC "-//W3C//DTD SVG 1.1//EN" "http://www.w3.org/Graphics/SVG/1.1/DTD/svg11.dtd"><svg t="1542089080007" class="icon" style="" viewBox="0 0 1024 1024" version="1.1" xmlns="http://www.w3.org/2000/svg" p-id="1696" xmlns:xlink="http://www.w3.org/1999/xlink" width="200" height="200"><defs><style type="text/css"></style></defs><path d="M870.4 0H153.6C68.693333 0 0 57.258667 0 128v768c0 70.741333 68.693333 128 153.6 128h716.8c84.906667 0 153.6-57.258667 153.6-128v-768c0-70.741333-68.778667-128-153.6-128z m51.2 896c0 23.552-22.954667 42.666667-51.2 42.666667H153.6c-28.330667 0-51.2-19.114667-51.2-42.666667v-768c0-23.552 22.869333-42.666667 51.2-42.666667h716.8c28.330667 0 51.2 19.114667 51.2 42.666667v768z" p-id="1697"></path><path d="M724.48 473.856H550.058667V299.605333A42.922667 42.922667 0 0 0 506.624 256a42.922667 42.922667 0 0 0-43.605333 43.52v174.336H299.52a42.922667 42.922667 0 0 0-43.605333 43.52c0 21.845333 16.298667 43.605333 43.52 43.605333h163.498666V724.48c0 21.845333 16.298667 43.605333 43.52 43.605333 21.76 0 43.52-16.298667 43.52-43.52V560.896H724.48c21.845333 0 43.605333-16.298667 43.605333-43.52-5.461333-27.306667-21.76-43.52-43.52-43.52z" p-id="1698"></path></svg>