<?xml version="1.0" standalone="no"?><!DOCTYPE svg PUBLIC "-//W3C//DTD SVG 1.1//EN" "http://www.w3.org/Graphics/SVG/1.1/DTD/svg11.dtd"><svg t="1542096624717" class="icon" style="" viewBox="0 0 1024 1024" version="1.1" xmlns="http://www.w3.org/2000/svg" p-id="1701" xmlns:xlink="http://www.w3.org/1999/xlink" width="200" height="200"><defs><style type="text/css"></style></defs><path d="M1009.875553 106.622241a46.913786 46.913786 0 0 0-66.44698 0l-464.87297 464.872969a46.913786 46.913786 0 1 0 66.361683 66.361683l464.872969-464.87297a46.913786 46.913786 0 0 0 0-66.361682z m-172.301541 498.650895a46.487297 46.487297 0 0 0-46.487297 46.487297v232.692378a46.487297 46.487297 0 0 1-46.487297 46.487297H139.667473a46.487297 46.487297 0 0 1-46.572595-46.487297V139.973678c0-25.589338 20.812661-46.487297 46.572595-46.487297h465.299459a46.487297 46.487297 0 1 0 0-93.059892h-511.786756C41.575012 0.426489 0.034987 42.051812 0.034987 93.401083v837.624323C0.034987 982.289379 41.660309 1024 93.094878 1024h697.991837c51.434569 0 93.059892-41.625323 93.059892-92.974594V651.675135a46.487297 46.487297 0 0 0-46.487297-46.487297z" p-id="1702"></path></svg>
