<?xml version="1.0" standalone="no"?><!DOCTYPE svg PUBLIC "-//W3C//DTD SVG 1.1//EN" "http://www.w3.org/Graphics/SVG/1.1/DTD/svg11.dtd"><svg t="1542248207297" class="icon" style="" viewBox="0 0 1365 1024" version="1.1" xmlns="http://www.w3.org/2000/svg" p-id="1690" xmlns:xlink="http://www.w3.org/1999/xlink" width="266.6015625" height="200"><defs><style type="text/css"></style></defs><path d="M1282.816 119.722667V904.533333c0 31.658667-11.434667 58.88-33.877333 81.493334a111.018667 111.018667 0 0 1-81.493334 33.877333H198.144c-31.573333 0-58.794667-11.264-81.408-33.877333A111.018667 111.018667 0 0 1 82.773333 904.533333V119.722667c0-31.573333 11.178667-58.794667 33.877334-81.408 22.613333-22.698667 49.749333-33.877333 81.408-33.877334h969.472c31.573333 0 58.88 11.349333 81.408 33.877334 22.357333 22.357333 33.792 49.493333 33.792 81.408zM451.84 350.293333V211.882667a21.930667 21.930667 0 0 0-23.04-23.04H198.144a21.930667 21.930667 0 0 0-23.04 23.04v138.410666a21.930667 21.930667 0 0 0 23.04 22.954667h230.826667a21.930667 21.930667 0 0 0 22.954666-22.954667z m0 277.248V488.96a21.930667 21.930667 0 0 0-23.04-22.954667H198.144a21.930667 21.930667 0 0 0-23.04 23.04v138.410667a21.930667 21.930667 0 0 0 23.04 22.869333h230.826667a21.930667 21.930667 0 0 0 22.954666-22.869333z m0 276.821334V765.952a21.930667 21.930667 0 0 0-23.04-22.954667H198.144a21.930667 21.930667 0 0 0-23.04 22.954667v138.410667a21.930667 21.930667 0 0 0 23.04 23.04h230.826667a21.930667 21.930667 0 0 0 22.954666-23.04z m369.237333-554.069334V211.882667a21.930667 21.930667 0 0 0-22.869333-23.04H567.125333a21.930667 21.930667 0 0 0-22.869333 23.04v138.410666a21.930667 21.930667 0 0 0 22.869333 22.954667h231.082667a21.930667 21.930667 0 0 0 22.869333-22.954667z m0 277.248V488.96a21.930667 21.930667 0 0 0-22.869333-22.954667H567.125333a21.930667 21.930667 0 0 0-22.869333 23.04v138.410667a21.930667 21.930667 0 0 0 22.869333 22.869333h231.082667a21.930667 21.930667 0 0 0 22.869333-22.869333z m0 276.821334V765.952a21.930667 21.930667 0 0 0-22.869333-22.954667H567.125333a21.930667 21.930667 0 0 0-22.869333 22.954667v138.410667a21.930667 21.930667 0 0 0 22.869333 23.04h231.082667a21.930667 21.930667 0 0 0 22.869333-23.04z m369.322667-554.069334V211.882667a21.930667 21.930667 0 0 0-22.954667-23.04h-230.826666a21.930667 21.930667 0 0 0-22.954667 23.04v138.410666a21.930667 21.930667 0 0 0 22.954667 22.954667h230.826666a21.930667 21.930667 0 0 0 23.04-22.954667z m0 277.248V488.96a21.930667 21.930667 0 0 0-22.954667-22.954667h-230.826666a21.930667 21.930667 0 0 0-22.954667 23.04v138.410667a21.930667 21.930667 0 0 0 22.954667 22.869333h230.826666a21.930667 21.930667 0 0 0 23.04-22.869333z m0 276.821334V765.952a21.930667 21.930667 0 0 0-22.954667-22.954667h-230.826666a21.930667 21.930667 0 0 0-22.954667 22.954667v138.410667a21.930667 21.930667 0 0 0 22.954667 23.04h230.826666a21.930667 21.930667 0 0 0 23.04-23.04z" p-id="1691"></path></svg>