<svg xmlns="http://www.w3.org/2000/svg" width="12" height="14" viewBox="0 0 12 14">
  <g fill="none" fill-rule="evenodd" opacity=".795" transform="translate(1 1)">
    <path stroke="#333743" stroke-linecap="round" stroke-linejoin="round" d="M6.25,0 L1.25,0 C0.559644063,0 0,0.5372583 0,1.2 L0,10.8 C0,11.4627417 0.559644063,12 1.25,12 L8.75,12 C9.44035594,12 10,11.4627417 10,10.8 L10,3.6 L6.25,0 Z"/>
    <polyline stroke="#333743" stroke-linecap="round" stroke-linejoin="round" points="6 0 6 3.692 10 3.692"/>
    <path fill="#333743" fill-rule="nonzero" d="M5.56557377,8.32535965 L3.28922717,8.32535965 C2.99590164,8.32535965 2.75702576,8.5301104 2.75702576,8.78153229 C2.75702576,9.03295417 2.99590164,9.23770492 3.28922717,9.23770492 L5.56381733,9.23770492 C6.21545667,9.23770492 6.82845433,9.02241552 7.28864169,8.62947474 C7.7470726,8.23502844 8,7.71110739 8,7.1540649 C8,6.5955169 7.7470726,6.07159585 7.29039813,5.67714955 C6.83548009,5.28420877 6.22599532,5.06741385 5.57611241,5.06741385 L3.77400468,5.06741385 L3.77400468,4 L2,5.52057544 L3.77400468,7.04416193 L3.77400468,5.97975912 L5.57611241,5.97975912 C5.93969555,5.97975912 6.28044496,6.10020074 6.53688525,6.32000669 C6.79332553,6.53981265 6.93559719,6.83640013 6.93559719,7.15105386 C6.93559719,7.46420207 6.79332553,7.75928404 6.53688525,7.98059552 C6.27868852,8.20341251 5.93266979,8.32535965 5.56557377,8.32535965 L5.56557377,8.32535965 Z"/>
  </g>
</svg>
